%TF.GenerationSoftware,KiCad,Pcbnew,6.0.0-rc1-unknown-1a22918~65~ubuntu16.04.1*%
%TF.CreationDate,2019-08-07T17:00:26+03:00*%
%TF.ProjectId,BackbonePCB,4261636B626F6E655043422E6B696361,rev?*%
%TF.SameCoordinates,Original*%
%TF.FileFunction,Copper,L1,Top,Signal*%
%TF.FilePolarity,Positive*%
%FSLAX46Y46*%
G04 Gerber Fmt 4.6, Leading zero omitted, Abs format (unit mm)*
G04 Created by KiCad (PCBNEW 6.0.0-rc1-unknown-1a22918~65~ubuntu16.04.1) date Wed Aug  7 17:00:26 2019*
%MOMM*%
%LPD*%
G01*
G04 APERTURE LIST*
%ADD10C,0.050000*%
%ADD11C,5.000000*%
%ADD12R,1.524000X4.000000*%
%ADD13R,3.000000X0.800000*%
%ADD14R,4.000000X1.524000*%
%ADD15R,3.000000X2.000000*%
%ADD16C,0.800000*%
%ADD17C,4.000000*%
%ADD18C,1.200000*%
%ADD19C,0.250000*%
%ADD20C,5.000000*%
%ADD21C,0.254000*%
G04 APERTURE END LIST*
D10*
X18050000Y-19050000D02*
X18050000Y-93050000D01*
X49050000Y-93050000D02*
X18050000Y-93050000D01*
X218050000Y-93050000D02*
X49050000Y-93050000D01*
X218050000Y-19050000D02*
X218050000Y-93050000D01*
X18050000Y-19050000D02*
X218050000Y-19050000D01*
D11*
X133550000Y-27050000D03*
X133550000Y-87050000D03*
D12*
X53610000Y-26050000D03*
X56150000Y-26050000D03*
X58690000Y-26050000D03*
X61230000Y-26050000D03*
X63770000Y-26050000D03*
X66310000Y-26050000D03*
X192294000Y-26162000D03*
X189754000Y-26162000D03*
X187214000Y-26162000D03*
X184674000Y-26162000D03*
X182134000Y-26162000D03*
X179594000Y-26162000D03*
X179569000Y-86995000D03*
X182109000Y-86995000D03*
X184649000Y-86995000D03*
X187189000Y-86995000D03*
X189729000Y-86995000D03*
X192269000Y-86995000D03*
X66285000Y-86995000D03*
X63745000Y-86995000D03*
X61205000Y-86995000D03*
X58665000Y-86995000D03*
X56125000Y-86995000D03*
X53585000Y-86995000D03*
D13*
X208050000Y-24780000D03*
X208050000Y-26050000D03*
X208050000Y-27320000D03*
X208050000Y-28590000D03*
X208050000Y-29860000D03*
X208050000Y-31130000D03*
X208050000Y-32400000D03*
X208050000Y-33670000D03*
X208050000Y-34940000D03*
X208050000Y-36210000D03*
X208050000Y-37480000D03*
X208050000Y-38750000D03*
X208050000Y-40020000D03*
X208050000Y-41290000D03*
X208050000Y-42560000D03*
X208050000Y-43830000D03*
X208050000Y-45100000D03*
X208050000Y-46370000D03*
X208050000Y-47640000D03*
X208050000Y-48910000D03*
X208050000Y-50180000D03*
X208050000Y-51450000D03*
X208050000Y-52720000D03*
X208050000Y-53990000D03*
X208050000Y-55260000D03*
X208050000Y-56530000D03*
X208050000Y-57800000D03*
X208050000Y-59070000D03*
X208050000Y-60340000D03*
X208050000Y-61610000D03*
X208050000Y-62880000D03*
X208050000Y-64150000D03*
X44050000Y-64290000D03*
X44050000Y-63020000D03*
X44050000Y-61750000D03*
X44050000Y-60480000D03*
X44050000Y-59210000D03*
X44050000Y-57940000D03*
X44050000Y-56670000D03*
X44050000Y-55400000D03*
X44050000Y-54130000D03*
X44050000Y-52860000D03*
X44050000Y-51590000D03*
X44050000Y-50320000D03*
X44050000Y-49050000D03*
X44050000Y-47780000D03*
X44050000Y-46510000D03*
X44050000Y-45240000D03*
X44050000Y-43970000D03*
X44050000Y-42700000D03*
X44050000Y-41430000D03*
X44050000Y-40160000D03*
X44050000Y-38890000D03*
X44050000Y-37620000D03*
X44050000Y-36350000D03*
X44050000Y-35080000D03*
X44050000Y-33810000D03*
X44050000Y-32540000D03*
X44050000Y-31270000D03*
X44050000Y-30000000D03*
X44050000Y-28730000D03*
X44050000Y-27460000D03*
X44050000Y-26190000D03*
X44050000Y-24920000D03*
D14*
X42605000Y-82931000D03*
X42605000Y-77851000D03*
X42605000Y-72644000D03*
X42605000Y-67564000D03*
X206747000Y-77851000D03*
X206747000Y-82931000D03*
X206493000Y-67564000D03*
X206493000Y-72644000D03*
D15*
X70120000Y-62940000D03*
X70120000Y-60400000D03*
X70120000Y-57860000D03*
X70120000Y-55320000D03*
X70120000Y-52780000D03*
X70120000Y-50240000D03*
X70120000Y-47700000D03*
X70120000Y-45160000D03*
X70120000Y-42620000D03*
X70120000Y-40080000D03*
X70120000Y-37540000D03*
X70120000Y-35000000D03*
X70120000Y-32460000D03*
X70120000Y-29920000D03*
X70120000Y-27380000D03*
X70120000Y-24840000D03*
X195317000Y-26035000D03*
X195317000Y-28575000D03*
X195317000Y-31115000D03*
X195317000Y-33655000D03*
X195317000Y-36195000D03*
X195317000Y-38735000D03*
X195317000Y-41275000D03*
X195317000Y-43815000D03*
X195317000Y-46355000D03*
X195317000Y-48895000D03*
X195317000Y-51435000D03*
X195317000Y-53975000D03*
X195317000Y-56515000D03*
X195317000Y-59055000D03*
X195317000Y-61595000D03*
X195317000Y-64135000D03*
D16*
X180331000Y-20320000D03*
X211446000Y-69723000D03*
X208906000Y-69723000D03*
X183887000Y-22860000D03*
X209795000Y-68834000D03*
X212589000Y-68580000D03*
X212589000Y-66929000D03*
X211065000Y-67564000D03*
X181601000Y-20320000D03*
X184903000Y-22352000D03*
X182744000Y-22860000D03*
X182236000Y-89789000D03*
X210303000Y-73533000D03*
X211954000Y-73025000D03*
X181982000Y-91567000D03*
X183633000Y-91567000D03*
X183633000Y-89789000D03*
X52061000Y-64389000D03*
X36948000Y-69977000D03*
X38345000Y-69850000D03*
X59554000Y-64389000D03*
X39488000Y-68453000D03*
X53610000Y-64364000D03*
X57522000Y-64262000D03*
X46219000Y-86995000D03*
X37329000Y-74930000D03*
X37710000Y-73025000D03*
X42028000Y-88011000D03*
X35297000Y-71501000D03*
X36059000Y-72898000D03*
X195317000Y-86995000D03*
X186681000Y-64770000D03*
X186427000Y-67564000D03*
X195317000Y-85217000D03*
X189729000Y-64770000D03*
X69333000Y-86868000D03*
X75429000Y-64643000D03*
X72635000Y-64643000D03*
X67682000Y-85471000D03*
X63618000Y-64643000D03*
X63237000Y-67564000D03*
X69732999Y-85471000D03*
X47362000Y-27559000D03*
X204334000Y-27305000D03*
X72762000Y-26670000D03*
X47489000Y-24892000D03*
X204334000Y-24892000D03*
X72762000Y-24130000D03*
X204334000Y-62738000D03*
X73270000Y-61976000D03*
X47357340Y-63241340D03*
X47362000Y-60706000D03*
X204334000Y-60706000D03*
X73270000Y-59944000D03*
X47362000Y-57658000D03*
X204334000Y-57658000D03*
X73270000Y-56896000D03*
X47362000Y-55626000D03*
X204334000Y-55626000D03*
X73397000Y-54736996D03*
X47362000Y-53086000D03*
X204334000Y-52578000D03*
X73651000Y-51816000D03*
X47362000Y-50546000D03*
X204334000Y-50038000D03*
X73651004Y-49276000D03*
X47362000Y-48006000D03*
X204334000Y-47498000D03*
X73651000Y-46736004D03*
X47235000Y-45212000D03*
X204461000Y-45085000D03*
X73650998Y-44450000D03*
X47235000Y-42672000D03*
X204461000Y-42672000D03*
X73651000Y-41910000D03*
X47235000Y-40005000D03*
X204461000Y-40005000D03*
X73524000Y-39243000D03*
X47235000Y-37592000D03*
X204334000Y-37592000D03*
X73397000Y-36830002D03*
X47362000Y-35052000D03*
X204334000Y-35052000D03*
X73270008Y-34163000D03*
X47362000Y-32385000D03*
X204334000Y-32385000D03*
X73270000Y-31840010D03*
X47362000Y-29972000D03*
X204334000Y-29972000D03*
X76826000Y-29210000D03*
X204334000Y-26035000D03*
X47362000Y-26289000D03*
X198111000Y-25273000D03*
X47362000Y-28829000D03*
X204334000Y-28575000D03*
X198238001Y-27813000D03*
X204334000Y-31115000D03*
X47235000Y-31115000D03*
X198238000Y-31496000D03*
X204334000Y-33655000D03*
X47362000Y-33655000D03*
X198111000Y-34036000D03*
X204334000Y-36195000D03*
X47235000Y-36195000D03*
X198111000Y-36576000D03*
X204334000Y-38735000D03*
X47108000Y-38862000D03*
X198111000Y-39116000D03*
X204461000Y-41275000D03*
X47108000Y-41275000D03*
X198111000Y-41783000D03*
X204334000Y-43815000D03*
X47235000Y-43942000D03*
X197984000Y-44323000D03*
X204334000Y-46482000D03*
X47362000Y-46482000D03*
X198238000Y-46736000D03*
X204334000Y-49022000D03*
X47362000Y-49022000D03*
X198365000Y-49149000D03*
X204334000Y-51562000D03*
X47362000Y-51562000D03*
X198238000Y-52070000D03*
X204334000Y-54102000D03*
X47362000Y-54102000D03*
X198492000Y-54610000D03*
X204334000Y-56642000D03*
X47362000Y-56642000D03*
X198492000Y-56896000D03*
X204334000Y-59182000D03*
X47362000Y-59182000D03*
X198492000Y-59944000D03*
X204334000Y-61722000D03*
X47362000Y-61722000D03*
X198365006Y-62070979D03*
X204334000Y-64262000D03*
X47362000Y-64262000D03*
X199127000Y-64964000D03*
D17*
X42605000Y-72644000D02*
X206493000Y-72644000D01*
D18*
X179594000Y-22962000D02*
X179442000Y-22810000D01*
X179594000Y-26162000D02*
X179594000Y-22962000D01*
X179442000Y-22810000D02*
X179442000Y-21209000D01*
X211446000Y-69723000D02*
X208652000Y-72517000D01*
X206620000Y-72517000D02*
X206493000Y-72644000D01*
X208652000Y-72517000D02*
X206620000Y-72517000D01*
X206493000Y-72644000D02*
X206493000Y-72136000D01*
X182134000Y-24613000D02*
X182134000Y-26162000D01*
X208017000Y-70612000D02*
X209795000Y-68834000D01*
X208017000Y-70612000D02*
X208906000Y-69723000D01*
X206493000Y-72136000D02*
X208017000Y-70612000D01*
X208652000Y-72517000D02*
X212589000Y-68580000D01*
X212589000Y-68580000D02*
X212589000Y-66929000D01*
X209795000Y-68834000D02*
X211065000Y-67564000D01*
X180331000Y-20320000D02*
X179442000Y-21209000D01*
X180331000Y-20320000D02*
X181601000Y-20320000D01*
X182871000Y-23876000D02*
X182134000Y-24613000D01*
X184395000Y-22352000D02*
X184903000Y-22352000D01*
X183887000Y-22860000D02*
X184395000Y-22352000D01*
X183887000Y-22860000D02*
X182871000Y-23876000D01*
X182744000Y-23749000D02*
X182871000Y-23876000D01*
X182744000Y-22860000D02*
X182744000Y-23749000D01*
X56125000Y-86995000D02*
X53585000Y-86995000D01*
X179569000Y-86995000D02*
X182109000Y-86995000D01*
X182109000Y-86995000D02*
X182109000Y-89662000D01*
X182109000Y-89662000D02*
X182236000Y-89789000D01*
X209668000Y-73533000D02*
X208652000Y-72517000D01*
X210303000Y-73533000D02*
X209668000Y-73533000D01*
X209160000Y-73025000D02*
X208652000Y-72517000D01*
X211954000Y-73025000D02*
X209160000Y-73025000D01*
X179569000Y-86995000D02*
X179569000Y-89154000D01*
X179569000Y-89154000D02*
X181982000Y-91567000D01*
X208906000Y-70231000D02*
X206493000Y-72644000D01*
X208906000Y-69723000D02*
X208906000Y-70231000D01*
X210303000Y-73533000D02*
X208398000Y-71628000D01*
X207382000Y-72644000D02*
X206493000Y-72644000D01*
X208398000Y-71628000D02*
X207382000Y-72644000D01*
X181982000Y-91567000D02*
X183633000Y-91567000D01*
X182236000Y-89789000D02*
X183633000Y-89789000D01*
X183067315Y-89789000D02*
X183633000Y-89789000D01*
X182109000Y-88830685D02*
X183067315Y-89789000D01*
X182109000Y-86995000D02*
X182109000Y-88830685D01*
X181982000Y-91440000D02*
X183633000Y-89789000D01*
X181982000Y-91567000D02*
X181982000Y-91440000D01*
X183633000Y-91567000D02*
X183633000Y-89789000D01*
X56150000Y-26050000D02*
X53610000Y-26050000D01*
X53610000Y-26050000D02*
X53610000Y-64364000D01*
X53610000Y-64364000D02*
X53585000Y-64389000D01*
X53585000Y-64389000D02*
X52061000Y-64389000D01*
X42478000Y-72517000D02*
X42605000Y-72644000D01*
X39488000Y-72517000D02*
X42478000Y-72517000D01*
X37837000Y-70358000D02*
X38345000Y-69850000D01*
X37837000Y-70866000D02*
X37837000Y-70358000D01*
X37837000Y-70866000D02*
X39488000Y-72517000D01*
X36948000Y-69977000D02*
X37837000Y-70866000D01*
X39488000Y-69018685D02*
X39488000Y-68453000D01*
X39869000Y-69399685D02*
X39488000Y-69018685D01*
X39869000Y-71146000D02*
X39869000Y-69399685D01*
X42605000Y-72644000D02*
X41367000Y-72644000D01*
X41367000Y-72644000D02*
X39869000Y-71146000D01*
X59427000Y-64262000D02*
X59554000Y-64389000D01*
X56150000Y-26050000D02*
X56150000Y-63779000D01*
X56150000Y-63779000D02*
X56633000Y-64262000D01*
X56633000Y-64262000D02*
X57522000Y-64262000D01*
X57522000Y-64262000D02*
X59427000Y-64262000D01*
X53585000Y-86995000D02*
X51623000Y-86995000D01*
X51623000Y-86995000D02*
X46219000Y-86995000D01*
X40319000Y-74930000D02*
X42605000Y-72644000D01*
X37329000Y-74930000D02*
X40319000Y-74930000D01*
X42224000Y-73025000D02*
X42605000Y-72644000D01*
X37710000Y-73025000D02*
X42224000Y-73025000D01*
X56125000Y-88233000D02*
X54442000Y-89916000D01*
X56125000Y-86995000D02*
X56125000Y-88233000D01*
X54442000Y-89916000D02*
X43806000Y-89916000D01*
X43806000Y-89916000D02*
X42028000Y-88138000D01*
X42028000Y-88138000D02*
X42028000Y-88011000D01*
X41462000Y-71501000D02*
X42605000Y-72644000D01*
X35297000Y-71501000D02*
X41462000Y-71501000D01*
X42351000Y-72898000D02*
X42605000Y-72644000D01*
X36059000Y-72898000D02*
X42351000Y-72898000D01*
X66310000Y-67462000D02*
X66412000Y-67564000D01*
X66310000Y-26050000D02*
X66310000Y-67462000D01*
X65396000Y-28321000D02*
X65396000Y-67564000D01*
X66310000Y-27407000D02*
X65396000Y-28321000D01*
X66310000Y-26050000D02*
X66310000Y-27407000D01*
D17*
X65396000Y-67564000D02*
X66412000Y-67564000D01*
D18*
X66310000Y-26050000D02*
X66310000Y-27203000D01*
X66310000Y-27203000D02*
X67174000Y-28067000D01*
X67174000Y-67437000D02*
X67301000Y-67564000D01*
X67174000Y-28067000D02*
X67174000Y-67437000D01*
D17*
X66412000Y-67564000D02*
X67301000Y-67564000D01*
D18*
X192294000Y-27407000D02*
X191507000Y-28194000D01*
X192294000Y-26162000D02*
X192294000Y-27407000D01*
X191507000Y-67183000D02*
X191888000Y-67564000D01*
X192294000Y-26162000D02*
X192294000Y-65507000D01*
D17*
X191888000Y-67564000D02*
X206493000Y-67564000D01*
D18*
X192269000Y-86995000D02*
X194231000Y-86995000D01*
X194231000Y-86995000D02*
X195317000Y-86995000D01*
X191507000Y-64770000D02*
X191507000Y-67183000D01*
X191507000Y-28194000D02*
X191507000Y-64770000D01*
X186681000Y-67310000D02*
X186681000Y-64770000D01*
X186427000Y-67564000D02*
X186681000Y-67310000D01*
D17*
X186427000Y-67564000D02*
X191888000Y-67564000D01*
D18*
X194231000Y-86303000D02*
X195317000Y-85217000D01*
X194231000Y-86995000D02*
X194231000Y-86303000D01*
X192269000Y-86995000D02*
X192269000Y-86868000D01*
X191507000Y-64770000D02*
X189729000Y-64770000D01*
X189729000Y-64770000D02*
X186681000Y-64770000D01*
X66285000Y-86995000D02*
X69206000Y-86995000D01*
X69206000Y-86995000D02*
X69333000Y-86868000D01*
X75029001Y-67291001D02*
X75302000Y-67564000D01*
X75029001Y-65042999D02*
X75029001Y-67291001D01*
X75429000Y-64643000D02*
X75029001Y-65042999D01*
D17*
X75302000Y-67564000D02*
X186427000Y-67564000D01*
D18*
X71873000Y-65970685D02*
X71873000Y-67564000D01*
X72635000Y-65208685D02*
X71873000Y-65970685D01*
X72635000Y-64643000D02*
X72635000Y-65208685D01*
D17*
X67301000Y-67564000D02*
X71873000Y-67564000D01*
X71873000Y-67564000D02*
X75302000Y-67564000D01*
D18*
X66285000Y-86995000D02*
X66285000Y-86868000D01*
X66285000Y-86868000D02*
X67682000Y-85471000D01*
X63618000Y-65786000D02*
X65396000Y-67564000D01*
X63618000Y-64643000D02*
X63618000Y-65786000D01*
D17*
X42605000Y-67564000D02*
X63237000Y-67564000D01*
X63237000Y-67564000D02*
X65396000Y-67564000D01*
D18*
X67682000Y-85471000D02*
X69732999Y-85471000D01*
X192396000Y-86995000D02*
X192269000Y-86995000D01*
X195317000Y-85217000D02*
X194174000Y-85217000D01*
X194174000Y-85217000D02*
X192396000Y-86995000D01*
D19*
X44050000Y-27460000D02*
X47263000Y-27460000D01*
X47263000Y-27460000D02*
X47362000Y-27559000D01*
X208035000Y-27305000D02*
X208050000Y-27320000D01*
X204334000Y-27305000D02*
X208035000Y-27305000D01*
X72580000Y-26670000D02*
X72762000Y-26670000D01*
X70120000Y-27380000D02*
X71870000Y-27380000D01*
X71870000Y-27380000D02*
X72580000Y-26670000D01*
X44050000Y-24920000D02*
X46699000Y-24920000D01*
X46699000Y-24920000D02*
X46727000Y-24892000D01*
X46727000Y-24892000D02*
X47489000Y-24892000D01*
X207938000Y-24892000D02*
X208050000Y-24780000D01*
X204334000Y-24892000D02*
X207938000Y-24892000D01*
X70120000Y-24840000D02*
X72052000Y-24840000D01*
X72052000Y-24840000D02*
X72762000Y-24130000D01*
D20*
X49605000Y-82931000D02*
X42605000Y-82931000D01*
X50686001Y-81849999D02*
X49605000Y-82931000D01*
X199747000Y-82931000D02*
X198665999Y-81849999D01*
X206747000Y-82931000D02*
X199747000Y-82931000D01*
X42605000Y-77851000D02*
X206747000Y-77851000D01*
X206747000Y-77851000D02*
X204842000Y-77851000D01*
X204842000Y-77851000D02*
X202302000Y-80391000D01*
X204207000Y-80391000D02*
X206747000Y-82931000D01*
X202302000Y-80391000D02*
X204207000Y-80391000D01*
X42605000Y-82931000D02*
X45838000Y-82931000D01*
X45838000Y-82931000D02*
X48378000Y-80391000D01*
X45838000Y-77851000D02*
X42605000Y-77851000D01*
X48378000Y-80391000D02*
X45838000Y-77851000D01*
X61205000Y-82103999D02*
X60951000Y-81849999D01*
X61205000Y-86995000D02*
X61205000Y-82103999D01*
X60951000Y-81849999D02*
X50686001Y-81849999D01*
X187189000Y-82484999D02*
X187824000Y-81849999D01*
X187189000Y-86995000D02*
X187189000Y-82484999D01*
X198665999Y-81849999D02*
X187824000Y-81849999D01*
X187824000Y-81849999D02*
X60951000Y-81849999D01*
D17*
X41367000Y-77851000D02*
X42605000Y-77851000D01*
X41240000Y-77978000D02*
X41367000Y-77851000D01*
X61230000Y-26050000D02*
X61230000Y-24407998D01*
X32376000Y-77978000D02*
X41240000Y-77978000D01*
X58672001Y-21849999D02*
X41259999Y-21849999D01*
X41259999Y-21849999D02*
X30979000Y-32130998D01*
X61230000Y-24407998D02*
X58672001Y-21849999D01*
X30979000Y-32130998D02*
X30979000Y-76581000D01*
X30979000Y-76581000D02*
X32376000Y-77978000D01*
X214621000Y-77851000D02*
X206747000Y-77851000D01*
X187214000Y-26162000D02*
X187214000Y-24519998D01*
X189771999Y-21961999D02*
X211092001Y-21961999D01*
X211092001Y-21961999D02*
X215510000Y-26379998D01*
X187214000Y-24519998D02*
X189771999Y-21961999D01*
X215510000Y-26379998D02*
X215510000Y-76962000D01*
X215510000Y-76962000D02*
X214621000Y-77851000D01*
D18*
X184649000Y-86995000D02*
X187189000Y-86995000D01*
X187189000Y-86995000D02*
X189729000Y-86995000D01*
X61205000Y-86995000D02*
X58665000Y-86995000D01*
X61205000Y-86995000D02*
X63745000Y-86995000D01*
X187214000Y-26162000D02*
X189754000Y-26162000D01*
X187214000Y-26162000D02*
X184674000Y-26162000D01*
X61230000Y-26050000D02*
X58690000Y-26050000D01*
X61230000Y-26050000D02*
X63770000Y-26050000D01*
D19*
X207908000Y-62738000D02*
X208050000Y-62880000D01*
X204334000Y-62738000D02*
X207908000Y-62738000D01*
X70120000Y-62940000D02*
X72306000Y-62940000D01*
X72306000Y-62940000D02*
X72870001Y-62375999D01*
X72870001Y-62375999D02*
X73270000Y-61976000D01*
X47136000Y-63020000D02*
X47357340Y-63241340D01*
X44050000Y-63020000D02*
X47136000Y-63020000D01*
X44050000Y-60480000D02*
X47136000Y-60480000D01*
X47136000Y-60480000D02*
X47362000Y-60706000D01*
X207684000Y-60706000D02*
X208050000Y-60340000D01*
X204334000Y-60706000D02*
X207684000Y-60706000D01*
X72870001Y-60343999D02*
X73270000Y-59944000D01*
X70120000Y-60400000D02*
X72814000Y-60400000D01*
X72814000Y-60400000D02*
X72870001Y-60343999D01*
X44050000Y-57940000D02*
X47080000Y-57940000D01*
X47080000Y-57940000D02*
X47362000Y-57658000D01*
X207908000Y-57658000D02*
X208050000Y-57800000D01*
X204334000Y-57658000D02*
X207908000Y-57658000D01*
X70120000Y-57860000D02*
X72306000Y-57860000D01*
X72870001Y-57295999D02*
X73270000Y-56896000D01*
X72306000Y-57860000D02*
X72870001Y-57295999D01*
X44050000Y-55400000D02*
X47136000Y-55400000D01*
X47136000Y-55400000D02*
X47362000Y-55626000D01*
X207684000Y-55626000D02*
X208050000Y-55260000D01*
X204334000Y-55626000D02*
X207684000Y-55626000D01*
X72813996Y-55320000D02*
X72997001Y-55136995D01*
X72997001Y-55136995D02*
X73397000Y-54736996D01*
X70120000Y-55320000D02*
X72813996Y-55320000D01*
X44050000Y-52860000D02*
X47136000Y-52860000D01*
X47136000Y-52860000D02*
X47362000Y-53086000D01*
X207908000Y-52578000D02*
X208050000Y-52720000D01*
X204334000Y-52578000D02*
X207908000Y-52578000D01*
X72687000Y-52780000D02*
X73251001Y-52215999D01*
X70120000Y-52780000D02*
X72687000Y-52780000D01*
X73251001Y-52215999D02*
X73651000Y-51816000D01*
X44050000Y-50320000D02*
X47136000Y-50320000D01*
X47136000Y-50320000D02*
X47362000Y-50546000D01*
X207908000Y-50038000D02*
X208050000Y-50180000D01*
X204334000Y-50038000D02*
X207908000Y-50038000D01*
X70120000Y-50240000D02*
X72687004Y-50240000D01*
X72687004Y-50240000D02*
X73251005Y-49675999D01*
X73251005Y-49675999D02*
X73651004Y-49276000D01*
X44050000Y-47780000D02*
X47136000Y-47780000D01*
X47136000Y-47780000D02*
X47362000Y-48006000D01*
X207908000Y-47498000D02*
X208050000Y-47640000D01*
X204334000Y-47498000D02*
X207908000Y-47498000D01*
X70120000Y-47700000D02*
X72687004Y-47700000D01*
X72687004Y-47700000D02*
X73251001Y-47136003D01*
X73251001Y-47136003D02*
X73651000Y-46736004D01*
X44050000Y-45240000D02*
X47207000Y-45240000D01*
X47207000Y-45240000D02*
X47235000Y-45212000D01*
X208035000Y-45085000D02*
X208050000Y-45100000D01*
X204461000Y-45085000D02*
X208035000Y-45085000D01*
X72940998Y-45160000D02*
X73250999Y-44849999D01*
X70120000Y-45160000D02*
X72940998Y-45160000D01*
X73250999Y-44849999D02*
X73650998Y-44450000D01*
X44050000Y-42700000D02*
X47207000Y-42700000D01*
X47207000Y-42700000D02*
X47235000Y-42672000D01*
X207938000Y-42672000D02*
X208050000Y-42560000D01*
X204461000Y-42672000D02*
X207938000Y-42672000D01*
X73251001Y-42309999D02*
X73651000Y-41910000D01*
X72941000Y-42620000D02*
X73251001Y-42309999D01*
X70120000Y-42620000D02*
X72941000Y-42620000D01*
X44050000Y-40160000D02*
X47080000Y-40160000D01*
X47080000Y-40160000D02*
X47235000Y-40005000D01*
X208035000Y-40005000D02*
X208050000Y-40020000D01*
X204461000Y-40005000D02*
X208035000Y-40005000D01*
X70120000Y-40080000D02*
X72687000Y-40080000D01*
X73124001Y-39642999D02*
X73524000Y-39243000D01*
X72687000Y-40080000D02*
X73124001Y-39642999D01*
X44050000Y-37620000D02*
X47207000Y-37620000D01*
X47207000Y-37620000D02*
X47235000Y-37592000D01*
X207938000Y-37592000D02*
X208050000Y-37480000D01*
X204334000Y-37592000D02*
X207938000Y-37592000D01*
X72997001Y-37230001D02*
X73397000Y-36830002D01*
X72687002Y-37540000D02*
X72997001Y-37230001D01*
X70120000Y-37540000D02*
X72687002Y-37540000D01*
X44050000Y-35080000D02*
X47334000Y-35080000D01*
X47334000Y-35080000D02*
X47362000Y-35052000D01*
X207938000Y-35052000D02*
X208050000Y-34940000D01*
X204334000Y-35052000D02*
X207938000Y-35052000D01*
X70120000Y-35000000D02*
X72433008Y-35000000D01*
X72433008Y-35000000D02*
X72870009Y-34562999D01*
X72870009Y-34562999D02*
X73270008Y-34163000D01*
X44050000Y-32540000D02*
X47207000Y-32540000D01*
X47207000Y-32540000D02*
X47362000Y-32385000D01*
X208035000Y-32385000D02*
X208050000Y-32400000D01*
X204334000Y-32385000D02*
X208035000Y-32385000D01*
X72650010Y-32460000D02*
X72870001Y-32240009D01*
X72870001Y-32240009D02*
X73270000Y-31840010D01*
X70120000Y-32460000D02*
X72650010Y-32460000D01*
X44050000Y-30000000D02*
X47334000Y-30000000D01*
X47334000Y-30000000D02*
X47362000Y-29972000D01*
X207938000Y-29972000D02*
X208050000Y-29860000D01*
X204334000Y-29972000D02*
X207938000Y-29972000D01*
X70120000Y-29920000D02*
X76116000Y-29920000D01*
X76116000Y-29920000D02*
X76826000Y-29210000D01*
X208050000Y-26050000D02*
X204349000Y-26050000D01*
X204349000Y-26050000D02*
X204334000Y-26035000D01*
X44149000Y-26289000D02*
X44050000Y-26190000D01*
X47362000Y-26289000D02*
X44149000Y-26289000D01*
X197711001Y-25672999D02*
X198111000Y-25273000D01*
X197349000Y-26035000D02*
X197711001Y-25672999D01*
X195317000Y-26035000D02*
X197349000Y-26035000D01*
X44050000Y-28730000D02*
X47263000Y-28730000D01*
X47263000Y-28730000D02*
X47362000Y-28829000D01*
X208035000Y-28575000D02*
X208050000Y-28590000D01*
X204334000Y-28575000D02*
X208035000Y-28575000D01*
X195317000Y-28575000D02*
X197476001Y-28575000D01*
X197838002Y-28212999D02*
X198238001Y-27813000D01*
X197476001Y-28575000D02*
X197838002Y-28212999D01*
X208050000Y-31130000D02*
X204349000Y-31130000D01*
X204349000Y-31130000D02*
X204334000Y-31115000D01*
X44205000Y-31115000D02*
X44050000Y-31270000D01*
X47235000Y-31115000D02*
X44205000Y-31115000D01*
X195698000Y-31496000D02*
X195317000Y-31115000D01*
X198238000Y-31496000D02*
X195698000Y-31496000D01*
X208050000Y-33670000D02*
X204349000Y-33670000D01*
X204349000Y-33670000D02*
X204334000Y-33655000D01*
X44205000Y-33655000D02*
X44050000Y-33810000D01*
X47362000Y-33655000D02*
X44205000Y-33655000D01*
X195698000Y-34036000D02*
X195317000Y-33655000D01*
X198111000Y-34036000D02*
X195698000Y-34036000D01*
X208050000Y-36210000D02*
X204349000Y-36210000D01*
X204349000Y-36210000D02*
X204334000Y-36195000D01*
X44205000Y-36195000D02*
X44050000Y-36350000D01*
X47235000Y-36195000D02*
X44205000Y-36195000D01*
X195698000Y-36576000D02*
X195317000Y-36195000D01*
X198111000Y-36576000D02*
X195698000Y-36576000D01*
X208050000Y-38750000D02*
X204349000Y-38750000D01*
X204349000Y-38750000D02*
X204334000Y-38735000D01*
X44078000Y-38862000D02*
X44050000Y-38890000D01*
X47108000Y-38862000D02*
X44078000Y-38862000D01*
X195698000Y-39116000D02*
X195317000Y-38735000D01*
X198111000Y-39116000D02*
X195698000Y-39116000D01*
X208050000Y-41290000D02*
X204476000Y-41290000D01*
X204476000Y-41290000D02*
X204461000Y-41275000D01*
X44205000Y-41275000D02*
X44050000Y-41430000D01*
X47108000Y-41275000D02*
X44205000Y-41275000D01*
X197603000Y-41275000D02*
X195317000Y-41275000D01*
X198111000Y-41783000D02*
X197603000Y-41275000D01*
X208050000Y-43830000D02*
X204349000Y-43830000D01*
X204349000Y-43830000D02*
X204334000Y-43815000D01*
X44078000Y-43942000D02*
X44050000Y-43970000D01*
X47235000Y-43942000D02*
X44078000Y-43942000D01*
X197476000Y-43815000D02*
X195317000Y-43815000D01*
X197984000Y-44323000D02*
X197476000Y-43815000D01*
X208050000Y-46370000D02*
X204446000Y-46370000D01*
X204446000Y-46370000D02*
X204334000Y-46482000D01*
X44078000Y-46482000D02*
X44050000Y-46510000D01*
X47362000Y-46482000D02*
X44078000Y-46482000D01*
X195698000Y-46736000D02*
X195317000Y-46355000D01*
X198238000Y-46736000D02*
X195698000Y-46736000D01*
X208050000Y-48910000D02*
X204446000Y-48910000D01*
X204446000Y-48910000D02*
X204334000Y-49022000D01*
X44078000Y-49022000D02*
X44050000Y-49050000D01*
X47362000Y-49022000D02*
X44078000Y-49022000D01*
X195571000Y-49149000D02*
X195317000Y-48895000D01*
X198365000Y-49149000D02*
X195571000Y-49149000D01*
X208050000Y-51450000D02*
X204446000Y-51450000D01*
X204446000Y-51450000D02*
X204334000Y-51562000D01*
X44078000Y-51562000D02*
X44050000Y-51590000D01*
X47362000Y-51562000D02*
X44078000Y-51562000D01*
X195317000Y-51435000D02*
X197603000Y-51435000D01*
X197603000Y-51435000D02*
X197838001Y-51670001D01*
X197838001Y-51670001D02*
X198238000Y-52070000D01*
X208050000Y-53990000D02*
X204446000Y-53990000D01*
X204446000Y-53990000D02*
X204334000Y-54102000D01*
X44078000Y-54102000D02*
X44050000Y-54130000D01*
X47362000Y-54102000D02*
X44078000Y-54102000D01*
X197857000Y-53975000D02*
X195317000Y-53975000D01*
X198492000Y-54610000D02*
X197857000Y-53975000D01*
X208050000Y-56530000D02*
X204446000Y-56530000D01*
X204446000Y-56530000D02*
X204334000Y-56642000D01*
X44078000Y-56642000D02*
X44050000Y-56670000D01*
X47362000Y-56642000D02*
X44078000Y-56642000D01*
X195698000Y-56896000D02*
X195317000Y-56515000D01*
X198492000Y-56896000D02*
X195698000Y-56896000D01*
X208050000Y-59070000D02*
X204446000Y-59070000D01*
X204446000Y-59070000D02*
X204334000Y-59182000D01*
X44078000Y-59182000D02*
X44050000Y-59210000D01*
X47362000Y-59182000D02*
X44078000Y-59182000D01*
X197603000Y-59055000D02*
X195317000Y-59055000D01*
X198492000Y-59944000D02*
X197603000Y-59055000D01*
X208050000Y-61610000D02*
X204446000Y-61610000D01*
X204446000Y-61610000D02*
X204334000Y-61722000D01*
X44078000Y-61722000D02*
X44050000Y-61750000D01*
X47362000Y-61722000D02*
X44078000Y-61722000D01*
X195317000Y-61595000D02*
X197889027Y-61595000D01*
X197889027Y-61595000D02*
X197965007Y-61670980D01*
X197965007Y-61670980D02*
X198365006Y-62070979D01*
X208050000Y-64150000D02*
X204446000Y-64150000D01*
X204446000Y-64150000D02*
X204334000Y-64262000D01*
X44078000Y-64262000D02*
X44050000Y-64290000D01*
X47362000Y-64262000D02*
X44078000Y-64262000D01*
X198298000Y-64135000D02*
X195317000Y-64135000D01*
X199127000Y-64964000D02*
X198298000Y-64135000D01*
D21*
G36*
X48890354Y-84423000D02*
X41111039Y-84423000D01*
X37288063Y-79644281D01*
X47452482Y-78192221D01*
X48890354Y-84423000D01*
X48890354Y-84423000D01*
G37*
X48890354Y-84423000D02*
X41111039Y-84423000D01*
X37288063Y-79644281D01*
X47452482Y-78192221D01*
X48890354Y-84423000D01*
M02*
