M48
;DRILL file {KiCad 6.0.0-rc1-unknown-1a22918~65~ubuntu16.04.1} date Wed Aug  7 17:00:23 2019
;FORMAT={-:-/ absolute / inch / decimal}
FMAT,2
INCH,TZ
T1C0.0157
T2C0.1260
%
G90
G05
M72
T1
X1.3896Y-2.815
X1.4196Y-2.87
X1.4546Y-2.755
X1.4696Y-2.95
X1.4846Y-2.875
X1.5096Y-2.75
X1.5546Y-2.695
X1.6546Y-3.465
X1.8196Y-3.425
X1.8546Y-1.53
X1.8546Y-1.625
X1.8596Y-1.225
X1.8596Y-1.425
X1.8596Y-1.48
X1.8596Y-1.575
X1.8596Y-1.68
X1.8596Y-1.73
X1.8596Y-1.78
X1.8645Y-2.4898
X1.8646Y-1.035
X1.8646Y-1.085
X1.8646Y-1.135
X1.8646Y-1.18
X1.8646Y-1.275
X1.8646Y-1.325
X1.8646Y-1.38
X1.8646Y-1.83
X1.8646Y-1.89
X1.8646Y-1.93
X1.8646Y-1.99
X1.8646Y-2.03
X1.8646Y-2.09
X1.8646Y-2.13
X1.8646Y-2.19
X1.8646Y-2.23
X1.8646Y-2.27
X1.8646Y-2.33
X1.8646Y-2.39
X1.8646Y-2.43
X1.8646Y-2.53
X1.8696Y-0.98
X2.0496Y-2.535
X2.1106Y-2.534
X2.2646Y-2.53
X2.3446Y-2.535
X2.4896Y-2.66
X2.5046Y-2.545
X2.6646Y-3.365
X2.7296Y-3.42
X2.7454Y-3.365
X2.8596Y-2.545
X2.8646Y-0.95
X2.8646Y-1.05
X2.8846Y-1.2535
X2.8846Y-2.24
X2.8846Y-2.36
X2.8846Y-2.44
X2.8846Y-1.345
X2.8896Y-1.45
X2.8896Y-2.155
X2.8946Y-1.545
X2.8996Y-1.75
X2.8996Y-1.65
X2.8996Y-1.84
X2.8996Y-2.04
X2.8996Y-1.94
X2.9696Y-2.545
X3.0246Y-1.15
X7.0996Y-0.8
X7.1496Y-0.8
X7.1646Y-3.605
X7.1746Y-3.535
X7.1946Y-0.9
X7.2296Y-3.535
X7.2296Y-3.605
X7.2396Y-0.9
X7.2796Y-0.88
X7.3396Y-2.66
X7.3496Y-2.55
X7.4696Y-2.55
X7.6896Y-3.355
X7.6896Y-3.425
X7.7946Y-1.745
X7.7996Y-0.995
X7.7996Y-1.34
X7.7996Y-1.44
X7.7996Y-1.54
X7.7996Y-1.645
X7.8046Y-1.24
X7.8046Y-1.84
X7.8046Y-2.05
X7.8046Y-1.095
X7.8096Y-1.935
X7.8096Y-2.4437
X7.8146Y-2.15
X7.8146Y-2.24
X7.8146Y-2.36
X7.8396Y-2.5576
X8.0446Y-0.98
X8.0446Y-1.025
X8.0446Y-1.075
X8.0446Y-1.125
X8.0446Y-1.18
X8.0446Y-1.225
X8.0446Y-1.275
X8.0446Y-1.325
X8.0446Y-1.38
X8.0446Y-1.425
X8.0446Y-1.48
X8.0446Y-1.525
X8.0446Y-1.725
X8.0446Y-1.83
X8.0446Y-1.87
X8.0446Y-1.93
X8.0446Y-1.97
X8.0446Y-2.03
X8.0446Y-2.07
X8.0446Y-2.13
X8.0446Y-2.19
X8.0446Y-2.23
X8.0446Y-2.27
X8.0446Y-2.33
X8.0446Y-2.39
X8.0446Y-2.43
X8.0446Y-2.47
X8.0446Y-2.53
X8.0496Y-1.575
X8.0496Y-1.625
X8.0496Y-1.68
X8.0496Y-1.775
X8.2246Y-2.745
X8.2596Y-2.71
X8.2796Y-2.895
X8.3096Y-2.66
X8.3246Y-2.745
X8.3446Y-2.875
X8.3696Y-2.635
X8.3696Y-2.7
T2
X5.2579Y-1.065
X5.2579Y-3.4272
T0
M30
