%TF.GenerationSoftware,KiCad,Pcbnew,6.0.0-rc1-unknown-1a22918~65~ubuntu16.04.1*%
%TF.CreationDate,2019-08-07T17:00:26+03:00*%
%TF.ProjectId,BackbonePCB,4261636B626F6E655043422E6B696361,rev?*%
%TF.SameCoordinates,Original*%
%TF.FileFunction,Soldermask,Top*%
%TF.FilePolarity,Negative*%
%FSLAX46Y46*%
G04 Gerber Fmt 4.6, Leading zero omitted, Abs format (unit mm)*
G04 Created by KiCad (PCBNEW 6.0.0-rc1-unknown-1a22918~65~ubuntu16.04.1) date Wed Aug  7 17:00:26 2019*
%MOMM*%
%LPD*%
G01*
G04 APERTURE LIST*
%ADD10C,0.050000*%
%ADD11C,0.150000*%
G04 APERTURE END LIST*
D10*
X18050000Y-19050000D02*
X18050000Y-93050000D01*
X49050000Y-93050000D02*
X18050000Y-93050000D01*
X218050000Y-93050000D02*
X49050000Y-93050000D01*
X218050000Y-19050000D02*
X218050000Y-93050000D01*
X18050000Y-19050000D02*
X218050000Y-19050000D01*
D11*
G36*
X134294096Y-84597033D02*
X134294098Y-84597034D01*
X134294099Y-84597034D01*
X134758352Y-84789333D01*
X134989827Y-84944000D01*
X135176171Y-85068511D01*
X135531489Y-85423829D01*
X135531491Y-85423832D01*
X135810667Y-85841648D01*
X136002966Y-86305901D01*
X136101000Y-86798748D01*
X136101000Y-87301252D01*
X136002966Y-87794099D01*
X135810667Y-88258352D01*
X135532750Y-88674284D01*
X135531489Y-88676171D01*
X135176171Y-89031489D01*
X135176168Y-89031491D01*
X134758352Y-89310667D01*
X134294099Y-89502966D01*
X134294098Y-89502966D01*
X134294096Y-89502967D01*
X133801253Y-89601000D01*
X133298747Y-89601000D01*
X132805904Y-89502967D01*
X132805902Y-89502966D01*
X132805901Y-89502966D01*
X132341648Y-89310667D01*
X131923832Y-89031491D01*
X131923829Y-89031489D01*
X131568511Y-88676171D01*
X131567250Y-88674284D01*
X131289333Y-88258352D01*
X131097034Y-87794099D01*
X130999000Y-87301252D01*
X130999000Y-86798748D01*
X131097034Y-86305901D01*
X131289333Y-85841648D01*
X131568509Y-85423832D01*
X131568511Y-85423829D01*
X131923829Y-85068511D01*
X132110173Y-84944000D01*
X132341648Y-84789333D01*
X132805901Y-84597034D01*
X132805902Y-84597034D01*
X132805904Y-84597033D01*
X133298747Y-84499000D01*
X133801253Y-84499000D01*
X134294096Y-84597033D01*
X134294096Y-84597033D01*
G37*
G36*
X188002000Y-89046000D02*
X186376000Y-89046000D01*
X186376000Y-84944000D01*
X188002000Y-84944000D01*
X188002000Y-89046000D01*
X188002000Y-89046000D01*
G37*
G36*
X54398000Y-89046000D02*
X52772000Y-89046000D01*
X52772000Y-84944000D01*
X54398000Y-84944000D01*
X54398000Y-89046000D01*
X54398000Y-89046000D01*
G37*
G36*
X56938000Y-89046000D02*
X55312000Y-89046000D01*
X55312000Y-84944000D01*
X56938000Y-84944000D01*
X56938000Y-89046000D01*
X56938000Y-89046000D01*
G37*
G36*
X59478000Y-89046000D02*
X57852000Y-89046000D01*
X57852000Y-84944000D01*
X59478000Y-84944000D01*
X59478000Y-89046000D01*
X59478000Y-89046000D01*
G37*
G36*
X62018000Y-89046000D02*
X60392000Y-89046000D01*
X60392000Y-84944000D01*
X62018000Y-84944000D01*
X62018000Y-89046000D01*
X62018000Y-89046000D01*
G37*
G36*
X64558000Y-89046000D02*
X62932000Y-89046000D01*
X62932000Y-84944000D01*
X64558000Y-84944000D01*
X64558000Y-89046000D01*
X64558000Y-89046000D01*
G37*
G36*
X190542000Y-89046000D02*
X188916000Y-89046000D01*
X188916000Y-84944000D01*
X190542000Y-84944000D01*
X190542000Y-89046000D01*
X190542000Y-89046000D01*
G37*
G36*
X67098000Y-89046000D02*
X65472000Y-89046000D01*
X65472000Y-84944000D01*
X67098000Y-84944000D01*
X67098000Y-89046000D01*
X67098000Y-89046000D01*
G37*
G36*
X193082000Y-89046000D02*
X191456000Y-89046000D01*
X191456000Y-84944000D01*
X193082000Y-84944000D01*
X193082000Y-89046000D01*
X193082000Y-89046000D01*
G37*
G36*
X180382000Y-89046000D02*
X178756000Y-89046000D01*
X178756000Y-84944000D01*
X180382000Y-84944000D01*
X180382000Y-89046000D01*
X180382000Y-89046000D01*
G37*
G36*
X185462000Y-89046000D02*
X183836000Y-89046000D01*
X183836000Y-84944000D01*
X185462000Y-84944000D01*
X185462000Y-89046000D01*
X185462000Y-89046000D01*
G37*
G36*
X182922000Y-89046000D02*
X181296000Y-89046000D01*
X181296000Y-84944000D01*
X182922000Y-84944000D01*
X182922000Y-89046000D01*
X182922000Y-89046000D01*
G37*
G36*
X44656000Y-83744000D02*
X40554000Y-83744000D01*
X40554000Y-82118000D01*
X44656000Y-82118000D01*
X44656000Y-83744000D01*
X44656000Y-83744000D01*
G37*
G36*
X208798000Y-83744000D02*
X204696000Y-83744000D01*
X204696000Y-82118000D01*
X208798000Y-82118000D01*
X208798000Y-83744000D01*
X208798000Y-83744000D01*
G37*
G36*
X44656000Y-78664000D02*
X40554000Y-78664000D01*
X40554000Y-77038000D01*
X44656000Y-77038000D01*
X44656000Y-78664000D01*
X44656000Y-78664000D01*
G37*
G36*
X208798000Y-78664000D02*
X204696000Y-78664000D01*
X204696000Y-77038000D01*
X208798000Y-77038000D01*
X208798000Y-78664000D01*
X208798000Y-78664000D01*
G37*
G36*
X44656000Y-73457000D02*
X40554000Y-73457000D01*
X40554000Y-71831000D01*
X44656000Y-71831000D01*
X44656000Y-73457000D01*
X44656000Y-73457000D01*
G37*
G36*
X208544000Y-73457000D02*
X204442000Y-73457000D01*
X204442000Y-71831000D01*
X208544000Y-71831000D01*
X208544000Y-73457000D01*
X208544000Y-73457000D01*
G37*
G36*
X44656000Y-68377000D02*
X40554000Y-68377000D01*
X40554000Y-66751000D01*
X44656000Y-66751000D01*
X44656000Y-68377000D01*
X44656000Y-68377000D01*
G37*
G36*
X208544000Y-68377000D02*
X204442000Y-68377000D01*
X204442000Y-66751000D01*
X208544000Y-66751000D01*
X208544000Y-68377000D01*
X208544000Y-68377000D01*
G37*
G36*
X196868000Y-65186000D02*
X193766000Y-65186000D01*
X193766000Y-63084000D01*
X196868000Y-63084000D01*
X196868000Y-65186000D01*
X196868000Y-65186000D01*
G37*
G36*
X45601000Y-64741000D02*
X42499000Y-64741000D01*
X42499000Y-63839000D01*
X45601000Y-63839000D01*
X45601000Y-64741000D01*
X45601000Y-64741000D01*
G37*
G36*
X209601000Y-64601000D02*
X206499000Y-64601000D01*
X206499000Y-63699000D01*
X209601000Y-63699000D01*
X209601000Y-64601000D01*
X209601000Y-64601000D01*
G37*
G36*
X71671000Y-63991000D02*
X68569000Y-63991000D01*
X68569000Y-61889000D01*
X71671000Y-61889000D01*
X71671000Y-63991000D01*
X71671000Y-63991000D01*
G37*
G36*
X45601000Y-63471000D02*
X42499000Y-63471000D01*
X42499000Y-62569000D01*
X45601000Y-62569000D01*
X45601000Y-63471000D01*
X45601000Y-63471000D01*
G37*
G36*
X209601000Y-63331000D02*
X206499000Y-63331000D01*
X206499000Y-62429000D01*
X209601000Y-62429000D01*
X209601000Y-63331000D01*
X209601000Y-63331000D01*
G37*
G36*
X196868000Y-62646000D02*
X193766000Y-62646000D01*
X193766000Y-60544000D01*
X196868000Y-60544000D01*
X196868000Y-62646000D01*
X196868000Y-62646000D01*
G37*
G36*
X45601000Y-62201000D02*
X42499000Y-62201000D01*
X42499000Y-61299000D01*
X45601000Y-61299000D01*
X45601000Y-62201000D01*
X45601000Y-62201000D01*
G37*
G36*
X209601000Y-62061000D02*
X206499000Y-62061000D01*
X206499000Y-61159000D01*
X209601000Y-61159000D01*
X209601000Y-62061000D01*
X209601000Y-62061000D01*
G37*
G36*
X71671000Y-61451000D02*
X68569000Y-61451000D01*
X68569000Y-59349000D01*
X71671000Y-59349000D01*
X71671000Y-61451000D01*
X71671000Y-61451000D01*
G37*
G36*
X45601000Y-60931000D02*
X42499000Y-60931000D01*
X42499000Y-60029000D01*
X45601000Y-60029000D01*
X45601000Y-60931000D01*
X45601000Y-60931000D01*
G37*
G36*
X209601000Y-60791000D02*
X206499000Y-60791000D01*
X206499000Y-59889000D01*
X209601000Y-59889000D01*
X209601000Y-60791000D01*
X209601000Y-60791000D01*
G37*
G36*
X196868000Y-60106000D02*
X193766000Y-60106000D01*
X193766000Y-58004000D01*
X196868000Y-58004000D01*
X196868000Y-60106000D01*
X196868000Y-60106000D01*
G37*
G36*
X45601000Y-59661000D02*
X42499000Y-59661000D01*
X42499000Y-58759000D01*
X45601000Y-58759000D01*
X45601000Y-59661000D01*
X45601000Y-59661000D01*
G37*
G36*
X209601000Y-59521000D02*
X206499000Y-59521000D01*
X206499000Y-58619000D01*
X209601000Y-58619000D01*
X209601000Y-59521000D01*
X209601000Y-59521000D01*
G37*
G36*
X71671000Y-58911000D02*
X68569000Y-58911000D01*
X68569000Y-56809000D01*
X71671000Y-56809000D01*
X71671000Y-58911000D01*
X71671000Y-58911000D01*
G37*
G36*
X45601000Y-58391000D02*
X42499000Y-58391000D01*
X42499000Y-57489000D01*
X45601000Y-57489000D01*
X45601000Y-58391000D01*
X45601000Y-58391000D01*
G37*
G36*
X209601000Y-58251000D02*
X206499000Y-58251000D01*
X206499000Y-57349000D01*
X209601000Y-57349000D01*
X209601000Y-58251000D01*
X209601000Y-58251000D01*
G37*
G36*
X196868000Y-57566000D02*
X193766000Y-57566000D01*
X193766000Y-55464000D01*
X196868000Y-55464000D01*
X196868000Y-57566000D01*
X196868000Y-57566000D01*
G37*
G36*
X45601000Y-57121000D02*
X42499000Y-57121000D01*
X42499000Y-56219000D01*
X45601000Y-56219000D01*
X45601000Y-57121000D01*
X45601000Y-57121000D01*
G37*
G36*
X209601000Y-56981000D02*
X206499000Y-56981000D01*
X206499000Y-56079000D01*
X209601000Y-56079000D01*
X209601000Y-56981000D01*
X209601000Y-56981000D01*
G37*
G36*
X71671000Y-56371000D02*
X68569000Y-56371000D01*
X68569000Y-54269000D01*
X71671000Y-54269000D01*
X71671000Y-56371000D01*
X71671000Y-56371000D01*
G37*
G36*
X45601000Y-55851000D02*
X42499000Y-55851000D01*
X42499000Y-54949000D01*
X45601000Y-54949000D01*
X45601000Y-55851000D01*
X45601000Y-55851000D01*
G37*
G36*
X209601000Y-55711000D02*
X206499000Y-55711000D01*
X206499000Y-54809000D01*
X209601000Y-54809000D01*
X209601000Y-55711000D01*
X209601000Y-55711000D01*
G37*
G36*
X196868000Y-55026000D02*
X193766000Y-55026000D01*
X193766000Y-52924000D01*
X196868000Y-52924000D01*
X196868000Y-55026000D01*
X196868000Y-55026000D01*
G37*
G36*
X45601000Y-54581000D02*
X42499000Y-54581000D01*
X42499000Y-53679000D01*
X45601000Y-53679000D01*
X45601000Y-54581000D01*
X45601000Y-54581000D01*
G37*
G36*
X209601000Y-54441000D02*
X206499000Y-54441000D01*
X206499000Y-53539000D01*
X209601000Y-53539000D01*
X209601000Y-54441000D01*
X209601000Y-54441000D01*
G37*
G36*
X71671000Y-53831000D02*
X68569000Y-53831000D01*
X68569000Y-51729000D01*
X71671000Y-51729000D01*
X71671000Y-53831000D01*
X71671000Y-53831000D01*
G37*
G36*
X45601000Y-53311000D02*
X42499000Y-53311000D01*
X42499000Y-52409000D01*
X45601000Y-52409000D01*
X45601000Y-53311000D01*
X45601000Y-53311000D01*
G37*
G36*
X209601000Y-53171000D02*
X206499000Y-53171000D01*
X206499000Y-52269000D01*
X209601000Y-52269000D01*
X209601000Y-53171000D01*
X209601000Y-53171000D01*
G37*
G36*
X196868000Y-52486000D02*
X193766000Y-52486000D01*
X193766000Y-50384000D01*
X196868000Y-50384000D01*
X196868000Y-52486000D01*
X196868000Y-52486000D01*
G37*
G36*
X45601000Y-52041000D02*
X42499000Y-52041000D01*
X42499000Y-51139000D01*
X45601000Y-51139000D01*
X45601000Y-52041000D01*
X45601000Y-52041000D01*
G37*
G36*
X209601000Y-51901000D02*
X206499000Y-51901000D01*
X206499000Y-50999000D01*
X209601000Y-50999000D01*
X209601000Y-51901000D01*
X209601000Y-51901000D01*
G37*
G36*
X71671000Y-51291000D02*
X68569000Y-51291000D01*
X68569000Y-49189000D01*
X71671000Y-49189000D01*
X71671000Y-51291000D01*
X71671000Y-51291000D01*
G37*
G36*
X45601000Y-50771000D02*
X42499000Y-50771000D01*
X42499000Y-49869000D01*
X45601000Y-49869000D01*
X45601000Y-50771000D01*
X45601000Y-50771000D01*
G37*
G36*
X209601000Y-50631000D02*
X206499000Y-50631000D01*
X206499000Y-49729000D01*
X209601000Y-49729000D01*
X209601000Y-50631000D01*
X209601000Y-50631000D01*
G37*
G36*
X196868000Y-49946000D02*
X193766000Y-49946000D01*
X193766000Y-47844000D01*
X196868000Y-47844000D01*
X196868000Y-49946000D01*
X196868000Y-49946000D01*
G37*
G36*
X45601000Y-49501000D02*
X42499000Y-49501000D01*
X42499000Y-48599000D01*
X45601000Y-48599000D01*
X45601000Y-49501000D01*
X45601000Y-49501000D01*
G37*
G36*
X209601000Y-49361000D02*
X206499000Y-49361000D01*
X206499000Y-48459000D01*
X209601000Y-48459000D01*
X209601000Y-49361000D01*
X209601000Y-49361000D01*
G37*
G36*
X71671000Y-48751000D02*
X68569000Y-48751000D01*
X68569000Y-46649000D01*
X71671000Y-46649000D01*
X71671000Y-48751000D01*
X71671000Y-48751000D01*
G37*
G36*
X45601000Y-48231000D02*
X42499000Y-48231000D01*
X42499000Y-47329000D01*
X45601000Y-47329000D01*
X45601000Y-48231000D01*
X45601000Y-48231000D01*
G37*
G36*
X209601000Y-48091000D02*
X206499000Y-48091000D01*
X206499000Y-47189000D01*
X209601000Y-47189000D01*
X209601000Y-48091000D01*
X209601000Y-48091000D01*
G37*
G36*
X196868000Y-47406000D02*
X193766000Y-47406000D01*
X193766000Y-45304000D01*
X196868000Y-45304000D01*
X196868000Y-47406000D01*
X196868000Y-47406000D01*
G37*
G36*
X45601000Y-46961000D02*
X42499000Y-46961000D01*
X42499000Y-46059000D01*
X45601000Y-46059000D01*
X45601000Y-46961000D01*
X45601000Y-46961000D01*
G37*
G36*
X209601000Y-46821000D02*
X206499000Y-46821000D01*
X206499000Y-45919000D01*
X209601000Y-45919000D01*
X209601000Y-46821000D01*
X209601000Y-46821000D01*
G37*
G36*
X71671000Y-46211000D02*
X68569000Y-46211000D01*
X68569000Y-44109000D01*
X71671000Y-44109000D01*
X71671000Y-46211000D01*
X71671000Y-46211000D01*
G37*
G36*
X45601000Y-45691000D02*
X42499000Y-45691000D01*
X42499000Y-44789000D01*
X45601000Y-44789000D01*
X45601000Y-45691000D01*
X45601000Y-45691000D01*
G37*
G36*
X209601000Y-45551000D02*
X206499000Y-45551000D01*
X206499000Y-44649000D01*
X209601000Y-44649000D01*
X209601000Y-45551000D01*
X209601000Y-45551000D01*
G37*
G36*
X196868000Y-44866000D02*
X193766000Y-44866000D01*
X193766000Y-42764000D01*
X196868000Y-42764000D01*
X196868000Y-44866000D01*
X196868000Y-44866000D01*
G37*
G36*
X45601000Y-44421000D02*
X42499000Y-44421000D01*
X42499000Y-43519000D01*
X45601000Y-43519000D01*
X45601000Y-44421000D01*
X45601000Y-44421000D01*
G37*
G36*
X209601000Y-44281000D02*
X206499000Y-44281000D01*
X206499000Y-43379000D01*
X209601000Y-43379000D01*
X209601000Y-44281000D01*
X209601000Y-44281000D01*
G37*
G36*
X71671000Y-43671000D02*
X68569000Y-43671000D01*
X68569000Y-41569000D01*
X71671000Y-41569000D01*
X71671000Y-43671000D01*
X71671000Y-43671000D01*
G37*
G36*
X45601000Y-43151000D02*
X42499000Y-43151000D01*
X42499000Y-42249000D01*
X45601000Y-42249000D01*
X45601000Y-43151000D01*
X45601000Y-43151000D01*
G37*
G36*
X209601000Y-43011000D02*
X206499000Y-43011000D01*
X206499000Y-42109000D01*
X209601000Y-42109000D01*
X209601000Y-43011000D01*
X209601000Y-43011000D01*
G37*
G36*
X196868000Y-42326000D02*
X193766000Y-42326000D01*
X193766000Y-40224000D01*
X196868000Y-40224000D01*
X196868000Y-42326000D01*
X196868000Y-42326000D01*
G37*
G36*
X45601000Y-41881000D02*
X42499000Y-41881000D01*
X42499000Y-40979000D01*
X45601000Y-40979000D01*
X45601000Y-41881000D01*
X45601000Y-41881000D01*
G37*
G36*
X209601000Y-41741000D02*
X206499000Y-41741000D01*
X206499000Y-40839000D01*
X209601000Y-40839000D01*
X209601000Y-41741000D01*
X209601000Y-41741000D01*
G37*
G36*
X71671000Y-41131000D02*
X68569000Y-41131000D01*
X68569000Y-39029000D01*
X71671000Y-39029000D01*
X71671000Y-41131000D01*
X71671000Y-41131000D01*
G37*
G36*
X45601000Y-40611000D02*
X42499000Y-40611000D01*
X42499000Y-39709000D01*
X45601000Y-39709000D01*
X45601000Y-40611000D01*
X45601000Y-40611000D01*
G37*
G36*
X209601000Y-40471000D02*
X206499000Y-40471000D01*
X206499000Y-39569000D01*
X209601000Y-39569000D01*
X209601000Y-40471000D01*
X209601000Y-40471000D01*
G37*
G36*
X196868000Y-39786000D02*
X193766000Y-39786000D01*
X193766000Y-37684000D01*
X196868000Y-37684000D01*
X196868000Y-39786000D01*
X196868000Y-39786000D01*
G37*
G36*
X45601000Y-39341000D02*
X42499000Y-39341000D01*
X42499000Y-38439000D01*
X45601000Y-38439000D01*
X45601000Y-39341000D01*
X45601000Y-39341000D01*
G37*
G36*
X209601000Y-39201000D02*
X206499000Y-39201000D01*
X206499000Y-38299000D01*
X209601000Y-38299000D01*
X209601000Y-39201000D01*
X209601000Y-39201000D01*
G37*
G36*
X71671000Y-38591000D02*
X68569000Y-38591000D01*
X68569000Y-36489000D01*
X71671000Y-36489000D01*
X71671000Y-38591000D01*
X71671000Y-38591000D01*
G37*
G36*
X45601000Y-38071000D02*
X42499000Y-38071000D01*
X42499000Y-37169000D01*
X45601000Y-37169000D01*
X45601000Y-38071000D01*
X45601000Y-38071000D01*
G37*
G36*
X209601000Y-37931000D02*
X206499000Y-37931000D01*
X206499000Y-37029000D01*
X209601000Y-37029000D01*
X209601000Y-37931000D01*
X209601000Y-37931000D01*
G37*
G36*
X196868000Y-37246000D02*
X193766000Y-37246000D01*
X193766000Y-35144000D01*
X196868000Y-35144000D01*
X196868000Y-37246000D01*
X196868000Y-37246000D01*
G37*
G36*
X45601000Y-36801000D02*
X42499000Y-36801000D01*
X42499000Y-35899000D01*
X45601000Y-35899000D01*
X45601000Y-36801000D01*
X45601000Y-36801000D01*
G37*
G36*
X209601000Y-36661000D02*
X206499000Y-36661000D01*
X206499000Y-35759000D01*
X209601000Y-35759000D01*
X209601000Y-36661000D01*
X209601000Y-36661000D01*
G37*
G36*
X71671000Y-36051000D02*
X68569000Y-36051000D01*
X68569000Y-33949000D01*
X71671000Y-33949000D01*
X71671000Y-36051000D01*
X71671000Y-36051000D01*
G37*
G36*
X45601000Y-35531000D02*
X42499000Y-35531000D01*
X42499000Y-34629000D01*
X45601000Y-34629000D01*
X45601000Y-35531000D01*
X45601000Y-35531000D01*
G37*
G36*
X209601000Y-35391000D02*
X206499000Y-35391000D01*
X206499000Y-34489000D01*
X209601000Y-34489000D01*
X209601000Y-35391000D01*
X209601000Y-35391000D01*
G37*
G36*
X196868000Y-34706000D02*
X193766000Y-34706000D01*
X193766000Y-32604000D01*
X196868000Y-32604000D01*
X196868000Y-34706000D01*
X196868000Y-34706000D01*
G37*
G36*
X45601000Y-34261000D02*
X42499000Y-34261000D01*
X42499000Y-33359000D01*
X45601000Y-33359000D01*
X45601000Y-34261000D01*
X45601000Y-34261000D01*
G37*
G36*
X209601000Y-34121000D02*
X206499000Y-34121000D01*
X206499000Y-33219000D01*
X209601000Y-33219000D01*
X209601000Y-34121000D01*
X209601000Y-34121000D01*
G37*
G36*
X71671000Y-33511000D02*
X68569000Y-33511000D01*
X68569000Y-31409000D01*
X71671000Y-31409000D01*
X71671000Y-33511000D01*
X71671000Y-33511000D01*
G37*
G36*
X45601000Y-32991000D02*
X42499000Y-32991000D01*
X42499000Y-32089000D01*
X45601000Y-32089000D01*
X45601000Y-32991000D01*
X45601000Y-32991000D01*
G37*
G36*
X209601000Y-32851000D02*
X206499000Y-32851000D01*
X206499000Y-31949000D01*
X209601000Y-31949000D01*
X209601000Y-32851000D01*
X209601000Y-32851000D01*
G37*
G36*
X196868000Y-32166000D02*
X193766000Y-32166000D01*
X193766000Y-30064000D01*
X196868000Y-30064000D01*
X196868000Y-32166000D01*
X196868000Y-32166000D01*
G37*
G36*
X45601000Y-31721000D02*
X42499000Y-31721000D01*
X42499000Y-30819000D01*
X45601000Y-30819000D01*
X45601000Y-31721000D01*
X45601000Y-31721000D01*
G37*
G36*
X209601000Y-31581000D02*
X206499000Y-31581000D01*
X206499000Y-30679000D01*
X209601000Y-30679000D01*
X209601000Y-31581000D01*
X209601000Y-31581000D01*
G37*
G36*
X71671000Y-30971000D02*
X68569000Y-30971000D01*
X68569000Y-28869000D01*
X71671000Y-28869000D01*
X71671000Y-30971000D01*
X71671000Y-30971000D01*
G37*
G36*
X45601000Y-30451000D02*
X42499000Y-30451000D01*
X42499000Y-29549000D01*
X45601000Y-29549000D01*
X45601000Y-30451000D01*
X45601000Y-30451000D01*
G37*
G36*
X209601000Y-30311000D02*
X206499000Y-30311000D01*
X206499000Y-29409000D01*
X209601000Y-29409000D01*
X209601000Y-30311000D01*
X209601000Y-30311000D01*
G37*
G36*
X196868000Y-29626000D02*
X193766000Y-29626000D01*
X193766000Y-27524000D01*
X196868000Y-27524000D01*
X196868000Y-29626000D01*
X196868000Y-29626000D01*
G37*
G36*
X134294096Y-24597033D02*
X134294098Y-24597034D01*
X134294099Y-24597034D01*
X134758352Y-24789333D01*
X135049691Y-24984000D01*
X135176171Y-25068511D01*
X135531489Y-25423829D01*
X135531491Y-25423832D01*
X135810667Y-25841648D01*
X136002966Y-26305901D01*
X136002967Y-26305904D01*
X136101000Y-26798747D01*
X136101000Y-27301253D01*
X136056693Y-27524000D01*
X136002966Y-27794099D01*
X135810667Y-28258352D01*
X135695307Y-28431000D01*
X135531489Y-28676171D01*
X135176171Y-29031489D01*
X135176168Y-29031491D01*
X134758352Y-29310667D01*
X134294099Y-29502966D01*
X134294098Y-29502966D01*
X134294096Y-29502967D01*
X133801253Y-29601000D01*
X133298747Y-29601000D01*
X132805904Y-29502967D01*
X132805902Y-29502966D01*
X132805901Y-29502966D01*
X132341648Y-29310667D01*
X131923832Y-29031491D01*
X131923829Y-29031489D01*
X131568511Y-28676171D01*
X131404693Y-28431000D01*
X131289333Y-28258352D01*
X131097034Y-27794099D01*
X131043308Y-27524000D01*
X130999000Y-27301253D01*
X130999000Y-26798747D01*
X131097033Y-26305904D01*
X131097034Y-26305901D01*
X131289333Y-25841648D01*
X131568509Y-25423832D01*
X131568511Y-25423829D01*
X131923829Y-25068511D01*
X132050309Y-24984000D01*
X132341648Y-24789333D01*
X132805901Y-24597034D01*
X132805902Y-24597034D01*
X132805904Y-24597033D01*
X133298747Y-24499000D01*
X133801253Y-24499000D01*
X134294096Y-24597033D01*
X134294096Y-24597033D01*
G37*
G36*
X45601000Y-29181000D02*
X42499000Y-29181000D01*
X42499000Y-28279000D01*
X45601000Y-28279000D01*
X45601000Y-29181000D01*
X45601000Y-29181000D01*
G37*
G36*
X209601000Y-29041000D02*
X206499000Y-29041000D01*
X206499000Y-28139000D01*
X209601000Y-28139000D01*
X209601000Y-29041000D01*
X209601000Y-29041000D01*
G37*
G36*
X71671000Y-28431000D02*
X68569000Y-28431000D01*
X68569000Y-26329000D01*
X71671000Y-26329000D01*
X71671000Y-28431000D01*
X71671000Y-28431000D01*
G37*
G36*
X182947000Y-28213000D02*
X181321000Y-28213000D01*
X181321000Y-24111000D01*
X182947000Y-24111000D01*
X182947000Y-28213000D01*
X182947000Y-28213000D01*
G37*
G36*
X180407000Y-28213000D02*
X178781000Y-28213000D01*
X178781000Y-24111000D01*
X180407000Y-24111000D01*
X180407000Y-28213000D01*
X180407000Y-28213000D01*
G37*
G36*
X193107000Y-28213000D02*
X191481000Y-28213000D01*
X191481000Y-24111000D01*
X193107000Y-24111000D01*
X193107000Y-28213000D01*
X193107000Y-28213000D01*
G37*
G36*
X188027000Y-28213000D02*
X186401000Y-28213000D01*
X186401000Y-24111000D01*
X188027000Y-24111000D01*
X188027000Y-28213000D01*
X188027000Y-28213000D01*
G37*
G36*
X190567000Y-28213000D02*
X188941000Y-28213000D01*
X188941000Y-24111000D01*
X190567000Y-24111000D01*
X190567000Y-28213000D01*
X190567000Y-28213000D01*
G37*
G36*
X185487000Y-28213000D02*
X183861000Y-28213000D01*
X183861000Y-24111000D01*
X185487000Y-24111000D01*
X185487000Y-28213000D01*
X185487000Y-28213000D01*
G37*
G36*
X54423000Y-28101000D02*
X52797000Y-28101000D01*
X52797000Y-23999000D01*
X54423000Y-23999000D01*
X54423000Y-28101000D01*
X54423000Y-28101000D01*
G37*
G36*
X56963000Y-28101000D02*
X55337000Y-28101000D01*
X55337000Y-23999000D01*
X56963000Y-23999000D01*
X56963000Y-28101000D01*
X56963000Y-28101000D01*
G37*
G36*
X62043000Y-28101000D02*
X60417000Y-28101000D01*
X60417000Y-23999000D01*
X62043000Y-23999000D01*
X62043000Y-28101000D01*
X62043000Y-28101000D01*
G37*
G36*
X64583000Y-28101000D02*
X62957000Y-28101000D01*
X62957000Y-23999000D01*
X64583000Y-23999000D01*
X64583000Y-28101000D01*
X64583000Y-28101000D01*
G37*
G36*
X67123000Y-28101000D02*
X65497000Y-28101000D01*
X65497000Y-23999000D01*
X67123000Y-23999000D01*
X67123000Y-28101000D01*
X67123000Y-28101000D01*
G37*
G36*
X59503000Y-28101000D02*
X57877000Y-28101000D01*
X57877000Y-23999000D01*
X59503000Y-23999000D01*
X59503000Y-28101000D01*
X59503000Y-28101000D01*
G37*
G36*
X45601000Y-27911000D02*
X42499000Y-27911000D01*
X42499000Y-27009000D01*
X45601000Y-27009000D01*
X45601000Y-27911000D01*
X45601000Y-27911000D01*
G37*
G36*
X209601000Y-27771000D02*
X206499000Y-27771000D01*
X206499000Y-26869000D01*
X209601000Y-26869000D01*
X209601000Y-27771000D01*
X209601000Y-27771000D01*
G37*
G36*
X196868000Y-27086000D02*
X193766000Y-27086000D01*
X193766000Y-24984000D01*
X196868000Y-24984000D01*
X196868000Y-27086000D01*
X196868000Y-27086000D01*
G37*
G36*
X45601000Y-26641000D02*
X42499000Y-26641000D01*
X42499000Y-25739000D01*
X45601000Y-25739000D01*
X45601000Y-26641000D01*
X45601000Y-26641000D01*
G37*
G36*
X209601000Y-26501000D02*
X206499000Y-26501000D01*
X206499000Y-25599000D01*
X209601000Y-25599000D01*
X209601000Y-26501000D01*
X209601000Y-26501000D01*
G37*
G36*
X71671000Y-25891000D02*
X68569000Y-25891000D01*
X68569000Y-23789000D01*
X71671000Y-23789000D01*
X71671000Y-25891000D01*
X71671000Y-25891000D01*
G37*
G36*
X45601000Y-25371000D02*
X42499000Y-25371000D01*
X42499000Y-24469000D01*
X45601000Y-24469000D01*
X45601000Y-25371000D01*
X45601000Y-25371000D01*
G37*
G36*
X209601000Y-25231000D02*
X206499000Y-25231000D01*
X206499000Y-24329000D01*
X209601000Y-24329000D01*
X209601000Y-25231000D01*
X209601000Y-25231000D01*
G37*
M02*
