%TF.GenerationSoftware,KiCad,Pcbnew,(5.0.0-rc2-60-gbfa89039c)*%
%TF.CreationDate,2019-08-02T13:04:55+03:00*%
%TF.ProjectId,ConnectorPCB,436F6E6E6563746F725043422E6B6963,rev?*%
%TF.SameCoordinates,Original*%
%TF.FileFunction,Copper,L2,Bot,Signal*%
%TF.FilePolarity,Positive*%
%FSLAX46Y46*%
G04 Gerber Fmt 4.6, Leading zero omitted, Abs format (unit mm)*
G04 Created by KiCad (PCBNEW (5.0.0-rc2-60-gbfa89039c)) date 08/02/19 13:04:55*
%MOMM*%
%LPD*%
G01*
G04 APERTURE LIST*
%ADD10C,0.050000*%
%ADD11C,5.000000*%
%ADD12C,5.500000*%
%ADD13C,0.800000*%
%ADD14C,0.800000*%
G04 APERTURE END LIST*
D10*
X127000000Y-130000000D02*
X40000000Y-130000000D01*
X40000000Y-117000000D02*
X48000000Y-117000000D01*
X40000000Y-93000000D02*
X40000000Y-80000000D01*
X48000000Y-117000000D02*
X48000000Y-93000000D01*
X48000000Y-93000000D02*
X40000000Y-93000000D01*
X40000000Y-130000000D02*
X40000000Y-117000000D01*
X127000000Y-130000000D02*
X127000000Y-80000000D01*
X127000000Y-80000000D02*
X127000000Y-30000000D01*
X40000000Y-43000000D02*
X40000000Y-30000000D01*
X48000000Y-43000000D02*
X40000000Y-43000000D01*
X48000000Y-67000000D02*
X48000000Y-43000000D01*
X40000000Y-67000000D02*
X48000000Y-67000000D01*
X40000000Y-80000000D02*
X40000000Y-67000000D01*
X40000000Y-30000000D02*
X127000000Y-30000000D01*
D11*
X122000000Y-85000000D03*
X122000000Y-125000000D03*
D12*
X122000000Y-92000000D03*
D11*
X55000000Y-85000000D03*
D12*
X122000000Y-118000000D03*
D11*
X55000000Y-125000000D03*
D12*
X122000000Y-42000000D03*
X122000000Y-68000000D03*
D11*
X122000000Y-75000000D03*
X55000000Y-75000000D03*
X122000000Y-35000000D03*
X55000000Y-35000000D03*
D13*
X50000000Y-39000000D03*
X95000000Y-58000000D03*
X95000000Y-57000000D03*
X50000000Y-40000000D03*
X95000000Y-108000000D03*
X95000000Y-107000000D03*
X50000000Y-90000000D03*
X50000000Y-89000000D03*
X87000000Y-69000000D03*
X115000000Y-55000000D03*
X115000000Y-57000000D03*
X97000000Y-53000000D03*
X94000000Y-46000000D03*
X87070000Y-39000000D03*
X98000000Y-53000000D03*
X95000000Y-45000000D03*
X88000000Y-38070000D03*
X88000000Y-69000000D03*
X44000000Y-31000000D03*
X44000000Y-33000000D03*
X115000000Y-50000000D03*
X115000000Y-52000000D03*
X44000000Y-72000000D03*
X44000000Y-74000000D03*
X90000000Y-71000000D03*
X89000024Y-70000000D03*
X88000000Y-88070000D03*
X98000000Y-103000000D03*
X94000000Y-96000000D03*
X115000000Y-105000000D03*
X88000000Y-119000000D03*
X87070000Y-89000000D03*
X97000000Y-103000000D03*
X95000000Y-95000000D03*
X115000000Y-107000000D03*
X87000000Y-119000000D03*
X44000000Y-81000000D03*
X115000000Y-100000000D03*
X115000000Y-102000000D03*
X44000000Y-83000000D03*
X44000000Y-122000000D03*
X44000000Y-124000000D03*
X89000024Y-120000000D03*
X90000000Y-121000000D03*
D14*
X65000000Y-54000000D02*
X69000000Y-58000000D01*
X94000000Y-58000000D02*
X95000000Y-57000000D01*
X94000000Y-58000000D02*
X95000000Y-58000000D01*
X69000000Y-58000000D02*
X94000000Y-58000000D01*
X51000000Y-40000000D02*
X50000000Y-40000000D01*
X51000000Y-40000000D02*
X65000000Y-54000000D01*
X50000000Y-39000000D02*
X51000000Y-40000000D01*
X69000000Y-108000000D02*
X94000000Y-108000000D01*
X94000000Y-108000000D02*
X95000000Y-107000000D01*
X51000000Y-90000000D02*
X65000000Y-104000000D01*
X51000000Y-90000000D02*
X50000000Y-90000000D01*
X65000000Y-104000000D02*
X69000000Y-108000000D01*
X94000000Y-108000000D02*
X95000000Y-108000000D01*
X50000000Y-89000000D02*
X51000000Y-90000000D01*
X100000000Y-56000000D02*
X114000000Y-56000000D01*
X114000000Y-56000000D02*
X115000000Y-55000000D01*
X115000000Y-57000000D02*
X114000000Y-56000000D01*
X87070000Y-39070000D02*
X87070000Y-39000000D01*
X88000000Y-68000000D02*
X100000000Y-56000000D01*
X87000000Y-69000000D02*
X88000000Y-68000000D01*
X98000000Y-54000000D02*
X98000000Y-53000000D01*
X98000000Y-54000000D02*
X97000000Y-53000000D01*
X100000000Y-56000000D02*
X98000000Y-54000000D01*
X95000000Y-45000000D02*
X93000000Y-45000000D01*
X94000000Y-46000000D02*
X93000000Y-45000000D01*
X88000000Y-40000000D02*
X88000000Y-38070000D01*
X88000000Y-40000000D02*
X87070000Y-39070000D01*
X93000000Y-45000000D02*
X88000000Y-40000000D01*
X88000000Y-68000000D02*
X88000000Y-68434315D01*
X88000000Y-68434315D02*
X88000000Y-69000000D01*
X44000000Y-31000000D02*
X45000000Y-32000000D01*
X45000000Y-32000000D02*
X44000000Y-33000000D01*
X45000000Y-32000000D02*
X46000000Y-32000000D01*
X46000000Y-32000000D02*
X65000000Y-51000000D01*
X65000000Y-51000000D02*
X114000000Y-51000000D01*
X114000000Y-51000000D02*
X115000000Y-50000000D01*
X114000000Y-51000000D02*
X115000000Y-52000000D01*
X44000000Y-72000000D02*
X45000000Y-72000000D01*
X45000000Y-72000000D02*
X46000000Y-73000000D01*
X46000000Y-73000000D02*
X45000000Y-74000000D01*
X45000000Y-74000000D02*
X44000000Y-74000000D01*
X88414226Y-71000000D02*
X90000000Y-71000000D01*
X88565709Y-71000000D02*
X89000024Y-70565685D01*
X89000024Y-70565685D02*
X89000024Y-70000000D01*
X88414226Y-71000000D02*
X88565709Y-71000000D01*
X98000000Y-104000000D02*
X98000000Y-103000000D01*
X100000000Y-106000000D02*
X114000000Y-106000000D01*
X87000000Y-119000000D02*
X88000000Y-118000000D01*
X100000000Y-106000000D02*
X98000000Y-104000000D01*
X115000000Y-107000000D02*
X114000000Y-106000000D01*
X98000000Y-104000000D02*
X97000000Y-103000000D01*
X95000000Y-95000000D02*
X93000000Y-95000000D01*
X114000000Y-106000000D02*
X115000000Y-105000000D01*
X88000000Y-90000000D02*
X88000000Y-88070000D01*
X93000000Y-95000000D02*
X88000000Y-90000000D01*
X88000000Y-90000000D02*
X87070000Y-89070000D01*
X88000000Y-118000000D02*
X100000000Y-106000000D01*
X87070000Y-89070000D02*
X87070000Y-89000000D01*
X94000000Y-96000000D02*
X93000000Y-95000000D01*
X88000000Y-118434315D02*
X88000000Y-119000000D01*
X88000000Y-118000000D02*
X88000000Y-118434315D01*
X44000000Y-81000000D02*
X45000000Y-82000000D01*
X45000000Y-82000000D02*
X46000000Y-82000000D01*
X45000000Y-82000000D02*
X44000000Y-83000000D01*
X114000000Y-101000000D02*
X115000000Y-100000000D01*
X114000000Y-101000000D02*
X115000000Y-102000000D01*
X65000000Y-101000000D02*
X114000000Y-101000000D01*
X46000000Y-82000000D02*
X65000000Y-101000000D01*
X45000000Y-124000000D02*
X44000000Y-124000000D01*
X44000000Y-122000000D02*
X45000000Y-122000000D01*
X87514227Y-121899999D02*
X88414226Y-121000000D01*
X46000000Y-123000000D02*
X45000000Y-124000000D01*
X45000000Y-122000000D02*
X46000000Y-123000000D01*
X88414226Y-121000000D02*
X88565709Y-121000000D01*
X88414226Y-121000000D02*
X90000000Y-121000000D01*
X88565709Y-121000000D02*
X89000024Y-120565685D01*
X46000000Y-123000000D02*
X47100001Y-121899999D01*
X89000024Y-120565685D02*
X89000024Y-120000000D01*
X47100001Y-121899999D02*
X87514227Y-121899999D01*
X48000000Y-71000000D02*
X88414226Y-71000000D01*
X46000000Y-73000000D02*
X48000000Y-71000000D01*
M02*
