M48
;DRILL file {KiCad (5.0.0-rc2-60-gbfa89039c)} date 08/02/19 13:49:48
;FORMAT={-:-/ absolute / inch / decimal}
FMAT,2
INCH,TZ
T1C0.0157
T2C0.1260
T3C0.2047
%
G90
G05
M72
T1
X1.7323Y-1.2205
X1.7323Y-1.2992
X1.7323Y-2.8346
X1.7323Y-2.9134
X1.7323Y-3.189
X1.7323Y-3.2677
X1.7323Y-4.8031
X1.7323Y-4.8819
X1.9685Y-1.5354
X1.9685Y-1.5748
X1.9685Y-3.5039
X1.9685Y-3.5433
X3.4252Y-2.7165
X3.4252Y-4.685
X3.428Y-1.5354
X3.428Y-3.5039
X3.4646Y-1.4988
X3.4646Y-2.7165
X3.4646Y-3.4673
X3.4646Y-4.685
X3.5039Y-2.7559
X3.5039Y-4.7244
X3.5433Y-2.7953
X3.5433Y-4.7638
X3.7008Y-1.811
X3.7008Y-3.7795
X3.7402Y-1.7717
X3.7402Y-2.2441
X3.7402Y-2.2835
X3.7402Y-3.7402
X3.7402Y-4.2126
X3.7402Y-4.252
X3.8189Y-2.0866
X3.8189Y-4.0551
X3.8583Y-2.0866
X3.8583Y-4.0551
X4.5276Y-1.9685
X4.5276Y-2.0472
X4.5276Y-2.1654
X4.5276Y-2.2441
X4.5276Y-3.937
X4.5276Y-4.0157
X4.5276Y-4.1339
X4.5276Y-4.2126
T2
X2.1654Y-1.378
X4.8031Y-4.9213
X4.8031Y-3.3465
X2.1654Y-3.3465
X4.8031Y-1.378
X2.1654Y-2.9528
X4.8031Y-2.9528
X2.1654Y-4.9213
T3
X4.8031Y-1.6535
X4.8031Y-4.6457
X4.8031Y-3.622
X4.8031Y-2.6772
T0
M30
