%TF.GenerationSoftware,KiCad,Pcbnew,(5.0.0-rc2-60-gbfa89039c)*%
%TF.CreationDate,2019-08-02T13:49:45+03:00*%
%TF.ProjectId,ConnectorPCB,436F6E6E6563746F725043422E6B6963,rev?*%
%TF.SameCoordinates,Original*%
%TF.FileFunction,Copper,L1,Top,Signal*%
%TF.FilePolarity,Positive*%
%FSLAX46Y46*%
G04 Gerber Fmt 4.6, Leading zero omitted, Abs format (unit mm)*
G04 Created by KiCad (PCBNEW (5.0.0-rc2-60-gbfa89039c)) date 08/02/19 13:49:45*
%MOMM*%
%LPD*%
G01*
G04 APERTURE LIST*
%ADD10C,0.050000*%
%ADD11R,6.000000X1.500000*%
%ADD12R,1.524000X4.000000*%
%ADD13R,1.524000X10.000000*%
%ADD14C,5.000000*%
%ADD15C,5.500000*%
%ADD16C,0.800000*%
%ADD17C,0.800000*%
%ADD18C,0.250000*%
G04 APERTURE END LIST*
D10*
X127000000Y-130000000D02*
X40000000Y-130000000D01*
X40000000Y-117000000D02*
X48000000Y-117000000D01*
X40000000Y-93000000D02*
X40000000Y-80000000D01*
X48000000Y-117000000D02*
X48000000Y-93000000D01*
X48000000Y-93000000D02*
X40000000Y-93000000D01*
X40000000Y-130000000D02*
X40000000Y-117000000D01*
X127000000Y-130000000D02*
X127000000Y-80000000D01*
X127000000Y-80000000D02*
X127000000Y-30000000D01*
X40000000Y-43000000D02*
X40000000Y-30000000D01*
X48000000Y-43000000D02*
X40000000Y-43000000D01*
X48000000Y-67000000D02*
X48000000Y-43000000D01*
X40000000Y-67000000D02*
X48000000Y-67000000D01*
X40000000Y-80000000D02*
X40000000Y-67000000D01*
X40000000Y-30000000D02*
X127000000Y-30000000D01*
D11*
X122000000Y-98750000D03*
X122000000Y-101250000D03*
X122000000Y-103750000D03*
X122000000Y-106250000D03*
X122000000Y-108750000D03*
X122000000Y-111250000D03*
D12*
X80650000Y-125000000D03*
X83190000Y-125000000D03*
X85730000Y-125000000D03*
X88270000Y-125000000D03*
X90810000Y-125000000D03*
X93350000Y-125000000D03*
D13*
X46000000Y-122780000D03*
X46000000Y-87220000D03*
D14*
X122000000Y-85000000D03*
X122000000Y-125000000D03*
D15*
X122000000Y-92000000D03*
D12*
X80650000Y-85000000D03*
X83190000Y-85000000D03*
X85730000Y-85000000D03*
X88270000Y-85000000D03*
X90810000Y-85000000D03*
X93350000Y-85000000D03*
D14*
X55000000Y-85000000D03*
D15*
X122000000Y-118000000D03*
D14*
X55000000Y-125000000D03*
D13*
X42000000Y-87220000D03*
X42000000Y-122780000D03*
D15*
X122000000Y-42000000D03*
X122000000Y-68000000D03*
D14*
X122000000Y-75000000D03*
X55000000Y-75000000D03*
X122000000Y-35000000D03*
X55000000Y-35000000D03*
D12*
X80650000Y-35000000D03*
X83190000Y-35000000D03*
X85730000Y-35000000D03*
X88270000Y-35000000D03*
X90810000Y-35000000D03*
X93350000Y-35000000D03*
D13*
X46000000Y-72780000D03*
X46000000Y-37220000D03*
X42000000Y-37220000D03*
X42000000Y-72780000D03*
D12*
X80650000Y-75000000D03*
X83190000Y-75000000D03*
X85730000Y-75000000D03*
X88270000Y-75000000D03*
X90810000Y-75000000D03*
X93350000Y-75000000D03*
D11*
X122000000Y-48750000D03*
X122000000Y-51250000D03*
X122000000Y-53750000D03*
X122000000Y-56250000D03*
X122000000Y-58750000D03*
X122000000Y-61250000D03*
D16*
X50000000Y-39000000D03*
X95000000Y-58000000D03*
X95000000Y-57000000D03*
X50000000Y-40000000D03*
X95000000Y-108000000D03*
X95000000Y-107000000D03*
X50000000Y-90000000D03*
X50000000Y-89000000D03*
X87000000Y-69000000D03*
X115000000Y-55000000D03*
X115000000Y-57000000D03*
X97000000Y-53000000D03*
X94000000Y-46000000D03*
X87070000Y-39000000D03*
X98000000Y-53000000D03*
X95000000Y-45000000D03*
X88000000Y-38070000D03*
X88000000Y-69000000D03*
X88000000Y-88070000D03*
X98000000Y-103000000D03*
X94000000Y-96000000D03*
X115000000Y-105000000D03*
X88000000Y-119000000D03*
X87070000Y-89000000D03*
X97000000Y-103000000D03*
X95000000Y-95000000D03*
X115000000Y-107000000D03*
X87000000Y-119000000D03*
X44000000Y-31000000D03*
X44000000Y-33000000D03*
X115000000Y-50000000D03*
X115000000Y-52000000D03*
X44000000Y-81000000D03*
X115000000Y-100000000D03*
X115000000Y-102000000D03*
X44000000Y-83000000D03*
X44000000Y-72000000D03*
X44000000Y-74000000D03*
X90000000Y-71000000D03*
X89000024Y-70000000D03*
X44000000Y-122000000D03*
X44000000Y-124000000D03*
X89000024Y-120000000D03*
X90000000Y-121000000D03*
D17*
X47562000Y-37220000D02*
X49342000Y-39000000D01*
X46000000Y-37220000D02*
X47562000Y-37220000D01*
X49342000Y-39000000D02*
X50000000Y-39000000D01*
X121933000Y-58683000D02*
X122000000Y-58750000D01*
X97683000Y-58683000D02*
X121933000Y-58683000D01*
X97000000Y-58000000D02*
X97683000Y-58683000D01*
X95000000Y-57000000D02*
X96000000Y-58000000D01*
X95000000Y-58000000D02*
X96000000Y-58000000D01*
X96000000Y-58000000D02*
X97000000Y-58000000D01*
X49342000Y-39342000D02*
X49342000Y-39000000D01*
X50000000Y-40000000D02*
X49342000Y-39342000D01*
X121933000Y-108683000D02*
X122000000Y-108750000D01*
X97000000Y-108000000D02*
X97683000Y-108683000D01*
X47562000Y-87220000D02*
X49342000Y-89000000D01*
X95000000Y-107000000D02*
X96000000Y-108000000D01*
X46000000Y-87220000D02*
X47562000Y-87220000D01*
X50000000Y-90000000D02*
X49342000Y-89342000D01*
X49342000Y-89000000D02*
X50000000Y-89000000D01*
X97683000Y-108683000D02*
X121933000Y-108683000D01*
X49342000Y-89342000D02*
X49342000Y-89000000D01*
X95000000Y-108000000D02*
X96000000Y-108000000D01*
X96000000Y-108000000D02*
X97000000Y-108000000D01*
X122000000Y-56250000D02*
X122000000Y-53750000D01*
X88270000Y-35000000D02*
X88270000Y-37800000D01*
X85730000Y-37800000D02*
X85730000Y-35000000D01*
X86930000Y-39000000D02*
X85730000Y-37800000D01*
X87070000Y-39000000D02*
X86930000Y-39000000D01*
X85730000Y-72200000D02*
X86930000Y-71000000D01*
X85730000Y-75000000D02*
X85730000Y-72200000D01*
X88270000Y-72200000D02*
X88270000Y-75000000D01*
X87070000Y-71000000D02*
X88270000Y-72200000D01*
X86930000Y-71000000D02*
X87070000Y-71000000D01*
X86930000Y-71000000D02*
X86930000Y-70070000D01*
X86930000Y-70070000D02*
X86930000Y-69070000D01*
X86930000Y-69070000D02*
X87000000Y-69000000D01*
X116250000Y-56250000D02*
X122000000Y-56250000D01*
X115000000Y-55000000D02*
X116250000Y-56250000D01*
X116250000Y-56250000D02*
X115750000Y-56250000D01*
X115750000Y-56250000D02*
X115000000Y-57000000D01*
X98000000Y-53000000D02*
X97000000Y-52000000D01*
X97000000Y-53000000D02*
X97000000Y-52000000D01*
X97000000Y-52000000D02*
X97000000Y-49000000D01*
X95000000Y-47000000D02*
X95000000Y-45000000D01*
X95000000Y-47000000D02*
X94000000Y-46000000D01*
X97000000Y-49000000D02*
X95000000Y-47000000D01*
X88000000Y-38070000D02*
X87070000Y-39000000D01*
X88270000Y-37800000D02*
X88000000Y-38070000D01*
X86930000Y-70070000D02*
X88000000Y-69000000D01*
X83190000Y-75000000D02*
X83190000Y-73762000D01*
X83190000Y-35000000D02*
X85730000Y-35000000D01*
X83190000Y-75000000D02*
X85730000Y-75000000D01*
X83190000Y-85000000D02*
X85730000Y-85000000D01*
X83190000Y-125000000D02*
X85730000Y-125000000D01*
X86930000Y-120070000D02*
X86930000Y-119070000D01*
X97000000Y-99000000D02*
X95000000Y-97000000D01*
X85730000Y-87800000D02*
X85730000Y-85000000D01*
X86930000Y-121000000D02*
X86930000Y-120070000D01*
X116250000Y-106250000D02*
X122000000Y-106250000D01*
X85730000Y-122200000D02*
X86930000Y-121000000D01*
X97000000Y-102000000D02*
X97000000Y-99000000D01*
X95000000Y-97000000D02*
X94000000Y-96000000D01*
X115000000Y-105000000D02*
X116250000Y-106250000D01*
X86930000Y-121000000D02*
X87070000Y-121000000D01*
X116250000Y-106250000D02*
X115750000Y-106250000D01*
X115750000Y-106250000D02*
X115000000Y-107000000D01*
X95000000Y-97000000D02*
X95000000Y-95000000D01*
X88270000Y-87800000D02*
X88000000Y-88070000D01*
X88270000Y-85000000D02*
X88270000Y-87800000D01*
X86930000Y-89000000D02*
X85730000Y-87800000D01*
X88270000Y-122200000D02*
X88270000Y-125000000D01*
X86930000Y-119070000D02*
X87000000Y-119000000D01*
X98000000Y-103000000D02*
X97000000Y-102000000D01*
X87070000Y-89000000D02*
X86930000Y-89000000D01*
X122000000Y-106250000D02*
X122000000Y-103750000D01*
X97000000Y-103000000D02*
X97000000Y-102000000D01*
X88000000Y-88070000D02*
X87070000Y-89000000D01*
X85730000Y-125000000D02*
X85730000Y-122200000D01*
X87070000Y-121000000D02*
X88270000Y-122200000D01*
X86930000Y-120070000D02*
X88000000Y-119000000D01*
X83190000Y-125000000D02*
X83190000Y-123762000D01*
X42000000Y-32982000D02*
X42000000Y-37220000D01*
X122000000Y-51250000D02*
X118200000Y-51250000D01*
X43562000Y-31420000D02*
X43580000Y-31420000D01*
X43580000Y-31420000D02*
X44000000Y-31000000D01*
X43000000Y-31982000D02*
X43000000Y-32000000D01*
X43000000Y-31982000D02*
X42000000Y-32982000D01*
X43562000Y-31420000D02*
X43000000Y-31982000D01*
X43000000Y-32000000D02*
X44000000Y-33000000D01*
X116250000Y-51250000D02*
X118200000Y-51250000D01*
X115000000Y-50000000D02*
X116250000Y-51250000D01*
X115750000Y-51250000D02*
X116250000Y-51250000D01*
X115000000Y-52000000D02*
X115750000Y-51250000D01*
X115750000Y-101250000D02*
X116250000Y-101250000D01*
X43562000Y-81420000D02*
X43580000Y-81420000D01*
X115000000Y-100000000D02*
X116250000Y-101250000D01*
X43562000Y-81420000D02*
X43000000Y-81982000D01*
X122000000Y-101250000D02*
X118200000Y-101250000D01*
X43000000Y-81982000D02*
X42000000Y-82982000D01*
X116250000Y-101250000D02*
X118200000Y-101250000D01*
X115000000Y-102000000D02*
X115750000Y-101250000D01*
X43000000Y-82000000D02*
X44000000Y-83000000D01*
X43580000Y-81420000D02*
X44000000Y-81000000D01*
X43000000Y-81982000D02*
X43000000Y-82000000D01*
X42000000Y-82982000D02*
X42000000Y-87220000D01*
X90810000Y-75000000D02*
X90810000Y-76302002D01*
X42000000Y-77018000D02*
X42000000Y-72780000D01*
X90810000Y-35000000D02*
X90810000Y-68810000D01*
X42000000Y-72780000D02*
X43780000Y-72780000D01*
X43780000Y-72780000D02*
X44000000Y-72560000D01*
X44000000Y-72560000D02*
X44000000Y-72000000D01*
X44000000Y-73000000D02*
X43780000Y-72780000D01*
X44000000Y-74000000D02*
X44000000Y-73000000D01*
X90810000Y-68810000D02*
X90810000Y-69000000D01*
X90000000Y-71000000D02*
X90810000Y-71000000D01*
X90810000Y-69000000D02*
X90810000Y-71000000D01*
X90810000Y-71000000D02*
X90810000Y-75000000D01*
X89810000Y-70000000D02*
X89565709Y-70000000D01*
X89565709Y-70000000D02*
X89000024Y-70000000D01*
X90810000Y-69000000D02*
X89810000Y-70000000D01*
X90810000Y-119000000D02*
X89810000Y-120000000D01*
X42000000Y-122780000D02*
X43780000Y-122780000D01*
X90810000Y-121000000D02*
X90810000Y-125000000D01*
X90810000Y-119000000D02*
X90810000Y-121000000D01*
X89565709Y-120000000D02*
X89000024Y-120000000D01*
X43780000Y-122780000D02*
X44000000Y-122560000D01*
X42000000Y-127018000D02*
X42000000Y-122780000D01*
X44000000Y-123000000D02*
X43780000Y-122780000D01*
X44000000Y-124000000D02*
X44000000Y-123000000D01*
X90810000Y-118810000D02*
X90810000Y-119000000D01*
X90810000Y-125000000D02*
X90810000Y-126302002D01*
X44000000Y-122560000D02*
X44000000Y-122000000D01*
X90810000Y-85000000D02*
X90810000Y-118810000D01*
X90000000Y-121000000D02*
X90810000Y-121000000D01*
X89810000Y-120000000D02*
X89565709Y-120000000D01*
D18*
X93350000Y-75000000D02*
X93350000Y-73762000D01*
X102112000Y-75000000D02*
X93350000Y-75000000D01*
X114492000Y-62620000D02*
X102112000Y-75000000D01*
X125984000Y-62620000D02*
X114492000Y-62620000D01*
X125984000Y-50484000D02*
X125984000Y-62620000D01*
X122000000Y-48750000D02*
X124250000Y-48750000D01*
X124250000Y-48750000D02*
X125984000Y-50484000D01*
X93350000Y-36238000D02*
X93350000Y-35000000D01*
X105862000Y-48750000D02*
X93350000Y-36238000D01*
X122000000Y-48750000D02*
X105862000Y-48750000D01*
X93350000Y-86238000D02*
X93350000Y-85000000D01*
X125984000Y-112620000D02*
X114492000Y-112620000D01*
X102112000Y-125000000D02*
X93350000Y-125000000D01*
X122000000Y-98750000D02*
X124250000Y-98750000D01*
X124250000Y-98750000D02*
X125984000Y-100484000D01*
X125984000Y-100484000D02*
X125984000Y-112620000D01*
X93350000Y-125000000D02*
X93350000Y-123762000D01*
X114492000Y-112620000D02*
X102112000Y-125000000D01*
X105862000Y-98750000D02*
X93350000Y-86238000D01*
X122000000Y-98750000D02*
X105862000Y-98750000D01*
D17*
X47562000Y-72780000D02*
X46000000Y-72780000D01*
X49086000Y-71256000D02*
X47562000Y-72780000D01*
X80684000Y-71256000D02*
X49086000Y-71256000D01*
X80650000Y-75000000D02*
X80650000Y-71290000D01*
X80650000Y-71290000D02*
X80684000Y-71256000D01*
X80650000Y-71290000D02*
X80650000Y-35000000D01*
X49086000Y-121256000D02*
X47562000Y-122780000D01*
X80684000Y-121256000D02*
X49086000Y-121256000D01*
X47562000Y-122780000D02*
X46000000Y-122780000D01*
X80650000Y-125000000D02*
X80650000Y-121290000D01*
X80650000Y-121290000D02*
X80684000Y-121256000D01*
X80650000Y-121290000D02*
X80650000Y-85000000D01*
M02*
