<?xml version="1.0" encoding="UTF-8" standalone="no"?>
<svg
   xmlns:dc="http://purl.org/dc/elements/1.1/"
   xmlns:cc="http://creativecommons.org/ns#"
   xmlns:rdf="http://www.w3.org/1999/02/22-rdf-syntax-ns#"
   xmlns:svg="http://www.w3.org/2000/svg"
   xmlns="http://www.w3.org/2000/svg"
   xmlns:sodipodi="http://sodipodi.sourceforge.net/DTD/sodipodi-0.dtd"
   xmlns:inkscape="http://www.inkscape.org/namespaces/inkscape"
   width="550mm"
   height="310mm"
   id="svg7973"
   version="1.1"
   inkscape:version="0.91 r13725"
   sodipodi:docname="Pohjake1_2.svg">
  <metadata
     id="metadata8499">
    <rdf:RDF>
      <cc:Work
         rdf:about="">
        <dc:format>image/svg+xml</dc:format>
        <dc:type
           rdf:resource="http://purl.org/dc/dcmitype/StillImage" />
        <dc:title></dc:title>
      </cc:Work>
    </rdf:RDF>
  </metadata>
  <sodipodi:namedview
     pagecolor="#ffffff"
     bordercolor="#666666"
     borderopacity="1"
     objecttolerance="10"
     gridtolerance="10"
     guidetolerance="10"
     inkscape:pageopacity="0"
     inkscape:pageshadow="2"
     inkscape:window-width="1658"
     inkscape:window-height="928"
     id="namedview8497"
     showgrid="false"
     units="mm"
     inkscape:zoom="0.31623797"
     inkscape:cx="592.11724"
     inkscape:cy="784.23674"
     inkscape:window-x="0"
     inkscape:window-y="24"
     inkscape:window-maximized="0"
     inkscape:current-layer="g8047" />
  <desc
     id="desc7975">/home/paja/Downloads/Pohjake1(1).dxf - scale = 1.000000, origin = (0.000000, 0.000000), auto = False</desc>
  <defs
     id="defs7977">
    <marker
       id="DistanceX"
       orient="auto"
       refX="0"
       refY="0"
       style="overflow:visible">
      <path
         d="M 3,-3 -3,3 M 0,-5 0,5"
         style="stroke:#000000;stroke-width:0.5"
         id="path7980"
         inkscape:connector-curvature="0" />
    </marker>
    <pattern
       height="8"
       id="Hatch"
       patternUnits="userSpaceOnUse"
       width="8"
       x="0"
       y="0">
      <path
         d="M8 4 l-4,4"
         linecap="square"
         stroke="#000000"
         stroke-width="0.25"
         id="path7983" />
      <path
         d="M6 2 l-4,4"
         linecap="square"
         stroke="#000000"
         stroke-width="0.25"
         id="path7985" />
      <path
         d="M4 0 l-4,4"
         linecap="square"
         stroke="#000000"
         stroke-width="0.25"
         id="path7987" />
    </pattern>
    <symbol
       id="*MODEL_SPACE" />
    <symbol
       id="*PAPER_SPACE" />
  </defs>
  <g
     inkscape:groupmode="layer"
     inkscape:label="0"
     id="g7991"
     transform="translate(0,46.062997)" />
  <g
     inkscape:groupmode="layer"
     inkscape:label="SECTION_CUTTING_LINE"
     id="g7993"
     transform="translate(0,46.062997)" />
  <g
     inkscape:groupmode="layer"
     inkscape:label="DETAIL_VIEW_BORDER"
     id="g7995"
     transform="translate(0,46.062997)" />
  <g
     inkscape:groupmode="layer"
     inkscape:label="DETAIL_VIEW_PARENT_BORDER"
     id="g7997"
     transform="translate(0,46.062997)" />
  <g
     inkscape:groupmode="layer"
     inkscape:label="TEXT"
     id="g7999"
     transform="translate(0,46.062997)" />
  <g
     inkscape:groupmode="layer"
     inkscape:label="SKETCHED_GEOMETRY"
     id="g8001"
     transform="translate(0,46.062997)" />
  <g
     inkscape:groupmode="layer"
     inkscape:label="VIRTUAL_SHARPS"
     id="g8003"
     transform="translate(0,46.062997)" />
  <g
     inkscape:groupmode="layer"
     inkscape:label="CENTERLINES"
     id="g8005"
     transform="translate(0,46.062997)" />
  <g
     inkscape:groupmode="layer"
     inkscape:label="CENTERMARKS"
     id="g8007"
     transform="translate(0,46.062997)" />
  <g
     inkscape:groupmode="layer"
     inkscape:label="TABLES"
     id="g8009"
     transform="translate(0,46.062997)" />
  <g
     inkscape:groupmode="layer"
     inkscape:label="IMAGES"
     id="g8011"
     transform="translate(0,46.062997)" />
  <g
     inkscape:groupmode="layer"
     inkscape:label="ANNOTATION_LINES"
     id="g8013"
     transform="translate(0,46.062997)" />
  <g
     inkscape:groupmode="layer"
     inkscape:label="ANNOTATION_TEXT"
     id="g8015"
     transform="translate(0,46.062997)" />
  <g
     inkscape:groupmode="layer"
     inkscape:label="SIDE_THREAD_SYMBOLS"
     id="g8017"
     transform="translate(0,46.062997)" />
  <g
     inkscape:groupmode="layer"
     inkscape:label="SIDE_THREAD_SYMBOLS_HIDDEN"
     id="g8019"
     transform="translate(0,46.062997)" />
  <g
     inkscape:groupmode="layer"
     inkscape:label="SURFACE_THREAD_SYMBOLS"
     id="g8021"
     transform="translate(0,46.062997)" />
  <g
     inkscape:groupmode="layer"
     inkscape:label="SURFACE_THREAD_SYMBOLS_ON_"
     id="g8023"
     transform="translate(0,46.062997)" />
  <g
     inkscape:groupmode="layer"
     inkscape:label="SURFACE_THREAD_SYMBOLS_HID"
     id="g8025"
     transform="translate(0,46.062997)" />
  <g
     inkscape:groupmode="layer"
     inkscape:label="BLIND_THREAD_SYMBOLS"
     id="g8027"
     transform="translate(0,46.062997)" />
  <g
     inkscape:groupmode="layer"
     inkscape:label="BLIND_THREAD_SYMBOLS_HIDDE"
     id="g8029"
     transform="translate(0,46.062997)" />
  <g
     inkscape:groupmode="layer"
     inkscape:label="EXPLODE_LINES"
     id="g8031"
     transform="translate(0,46.062997)" />
  <g
     inkscape:groupmode="layer"
     inkscape:label="BREAK_LINES"
     id="g8033"
     transform="translate(0,46.062997)" />
  <g
     inkscape:groupmode="layer"
     inkscape:label="SHEETMETAL_BEND_LINES_UP"
     id="g8035"
     transform="translate(0,46.062997)" />
  <g
     inkscape:groupmode="layer"
     inkscape:label="SHEETMETAL_BEND_LINES_DOWN"
     id="g8037"
     transform="translate(0,46.062997)" />
  <g
     inkscape:groupmode="layer"
     inkscape:label="SHEETMETAL_BEND_TANGENT_LI"
     id="g8039"
     transform="translate(0,46.062997)" />
  <g
     inkscape:groupmode="layer"
     inkscape:label="SHEETMETAL_CUT_LINES"
     id="g8041"
     transform="translate(0,46.062997)" />
  <g
     inkscape:groupmode="layer"
     inkscape:label="HIDDEN"
     id="g8043"
     transform="translate(0,46.062997)" />
  <g
     inkscape:groupmode="layer"
     inkscape:label="VISIBLE"
     id="g8045"
     transform="translate(0,46.062997)" />
  <g
     inkscape:groupmode="layer"
     inkscape:label="MODELSKETCH_VISIBLE"
     id="g8047"
     transform="translate(0,46.062997)">
    <path
       d="m 815.59473,620.17969 a 5.314961,5.314961 0 1 0 0,10.62992 5.314961,5.314961 0 1 0 0,-10.62992 z"
       style="fill:none;stroke:#000000"
       id="path8049"
       inkscape:connector-curvature="0" />
    <path
       d="m 673.86245,857.58126 a 5.314961,5.314961 0 1 0 0,10.62992 5.314961,5.314961 0 1 0 0,-10.62992 z"
       style="fill:none;stroke:#000000"
       id="path8051"
       inkscape:connector-curvature="0" />
    <path
       d="m 815.59473,857.58126 a 5.314961,5.314961 0 1 0 0,10.62992 5.314961,5.314961 0 1 0 0,-10.62992 z"
       style="fill:none;stroke:#000000"
       id="path8053"
       inkscape:connector-curvature="0" />
    <path
       d="m 673.86245,620.17969 a 5.314961,5.314961 0 1 0 0,10.62992 5.314961,5.314961 0 1 0 0,-10.62992 z"
       style="fill:none;stroke:#000000"
       id="path8055"
       inkscape:connector-curvature="0" />
    <path
       d="m 227.40576,857.58126 a 5.314961,5.314961 0 1 0 0,10.62992 5.314961,5.314961 0 1 0 0,-10.62992 z"
       style="fill:none;stroke:#000000"
       id="path8057"
       inkscape:connector-curvature="0" />
    <path
       d="m 369.13804,857.58126 a 5.314961,5.314961 0 1 0 0,10.62992 5.314961,5.314961 0 1 0 0,-10.62992 z"
       style="fill:none;stroke:#000000"
       id="path8059"
       inkscape:connector-curvature="0" />
    <path
       d="m 1832.5239,117.03008 a 5.314961,5.314961 0 1 0 0,10.62992 5.314961,5.314961 0 1 0 0,-10.62992 z"
       style="fill:none;stroke:#000000"
       id="path8129"
       inkscape:connector-curvature="0" />
    <path
       d="m 1832.5239,944.39228 a 5.314961,5.314961 0 1 0 0,10.62992 5.314961,5.314961 0 1 0 0,-10.62992 z"
       style="fill:none;stroke:#000000"
       id="path8131"
       inkscape:connector-curvature="0" />
    <path
       d="m 815.59473,411.12457 a 5.314961,5.314961 0 1 0 0,10.62992 5.314961,5.314961 0 1 0 0,-10.62992 z"
       style="fill:none;stroke:#000000"
       id="path8133"
       inkscape:connector-curvature="0" />
    <path
       d="m 227.40576,411.12457 a 5.314961,5.314961 0 1 0 0,10.62992 5.314961,5.314961 0 1 0 0,-10.62992 z"
       style="fill:none;stroke:#000000"
       id="path8137"
       inkscape:connector-curvature="0" />
    <path
       d="m 369.13804,411.12457 a 5.314961,5.314961 0 1 0 0,10.62992 5.314961,5.314961 0 1 0 0,-10.62992 z"
       style="fill:none;stroke:#000000"
       id="path8139"
       inkscape:connector-curvature="0" />
    <path
       d="m 1708.5081,620.17969 a 5.314961,5.314961 0 1 0 0,10.62992 5.314961,5.314961 0 1 0 0,-10.62992 z"
       style="fill:none;stroke:#000000"
       id="path8141"
       inkscape:connector-curvature="0" />
    <path
       d="m 1566.7758,857.58126 a 5.314961,5.314961 0 1 0 0,10.62992 5.314961,5.314961 0 1 0 0,-10.62992 z"
       style="fill:none;stroke:#000000"
       id="path8143"
       inkscape:connector-curvature="0" />
    <path
       d="m 1566.7758,620.17969 a 5.314961,5.314961 0 1 0 0,10.62992 5.314961,5.314961 0 1 0 0,-10.62992 z"
       style="fill:none;stroke:#000000"
       id="path8145"
       inkscape:connector-curvature="0" />
    <path
       d="m 1120.3191,857.58126 a 5.314961,5.314961 0 1 0 0,10.62992 5.314961,5.314961 0 1 0 0,-10.62992 z"
       style="fill:none;stroke:#000000"
       id="path8147"
       inkscape:connector-curvature="0" />
    <path
       d="M 606.3015,92.226929 A 10.629921,10.629921 0 0 0 595.83307,104.70272"
       style="fill:none;stroke:#000000"
       id="path8149"
       inkscape:connector-curvature="0" />
    <path
       d="m 1262.0514,857.58126 a 5.314961,5.314961 0 1 0 0,10.62992 5.314961,5.314961 0 1 0 0,-10.62992 z"
       style="fill:none;stroke:#000000"
       id="path8151"
       inkscape:connector-curvature="0" />
    <path
       d="m 1120.3191,173.72299 a 5.314961,5.314961 0 1 0 0,10.62992 5.314961,5.314961 0 1 0 0,-10.62992 z"
       style="fill:none;stroke:#000000"
       id="path8153"
       inkscape:connector-curvature="0" />
    <path
       d="m 704.40872,948.0098 8.09598,45.91457"
       style="fill:none;stroke:#000000"
       id="path8157"
       inkscape:connector-curvature="0" />
    <path
       d="m 1850.2404,92.226929 0,914.173271"
       style="fill:none;stroke:#000000"
       id="path8163"
       inkscape:connector-curvature="0" />
    <path
       d="M 1674.4185,-8.6831114 A 10.629921,10.629921 0 0 0 1663.9501,-21.158901"
       style="fill:none;stroke:#000000"
       id="path8175"
       inkscape:connector-curvature="0" />
    <path
       d="m 271.96377,205.61276 328.99421,0"
       style="fill:none;stroke:#000000"
       id="path8177"
       inkscape:connector-curvature="0" />
    <path
       d="m 673.86245,411.12457 a 5.314961,5.314961 0 1 0 0,10.62992 5.314961,5.314961 0 1 0 0,-10.62992 z"
       style="fill:none;stroke:#000000"
       id="path8191"
       inkscape:connector-curvature="0" />
    <path
       d="m 673.86245,173.72299 a 5.314961,5.314961 0 1 0 0,10.62992 5.314961,5.314961 0 1 0 0,-10.62992 z"
       style="fill:none;stroke:#000000"
       id="path8193"
       inkscape:connector-curvature="0" />
    <path
       d="m 227.40576,173.72299 a 5.314961,5.314961 0 1 0 0,10.62992 5.314961,5.314961 0 1 0 0,-10.62992 z"
       style="fill:none;stroke:#000000"
       id="path8231"
       inkscape:connector-curvature="0" />
    <path
       d="m 85.67348,1006.4002 0,-914.173271"
       style="fill:none;stroke:#000000"
       id="path8235"
       inkscape:connector-curvature="0" />
    <path
       d="m 1120.3191,620.17969 a 5.314961,5.314961 0 1 0 0,10.62992 5.314961,5.314961 0 1 0 0,-10.62992 z"
       style="fill:none;stroke:#000000"
       id="path8237"
       inkscape:connector-curvature="0" />
    <path
       d="m 1074.2561,533.36867 a 5.314961,5.314961 0 1 0 0,10.62992 5.314961,5.314961 0 1 0 0,-10.62992 z"
       style="fill:none;stroke:#000000"
       id="path8241"
       inkscape:connector-curvature="0" />
    <path
       d="m 1262.0514,173.72299 a 5.314961,5.314961 0 1 0 0,10.62992 5.314961,5.314961 0 1 0 0,-10.62992 z"
       style="fill:none;stroke:#000000"
       id="path8251"
       inkscape:connector-curvature="0" />
    <path
       d="m 369.13804,620.17969 a 5.314961,5.314961 0 1 0 0,10.62992 5.314961,5.314961 0 1 0 0,-10.62992 z"
       style="fill:none;stroke:#000000"
       id="path8257"
       inkscape:connector-curvature="0" />
    <path
       d="M 714.87715,935.53402 A 10.629921,10.629921 0 0 0 704.40872,948.0098"
       style="fill:none;stroke:#000000"
       id="path8259"
       inkscape:connector-curvature="0" />
    <path
       d="m 227.40576,620.17969 a 5.314961,5.314961 0 1 0 0,10.62992 5.314961,5.314961 0 1 0 0,-10.62992 z"
       style="fill:none;stroke:#000000"
       id="path8267"
       inkscape:connector-curvature="0" />
    <path
       d="m 1669.2936,92.226929 180.9468,0"
       style="fill:none;stroke:#000000"
       id="path8269"
       inkscape:connector-curvature="0" />
    <path
       d="m 1708.5081,857.58126 a 5.314961,5.314961 0 1 0 0,10.62992 5.314961,5.314961 0 1 0 0,-10.62992 z"
       style="fill:none;stroke:#000000"
       id="path8273"
       inkscape:connector-curvature="0" />
    <path
       d="M 1674.4185,-8.6831114 1658.8252,79.751139"
       style="fill:none;stroke:#000000"
       id="path8277"
       inkscape:connector-curvature="0" />
    <path
       d="m 1334.9559,-21.158901 328.9942,0"
       style="fill:none;stroke:#000000"
       id="path8285"
       inkscape:connector-curvature="0" />
    <path
       d="M 1340.0808,79.751139 1324.4875,-8.6831114"
       style="fill:none;stroke:#000000"
       id="path8291"
       inkscape:connector-curvature="0" />
    <path
       d="m 1329.6124,92.226929 a 10.629921,10.629921 0 0 0 10.4684,-12.47579"
       style="fill:none;stroke:#000000"
       id="path8297"
       inkscape:connector-curvature="0" />
    <path
       d="m 606.3015,92.226929 723.3109,0"
       style="fill:none;stroke:#000000"
       id="path8299"
       inkscape:connector-curvature="0" />
    <path
       d="m 1334.9559,-21.158901 a 10.629921,10.629921 0 0 0 -10.4684,12.4757896"
       style="fill:none;stroke:#000000"
       id="path8301"
       inkscape:connector-curvature="0" />
    <path
       d="m 1658.8252,79.751139 a 10.629921,10.629921 0 0 0 10.4684,12.47579"
       style="fill:none;stroke:#000000"
       id="path8305"
       inkscape:connector-curvature="0" />
    <path
       d="m 277.08868,104.70272 -15.59334,88.43425"
       style="fill:none;stroke:#000000"
       id="path8309"
       inkscape:connector-curvature="0" />
    <path
       d="m 1850.2404,1006.4002 -616.3628,0"
       style="fill:none;stroke:#000000"
       id="path8313"
       inkscape:connector-curvature="0" />
    <path
       d="M 702.03627,1006.4002 A 10.629921,10.629921 0 0 0 712.5047,993.92437"
       style="fill:none;stroke:#000000"
       id="path8317"
       inkscape:connector-curvature="0" />
    <path
       d="M 611.42641,193.13697 595.83307,104.70272"
       style="fill:none;stroke:#000000"
       id="path8323"
       inkscape:connector-curvature="0" />
    <path
       d="m 815.59473,173.72299 a 5.314961,5.314961 0 1 0 0,10.62992 5.314961,5.314961 0 1 0 0,-10.62992 z"
       style="fill:none;stroke:#000000"
       id="path8325"
       inkscape:connector-curvature="0" />
    <path
       d="m 1231.5051,948.0098 a 10.629921,10.629921 0 0 0 -10.4684,-12.47578"
       style="fill:none;stroke:#000000"
       id="path8327"
       inkscape:connector-curvature="0" />
    <path
       d="m 1708.5081,411.12457 a 5.314961,5.314961 0 1 0 0,10.62992 5.314961,5.314961 0 1 0 0,-10.62992 z"
       style="fill:none;stroke:#000000"
       id="path8331"
       inkscape:connector-curvature="0" />
    <path
       d="M 277.08868,104.70272 A 10.629921,10.629921 0 0 0 266.62026,92.226929"
       style="fill:none;stroke:#000000"
       id="path8339"
       inkscape:connector-curvature="0" />
    <path
       d="m 261.49534,193.13697 a 10.629921,10.629921 0 0 0 10.46843,12.47579"
       style="fill:none;stroke:#000000"
       id="path8347"
       inkscape:connector-curvature="0" />
    <path
       d="m 702.03627,1006.4002 -616.36279,0"
       style="fill:none;stroke:#000000"
       id="path8349"
       inkscape:connector-curvature="0" />
    <path
       d="m 861.65772,533.36867 a 5.314961,5.314961 0 1 0 0,10.62992 5.314961,5.314961 0 1 0 0,-10.62992 z"
       style="fill:none;stroke:#000000"
       id="path8351"
       inkscape:connector-curvature="0" />
    <path
       d="m 1262.0514,620.17969 a 5.314961,5.314961 0 1 0 0,10.62992 5.314961,5.314961 0 1 0 0,-10.62992 z"
       style="fill:none;stroke:#000000"
       id="path8355"
       inkscape:connector-curvature="0" />
    <path
       d="m 1262.0514,411.12457 a 5.314961,5.314961 0 1 0 0,10.62992 5.314961,5.314961 0 1 0 0,-10.62992 z"
       style="fill:none;stroke:#000000"
       id="path8359"
       inkscape:connector-curvature="0" />
    <path
       d="m 600.95798,205.61276 a 10.629921,10.629921 0 0 0 10.46843,-12.47579"
       style="fill:none;stroke:#000000"
       id="path8361"
       inkscape:connector-curvature="0" />
    <path
       d="m 1120.3191,411.12457 a 5.314961,5.314961 0 1 0 0,10.62992 5.314961,5.314961 0 1 0 0,-10.62992 z"
       style="fill:none;stroke:#000000"
       id="path8363"
       inkscape:connector-curvature="0" />
    <path
       d="m 1566.7758,173.72299 a 5.314961,5.314961 0 1 0 0,10.62992 5.314961,5.314961 0 1 0 0,-10.62992 z"
       style="fill:none;stroke:#000000"
       id="path8365"
       inkscape:connector-curvature="0" />
    <path
       d="m 1566.7758,411.12457 a 5.314961,5.314961 0 1 0 0,10.62992 5.314961,5.314961 0 1 0 0,-10.62992 z"
       style="fill:none;stroke:#000000"
       id="path8367"
       inkscape:connector-curvature="0" />
    <path
       d="m 1708.5081,173.72299 a 5.314961,5.314961 0 1 0 0,10.62992 5.314961,5.314961 0 1 0 0,-10.62992 z"
       style="fill:none;stroke:#000000"
       id="path8369"
       inkscape:connector-curvature="0" />
    <path
       d="m 1223.4092,993.92437 a 10.629921,10.629921 0 0 0 10.4684,12.47583"
       style="fill:none;stroke:#000000"
       id="path8413"
       inkscape:connector-curvature="0" />
    <path
       d="m 103.39001,944.39228 a 5.314961,5.314961 0 1 0 0,10.62992 5.314961,5.314961 0 1 0 0,-10.62992 z"
       style="fill:none;stroke:#000000"
       id="path8435"
       inkscape:connector-curvature="0" />
    <path
       d="m 1221.0367,935.53402 -506.15955,0"
       style="fill:none;stroke:#000000"
       id="path8445"
       inkscape:connector-curvature="0" />
    <path
       d="m 266.62026,92.226929 -180.94678,0"
       style="fill:none;stroke:#000000"
       id="path8453"
       inkscape:connector-curvature="0" />
    <path
       d="m 1223.4092,993.92437 8.0959,-45.91457"
       style="fill:none;stroke:#000000"
       id="path8471"
       inkscape:connector-curvature="0" />
    <path
       d="m 103.39001,117.03008 a 5.314961,5.314961 0 1 0 0,10.62992 5.314961,5.314961 0 1 0 0,-10.62992 z"
       style="fill:none;stroke:#000000"
       id="path8473"
       inkscape:connector-curvature="0" />
  </g>
  <g
     inkscape:groupmode="layer"
     inkscape:label="MODELSKETCH_CONSTRUCTION"
     id="g8483"
     transform="translate(0,46.062997)" />
  <g
     inkscape:groupmode="layer"
     inkscape:label="HIDDEN_BASE_VIEW"
     id="g8485"
     transform="translate(0,46.062997)" />
  <g
     inkscape:groupmode="layer"
     inkscape:label="TANGENT_LINES"
     id="g8487"
     transform="translate(0,46.062997)" />
  <g
     inkscape:groupmode="layer"
     inkscape:label="TANGENT_HIDDEN"
     id="g8489"
     transform="translate(0,46.062997)" />
  <g
     inkscape:groupmode="layer"
     inkscape:label="INVISIBLE_LINES"
     id="g8491"
     transform="translate(0,46.062997)" />
  <g
     inkscape:groupmode="layer"
     inkscape:label="VIEW_HATCHES"
     id="g8493"
     transform="translate(0,46.062997)" />
  <g
     inkscape:groupmode="layer"
     inkscape:label="SECTION_JOG_LINES"
     id="g8495"
     transform="translate(0,46.062997)" />
</svg>
