<?xml version="1.0" encoding="UTF-8" standalone="no"?>
<svg
   xmlns:dc="http://purl.org/dc/elements/1.1/"
   xmlns:cc="http://creativecommons.org/ns#"
   xmlns:rdf="http://www.w3.org/1999/02/22-rdf-syntax-ns#"
   xmlns:svg="http://www.w3.org/2000/svg"
   xmlns="http://www.w3.org/2000/svg"
   xmlns:sodipodi="http://sodipodi.sourceforge.net/DTD/sodipodi-0.dtd"
   xmlns:inkscape="http://www.inkscape.org/namespaces/inkscape"
   width="550mm"
   height="310mm"
   id="svg9091"
   version="1.1"
   inkscape:version="0.91 r13725"
   sodipodi:docname="Pohjake1_3.svg">
  <metadata
     id="metadata9617">
    <rdf:RDF>
      <cc:Work
         rdf:about="">
        <dc:format>image/svg+xml</dc:format>
        <dc:type
           rdf:resource="http://purl.org/dc/dcmitype/StillImage" />
        <dc:title></dc:title>
      </cc:Work>
    </rdf:RDF>
  </metadata>
  <sodipodi:namedview
     pagecolor="#ffffff"
     bordercolor="#666666"
     borderopacity="1"
     objecttolerance="10"
     gridtolerance="10"
     guidetolerance="10"
     inkscape:pageopacity="0"
     inkscape:pageshadow="2"
     inkscape:window-width="1627"
     inkscape:window-height="988"
     id="namedview9615"
     showgrid="false"
     units="mm"
     inkscape:zoom="0.34251813"
     inkscape:cx="925.04584"
     inkscape:cy="484.28943"
     inkscape:window-x="0"
     inkscape:window-y="24"
     inkscape:window-maximized="0"
     inkscape:current-layer="g9165" />
  <desc
     id="desc9093">/home/paja/Downloads/Pohjake1(1).dxf - scale = 1.000000, origin = (0.000000, 0.000000), auto = False</desc>
  <defs
     id="defs9095">
    <marker
       id="DistanceX"
       orient="auto"
       refX="0"
       refY="0"
       style="overflow:visible">
      <path
         d="M 3,-3 -3,3 M 0,-5 0,5"
         style="stroke:#000000;stroke-width:0.5"
         id="path9098"
         inkscape:connector-curvature="0" />
    </marker>
    <pattern
       height="8"
       id="Hatch"
       patternUnits="userSpaceOnUse"
       width="8"
       x="0"
       y="0">
      <path
         d="M8 4 l-4,4"
         linecap="square"
         stroke="#000000"
         stroke-width="0.25"
         id="path9101" />
      <path
         d="M6 2 l-4,4"
         linecap="square"
         stroke="#000000"
         stroke-width="0.25"
         id="path9103" />
      <path
         d="M4 0 l-4,4"
         linecap="square"
         stroke="#000000"
         stroke-width="0.25"
         id="path9105" />
    </pattern>
    <symbol
       id="*MODEL_SPACE" />
    <symbol
       id="*PAPER_SPACE" />
  </defs>
  <g
     inkscape:groupmode="layer"
     inkscape:label="0"
     id="g9109"
     transform="translate(0,46.06297)" />
  <g
     inkscape:groupmode="layer"
     inkscape:label="SECTION_CUTTING_LINE"
     id="g9111"
     transform="translate(0,46.06297)" />
  <g
     inkscape:groupmode="layer"
     inkscape:label="DETAIL_VIEW_BORDER"
     id="g9113"
     transform="translate(0,46.06297)" />
  <g
     inkscape:groupmode="layer"
     inkscape:label="DETAIL_VIEW_PARENT_BORDER"
     id="g9115"
     transform="translate(0,46.06297)" />
  <g
     inkscape:groupmode="layer"
     inkscape:label="TEXT"
     id="g9117"
     transform="translate(0,46.06297)" />
  <g
     inkscape:groupmode="layer"
     inkscape:label="SKETCHED_GEOMETRY"
     id="g9119"
     transform="translate(0,46.06297)" />
  <g
     inkscape:groupmode="layer"
     inkscape:label="VIRTUAL_SHARPS"
     id="g9121"
     transform="translate(0,46.06297)" />
  <g
     inkscape:groupmode="layer"
     inkscape:label="CENTERLINES"
     id="g9123"
     transform="translate(0,46.06297)" />
  <g
     inkscape:groupmode="layer"
     inkscape:label="CENTERMARKS"
     id="g9125"
     transform="translate(0,46.06297)" />
  <g
     inkscape:groupmode="layer"
     inkscape:label="TABLES"
     id="g9127"
     transform="translate(0,46.06297)" />
  <g
     inkscape:groupmode="layer"
     inkscape:label="IMAGES"
     id="g9129"
     transform="translate(0,46.06297)" />
  <g
     inkscape:groupmode="layer"
     inkscape:label="ANNOTATION_LINES"
     id="g9131"
     transform="translate(0,46.06297)" />
  <g
     inkscape:groupmode="layer"
     inkscape:label="ANNOTATION_TEXT"
     id="g9133"
     transform="translate(0,46.06297)" />
  <g
     inkscape:groupmode="layer"
     inkscape:label="SIDE_THREAD_SYMBOLS"
     id="g9135"
     transform="translate(0,46.06297)" />
  <g
     inkscape:groupmode="layer"
     inkscape:label="SIDE_THREAD_SYMBOLS_HIDDEN"
     id="g9137"
     transform="translate(0,46.06297)" />
  <g
     inkscape:groupmode="layer"
     inkscape:label="SURFACE_THREAD_SYMBOLS"
     id="g9139"
     transform="translate(0,46.06297)" />
  <g
     inkscape:groupmode="layer"
     inkscape:label="SURFACE_THREAD_SYMBOLS_ON_"
     id="g9141"
     transform="translate(0,46.06297)" />
  <g
     inkscape:groupmode="layer"
     inkscape:label="SURFACE_THREAD_SYMBOLS_HID"
     id="g9143"
     transform="translate(0,46.06297)" />
  <g
     inkscape:groupmode="layer"
     inkscape:label="BLIND_THREAD_SYMBOLS"
     id="g9145"
     transform="translate(0,46.06297)" />
  <g
     inkscape:groupmode="layer"
     inkscape:label="BLIND_THREAD_SYMBOLS_HIDDE"
     id="g9147"
     transform="translate(0,46.06297)" />
  <g
     inkscape:groupmode="layer"
     inkscape:label="EXPLODE_LINES"
     id="g9149"
     transform="translate(0,46.06297)" />
  <g
     inkscape:groupmode="layer"
     inkscape:label="BREAK_LINES"
     id="g9151"
     transform="translate(0,46.06297)" />
  <g
     inkscape:groupmode="layer"
     inkscape:label="SHEETMETAL_BEND_LINES_UP"
     id="g9153"
     transform="translate(0,46.06297)" />
  <g
     inkscape:groupmode="layer"
     inkscape:label="SHEETMETAL_BEND_LINES_DOWN"
     id="g9155"
     transform="translate(0,46.06297)" />
  <g
     inkscape:groupmode="layer"
     inkscape:label="SHEETMETAL_BEND_TANGENT_LI"
     id="g9157"
     transform="translate(0,46.06297)" />
  <g
     inkscape:groupmode="layer"
     inkscape:label="SHEETMETAL_CUT_LINES"
     id="g9159"
     transform="translate(0,46.06297)" />
  <g
     inkscape:groupmode="layer"
     inkscape:label="HIDDEN"
     id="g9161"
     transform="translate(0,46.06297)" />
  <g
     inkscape:groupmode="layer"
     inkscape:label="VISIBLE"
     id="g9163"
     transform="translate(0,46.06297)" />
  <g
     inkscape:groupmode="layer"
     inkscape:label="MODELSKETCH_VISIBLE"
     id="g9165"
     transform="translate(0,46.06297)">
    <path
       d="m 1791.2102,46.345386 a 5.314961,5.314961 0 1 0 0,10.6299 5.314961,5.314961 0 1 0 0,-10.6299 z"
       style="fill:none;stroke:#000000"
       id="path9243"
       inkscape:connector-curvature="0" />
    <path
       d="m 1791.2102,873.70755 a 5.314961,5.314961 0 1 0 0,10.62992 5.314961,5.314961 0 1 0 0,-10.62992 z"
       style="fill:none;stroke:#000000"
       id="path9245"
       inkscape:connector-curvature="0" />
    <path
       d="m 327.82431,990.63668 a 5.314961,5.314961 0 1 0 0,10.62992 5.314961,5.314961 0 1 0 0,-10.62992 z"
       style="fill:none;stroke:#000000"
       id="path9253"
       inkscape:connector-curvature="0" />
    <path
       d="m 564.98777,909.14062 a 10.629921,10.629921 0 0 0 -10.46843,12.47579"
       style="fill:none;stroke:#000000"
       id="path9267"
       inkscape:connector-curvature="0" />
    <path
       d="m 1633.1048,808.23058 a 10.629921,10.629921 0 0 0 -10.4684,-12.47579"
       style="fill:none;stroke:#000000"
       id="path9293"
       inkscape:connector-curvature="0" />
    <path
       d="m 230.65004,1022.5264 328.99421,0"
       style="fill:none;stroke:#000000"
       id="path9295"
       inkscape:connector-curvature="0" />
    <path
       d="m 820.34399,457.36896 a 5.314965,5.314965 0 1 0 0,10.62993 5.314965,5.314965 0 0 0 0,-10.62993 z"
       style="fill:none;stroke:#000000"
       id="path9303"
       inkscape:connector-curvature="0" />
    <path
       d="m 44.359745,909.14062 0,-914.1732342"
       style="fill:none;stroke:#000000"
       id="path9331"
       inkscape:connector-curvature="0" />
    <path
       d="m 774.281,97.723286 a 5.314961,5.314961 0 1 0 0,10.629904 5.314961,5.314961 0 1 0 0,-10.629904 z"
       style="fill:none;stroke:#000000"
       id="path9333"
       inkscape:connector-curvature="0" />
    <path
       d="m 186.09203,781.58156 a 5.314965,5.314965 0 1 0 0,10.62993 5.314965,5.314965 0 0 0 0,-10.62993 z"
       style="fill:none;stroke:#000000"
       id="path9341"
       inkscape:connector-curvature="0" />
    <path
       d="m 1808.9267,-5.0326142 0,914.1732342"
       style="fill:none;stroke:#000000"
       id="path9357"
       inkscape:connector-curvature="0" />
    <path
       d="m 1525.4621,544.17999 a 5.314961,5.314961 0 1 0 0,10.62992 5.314961,5.314961 0 1 0 0,-10.62992 z"
       style="fill:none;stroke:#000000"
       id="path9365"
       inkscape:connector-curvature="0" />
    <path
       d="m 660.72254,-5.0326142 -616.362795,0"
       style="fill:none;stroke:#000000"
       id="path9379"
       inkscape:connector-curvature="0" />
    <path
       d="m 671.19097,7.4431858 a 10.629921,10.629921 0 0 0 -10.46843,-12.4758"
       style="fill:none;stroke:#000000"
       id="path9383"
       inkscape:connector-curvature="0" />
    <path
       d="m 1627.9799,909.14062 180.9468,0"
       style="fill:none;stroke:#000000"
       id="path9387"
       inkscape:connector-curvature="0" />
    <path
       d="m 62.076275,46.345386 a 5.314961,5.314961 0 1 0 0,10.6299 5.314961,5.314961 0 1 0 0,-10.6299 z"
       style="fill:none;stroke:#000000"
       id="path9389"
       inkscape:connector-curvature="0" />
    <path
       d="m 663.09499,53.357786 a 10.629921,10.629921 0 0 0 10.46843,12.4757"
       style="fill:none;stroke:#000000"
       id="path9393"
       inkscape:connector-curvature="0" />
    <path
       d="m 1633.1048,808.23058 -15.5933,88.43425"
       style="fill:none;stroke:#000000"
       id="path9395"
       inkscape:connector-curvature="0" />
    <path
       d="m 1179.723,65.833486 a 10.629921,10.629921 0 0 0 10.4684,-12.4757"
       style="fill:none;stroke:#000000"
       id="path9399"
       inkscape:connector-curvature="0" />
    <path
       d="m 632.54872,781.58156 a 5.314965,5.314965 0 1 0 0,10.62993 5.314965,5.314965 0 0 0 0,-10.62993 z"
       style="fill:none;stroke:#000000"
       id="path9401"
       inkscape:connector-curvature="0" />
    <path
       d="m 1293.6422,795.75479 328.9942,0"
       style="fill:none;stroke:#000000"
       id="path9403"
       inkscape:connector-curvature="0" />
    <path
       d="m 1192.5639,-5.0326142 a 10.629921,10.629921 0 0 0 -10.4685,12.4758"
       style="fill:none;stroke:#000000"
       id="path9407"
       inkscape:connector-curvature="0" />
    <path
       d="m 1298.7671,896.66483 -15.5934,-88.43425"
       style="fill:none;stroke:#000000"
       id="path9409"
       inkscape:connector-curvature="0" />
    <path
       d="m 1288.2986,909.14062 a 10.629921,10.629921 0 0 0 10.4685,-12.47579"
       style="fill:none;stroke:#000000"
       id="path9415"
       inkscape:connector-curvature="0" />
    <path
       d="m 564.98777,909.14062 723.31083,0"
       style="fill:none;stroke:#000000"
       id="path9417"
       inkscape:connector-curvature="0" />
    <path
       d="m 1293.6422,795.75479 a 10.629921,10.629921 0 0 0 -10.4685,12.47579"
       style="fill:none;stroke:#000000"
       id="path9419"
       inkscape:connector-curvature="0" />
    <path
       d="m 186.09203,97.723286 a 5.314961,5.314961 0 1 0 0,10.629904 5.314961,5.314961 0 1 0 0,-10.629904 z"
       style="fill:none;stroke:#000000"
       id="path9421"
       inkscape:connector-curvature="0" />
    <path
       d="m 1617.5115,896.66483 a 10.629921,10.629921 0 0 0 10.4684,12.47579"
       style="fill:none;stroke:#000000"
       id="path9423"
       inkscape:connector-curvature="0" />
    <path
       d="m 235.77495,921.61641 -15.59334,88.43429"
       style="fill:none;stroke:#000000"
       id="path9427"
       inkscape:connector-curvature="0" />
    <path
       d="m 1220.7377,97.723286 a 5.314961,5.314961 0 1 0 0,10.629904 5.314961,5.314961 0 1 0 0,-10.629904 z"
       style="fill:none;stroke:#000000"
       id="path9437"
       inkscape:connector-curvature="0" />
    <path
       d="M 663.09499,53.357786 671.19097,7.4431858"
       style="fill:none;stroke:#000000"
       id="path9439"
       inkscape:connector-curvature="0" />
    <path
       d="M 570.11268,1010.0507 554.51934,921.61641"
       style="fill:none;stroke:#000000"
       id="path9441"
       inkscape:connector-curvature="0" />
    <path
       d="M 235.77495,921.61641 A 10.629921,10.629921 0 0 0 225.30653,909.14062"
       style="fill:none;stroke:#000000"
       id="path9457"
       inkscape:connector-curvature="0" />
    <path
       d="m 1032.9424,457.36896 a 5.314965,5.314965 0 1 0 0,10.62993 5.314965,5.314965 0 0 0 0,-10.62993 z"
       style="fill:none;stroke:#000000"
       id="path9459"
       inkscape:connector-curvature="0" />
    <path
       d="m 1808.9267,-5.0326142 -616.3628,0"
       style="fill:none;stroke:#000000"
       id="path9461"
       inkscape:connector-curvature="0" />
    <path
       d="m 220.18161,1010.0507 a 10.629921,10.629921 0 0 0 10.46843,12.4757"
       style="fill:none;stroke:#000000"
       id="path9465"
       inkscape:connector-curvature="0" />
    <path
       d="m 559.64425,1022.5264 a 10.629921,10.629921 0 0 0 10.46843,-12.4757"
       style="fill:none;stroke:#000000"
       id="path9479"
       inkscape:connector-curvature="0" />
    <path
       d="m 186.09203,544.17999 a 5.314961,5.314961 0 1 0 0,10.62992 5.314961,5.314961 0 1 0 0,-10.62992 z"
       style="fill:none;stroke:#000000"
       id="path9489"
       inkscape:connector-curvature="0" />
    <path
       d="m 327.82431,781.58156 a 5.314965,5.314965 0 1 0 0,10.62993 5.314965,5.314965 0 0 0 0,-10.62993 z"
       style="fill:none;stroke:#000000"
       id="path9491"
       inkscape:connector-curvature="0" />
    <path
       d="m 327.82431,544.17999 a 5.314961,5.314961 0 1 0 0,10.62992 5.314961,5.314961 0 1 0 0,-10.62992 z"
       style="fill:none;stroke:#000000"
       id="path9493"
       inkscape:connector-curvature="0" />
    <path
       d="m 632.54872,544.17999 a 5.314961,5.314961 0 1 0 0,10.62992 5.314961,5.314961 0 1 0 0,-10.62992 z"
       style="fill:none;stroke:#000000"
       id="path9495"
       inkscape:connector-curvature="0" />
    <path
       d="m 774.281,781.58156 a 5.314965,5.314965 0 1 0 0,10.62993 5.314965,5.314965 0 0 0 0,-10.62993 z"
       style="fill:none;stroke:#000000"
       id="path9497"
       inkscape:connector-curvature="0" />
    <path
       d="m 774.281,544.17999 a 5.314961,5.314961 0 1 0 0,10.62992 5.314961,5.314961 0 1 0 0,-10.62992 z"
       style="fill:none;stroke:#000000"
       id="path9499"
       inkscape:connector-curvature="0" />
    <path
       d="m 1079.0054,544.17999 a 5.314961,5.314961 0 1 0 0,10.62992 5.314961,5.314961 0 1 0 0,-10.62992 z"
       style="fill:none;stroke:#000000"
       id="path9501"
       inkscape:connector-curvature="0" />
    <path
       d="m 1220.7377,781.58156 a 5.314965,5.314965 0 1 0 0,10.62993 5.314965,5.314965 0 0 0 0,-10.62993 z"
       style="fill:none;stroke:#000000"
       id="path9503"
       inkscape:connector-curvature="0" />
    <path
       d="m 1079.0054,781.58156 a 5.314965,5.314965 0 1 0 0,10.62993 5.314965,5.314965 0 0 0 0,-10.62993 z"
       style="fill:none;stroke:#000000"
       id="path9505"
       inkscape:connector-curvature="0" />
    <path
       d="m 1220.7377,544.17999 a 5.314961,5.314961 0 1 0 0,10.62992 5.314961,5.314961 0 1 0 0,-10.62992 z"
       style="fill:none;stroke:#000000"
       id="path9507"
       inkscape:connector-curvature="0" />
    <path
       d="m 1667.1944,781.58156 a 5.314965,5.314965 0 1 0 0,10.62993 5.314965,5.314965 0 0 0 0,-10.62993 z"
       style="fill:none;stroke:#000000"
       id="path9509"
       inkscape:connector-curvature="0" />
    <path
       d="m 1179.723,65.833486 -506.15958,0"
       style="fill:none;stroke:#000000"
       id="path9511"
       inkscape:connector-curvature="0" />
    <path
       d="m 1525.4621,781.58156 a 5.314965,5.314965 0 1 0 0,10.62993 5.314965,5.314965 0 0 0 0,-10.62993 z"
       style="fill:none;stroke:#000000"
       id="path9513"
       inkscape:connector-curvature="0" />
    <path
       d="m 1667.1944,544.17999 a 5.314961,5.314961 0 1 0 0,10.62992 5.314961,5.314961 0 1 0 0,-10.62992 z"
       style="fill:none;stroke:#000000"
       id="path9515"
       inkscape:connector-curvature="0" />
    <path
       d="m 327.82431,335.12489 a 5.314961,5.314961 0 1 0 0,10.6299 5.314961,5.314961 0 1 0 0,-10.6299 z"
       style="fill:none;stroke:#000000"
       id="path9517"
       inkscape:connector-curvature="0" />
    <path
       d="m 186.09203,335.12489 a 5.314961,5.314961 0 1 0 0,10.6299 5.314961,5.314961 0 1 0 0,-10.6299 z"
       style="fill:none;stroke:#000000"
       id="path9519"
       inkscape:connector-curvature="0" />
    <path
       d="m 327.82431,97.723286 a 5.314961,5.314961 0 1 0 0,10.629904 5.314961,5.314961 0 1 0 0,-10.629904 z"
       style="fill:none;stroke:#000000"
       id="path9521"
       inkscape:connector-curvature="0" />
    <path
       d="m 632.54872,97.723286 a 5.314961,5.314961 0 1 0 0,10.629904 5.314961,5.314961 0 1 0 0,-10.629904 z"
       style="fill:none;stroke:#000000"
       id="path9523"
       inkscape:connector-curvature="0" />
    <path
       d="m 774.281,335.12489 a 5.314961,5.314961 0 1 0 0,10.6299 5.314961,5.314961 0 1 0 0,-10.6299 z"
       style="fill:none;stroke:#000000"
       id="path9525"
       inkscape:connector-curvature="0" />
    <path
       d="m 632.54872,335.12489 a 5.314961,5.314961 0 1 0 0,10.6299 5.314961,5.314961 0 1 0 0,-10.6299 z"
       style="fill:none;stroke:#000000"
       id="path9527"
       inkscape:connector-curvature="0" />
    <path
       d="m 1079.0054,97.723286 a 5.314961,5.314961 0 1 0 0,10.629904 5.314961,5.314961 0 1 0 0,-10.629904 z"
       style="fill:none;stroke:#000000"
       id="path9529"
       inkscape:connector-curvature="0" />
    <path
       d="m 1220.7377,335.12489 a 5.314961,5.314961 0 1 0 0,10.6299 5.314961,5.314961 0 1 0 0,-10.6299 z"
       style="fill:none;stroke:#000000"
       id="path9533"
       inkscape:connector-curvature="0" />
    <path
       d="m 1079.0054,335.12489 a 5.314961,5.314961 0 1 0 0,10.6299 5.314961,5.314961 0 1 0 0,-10.6299 z"
       style="fill:none;stroke:#000000"
       id="path9537"
       inkscape:connector-curvature="0" />
    <path
       d="m 1525.4621,97.723286 a 5.314961,5.314961 0 1 0 0,10.629904 5.314961,5.314961 0 1 0 0,-10.629904 z"
       style="fill:none;stroke:#000000"
       id="path9541"
       inkscape:connector-curvature="0" />
    <path
       d="m 1667.1944,335.12489 a 5.314961,5.314961 0 1 0 0,10.6299 5.314961,5.314961 0 1 0 0,-10.6299 z"
       style="fill:none;stroke:#000000"
       id="path9543"
       inkscape:connector-curvature="0" />
    <path
       d="m 1525.4621,335.12489 a 5.314961,5.314961 0 1 0 0,10.6299 5.314961,5.314961 0 1 0 0,-10.6299 z"
       style="fill:none;stroke:#000000"
       id="path9545"
       inkscape:connector-curvature="0" />
    <path
       d="m 1667.1944,97.723286 a 5.314961,5.314961 0 1 0 0,10.629904 5.314961,5.314961 0 1 0 0,-10.629904 z"
       style="fill:none;stroke:#000000"
       id="path9549"
       inkscape:connector-curvature="0" />
    <path
       d="m 62.076275,873.70755 a 5.314961,5.314961 0 1 0 0,10.62992 5.314961,5.314961 0 1 0 0,-10.62992 z"
       style="fill:none;stroke:#000000"
       id="path9561"
       inkscape:connector-curvature="0" />
    <path
       d="m 225.30653,909.14062 -180.946785,0"
       style="fill:none;stroke:#000000"
       id="path9571"
       inkscape:connector-curvature="0" />
    <path
       d="m 1182.0954,7.4431858 8.096,45.9146002"
       style="fill:none;stroke:#000000"
       id="path9597"
       inkscape:connector-curvature="0" />
  </g>
  <g
     inkscape:groupmode="layer"
     inkscape:label="MODELSKETCH_CONSTRUCTION"
     id="g9601"
     transform="translate(0,46.06297)" />
  <g
     inkscape:groupmode="layer"
     inkscape:label="HIDDEN_BASE_VIEW"
     id="g9603"
     transform="translate(0,46.06297)" />
  <g
     inkscape:groupmode="layer"
     inkscape:label="TANGENT_LINES"
     id="g9605"
     transform="translate(0,46.06297)" />
  <g
     inkscape:groupmode="layer"
     inkscape:label="TANGENT_HIDDEN"
     id="g9607"
     transform="translate(0,46.06297)" />
  <g
     inkscape:groupmode="layer"
     inkscape:label="INVISIBLE_LINES"
     id="g9609"
     transform="translate(0,46.06297)" />
  <g
     inkscape:groupmode="layer"
     inkscape:label="VIEW_HATCHES"
     id="g9611"
     transform="translate(0,46.06297)" />
  <g
     inkscape:groupmode="layer"
     inkscape:label="SECTION_JOG_LINES"
     id="g9613"
     transform="translate(0,46.06297)" />
</svg>
