<?xml version="1.0" encoding="UTF-8" standalone="no"?>
<svg
   xmlns:dc="http://purl.org/dc/elements/1.1/"
   xmlns:cc="http://creativecommons.org/ns#"
   xmlns:rdf="http://www.w3.org/1999/02/22-rdf-syntax-ns#"
   xmlns:svg="http://www.w3.org/2000/svg"
   xmlns="http://www.w3.org/2000/svg"
   xmlns:sodipodi="http://sodipodi.sourceforge.net/DTD/sodipodi-0.dtd"
   xmlns:inkscape="http://www.inkscape.org/namespaces/inkscape"
   width="550mm"
   height="310mm"
   id="svg6855"
   version="1.1"
   inkscape:version="0.91 r13725"
   sodipodi:docname="Pohjake1_1.svg">
  <metadata
     id="metadata7381">
    <rdf:RDF>
      <cc:Work
         rdf:about="">
        <dc:format>image/svg+xml</dc:format>
        <dc:type
           rdf:resource="http://purl.org/dc/dcmitype/StillImage" />
        <dc:title></dc:title>
      </cc:Work>
    </rdf:RDF>
  </metadata>
  <sodipodi:namedview
     pagecolor="#ffffff"
     bordercolor="#666666"
     borderopacity="1"
     objecttolerance="10"
     gridtolerance="10"
     guidetolerance="10"
     inkscape:pageopacity="0"
     inkscape:pageshadow="2"
     inkscape:window-width="1632"
     inkscape:window-height="916"
     id="namedview7379"
     showgrid="false"
     units="mm"
     inkscape:zoom="0.43979487"
     inkscape:cx="715.79481"
     inkscape:cy="578.91205"
     inkscape:window-x="0"
     inkscape:window-y="24"
     inkscape:window-maximized="0"
     inkscape:current-layer="g6929" />
  <desc
     id="desc6857">/home/paja/Downloads/Pohjake1(1).dxf - scale = 1.000000, origin = (0.000000, 0.000000), auto = False</desc>
  <defs
     id="defs6859">
    <marker
       id="DistanceX"
       orient="auto"
       refX="0"
       refY="0"
       style="overflow:visible">
      <path
         d="M 3,-3 -3,3 M 0,-5 0,5"
         style="stroke:#000000;stroke-width:0.5"
         id="path6862"
         inkscape:connector-curvature="0" />
    </marker>
    <pattern
       height="8"
       id="Hatch"
       patternUnits="userSpaceOnUse"
       width="8"
       x="0"
       y="0">
      <path
         d="M8 4 l-4,4"
         linecap="square"
         stroke="#000000"
         stroke-width="0.25"
         id="path6865" />
      <path
         d="M6 2 l-4,4"
         linecap="square"
         stroke="#000000"
         stroke-width="0.25"
         id="path6867" />
      <path
         d="M4 0 l-4,4"
         linecap="square"
         stroke="#000000"
         stroke-width="0.25"
         id="path6869" />
    </pattern>
    <symbol
       id="*MODEL_SPACE" />
    <symbol
       id="*PAPER_SPACE" />
  </defs>
  <g
     inkscape:groupmode="layer"
     inkscape:label="0"
     id="g6873"
     transform="translate(0,46.062926)" />
  <g
     inkscape:groupmode="layer"
     inkscape:label="SECTION_CUTTING_LINE"
     id="g6875"
     transform="translate(0,46.062926)" />
  <g
     inkscape:groupmode="layer"
     inkscape:label="DETAIL_VIEW_BORDER"
     id="g6877"
     transform="translate(0,46.062926)" />
  <g
     inkscape:groupmode="layer"
     inkscape:label="DETAIL_VIEW_PARENT_BORDER"
     id="g6879"
     transform="translate(0,46.062926)" />
  <g
     inkscape:groupmode="layer"
     inkscape:label="TEXT"
     id="g6881"
     transform="translate(0,46.062926)" />
  <g
     inkscape:groupmode="layer"
     inkscape:label="SKETCHED_GEOMETRY"
     id="g6883"
     transform="translate(0,46.062926)" />
  <g
     inkscape:groupmode="layer"
     inkscape:label="VIRTUAL_SHARPS"
     id="g6885"
     transform="translate(0,46.062926)" />
  <g
     inkscape:groupmode="layer"
     inkscape:label="CENTERLINES"
     id="g6887"
     transform="translate(0,46.062926)" />
  <g
     inkscape:groupmode="layer"
     inkscape:label="CENTERMARKS"
     id="g6889"
     transform="translate(0,46.062926)" />
  <g
     inkscape:groupmode="layer"
     inkscape:label="TABLES"
     id="g6891"
     transform="translate(0,46.062926)" />
  <g
     inkscape:groupmode="layer"
     inkscape:label="IMAGES"
     id="g6893"
     transform="translate(0,46.062926)" />
  <g
     inkscape:groupmode="layer"
     inkscape:label="ANNOTATION_LINES"
     id="g6895"
     transform="translate(0,46.062926)" />
  <g
     inkscape:groupmode="layer"
     inkscape:label="ANNOTATION_TEXT"
     id="g6897"
     transform="translate(0,46.062926)" />
  <g
     inkscape:groupmode="layer"
     inkscape:label="SIDE_THREAD_SYMBOLS"
     id="g6899"
     transform="translate(0,46.062926)" />
  <g
     inkscape:groupmode="layer"
     inkscape:label="SIDE_THREAD_SYMBOLS_HIDDEN"
     id="g6901"
     transform="translate(0,46.062926)" />
  <g
     inkscape:groupmode="layer"
     inkscape:label="SURFACE_THREAD_SYMBOLS"
     id="g6903"
     transform="translate(0,46.062926)" />
  <g
     inkscape:groupmode="layer"
     inkscape:label="SURFACE_THREAD_SYMBOLS_ON_"
     id="g6905"
     transform="translate(0,46.062926)" />
  <g
     inkscape:groupmode="layer"
     inkscape:label="SURFACE_THREAD_SYMBOLS_HID"
     id="g6907"
     transform="translate(0,46.062926)" />
  <g
     inkscape:groupmode="layer"
     inkscape:label="BLIND_THREAD_SYMBOLS"
     id="g6909"
     transform="translate(0,46.062926)" />
  <g
     inkscape:groupmode="layer"
     inkscape:label="BLIND_THREAD_SYMBOLS_HIDDE"
     id="g6911"
     transform="translate(0,46.062926)" />
  <g
     inkscape:groupmode="layer"
     inkscape:label="EXPLODE_LINES"
     id="g6913"
     transform="translate(0,46.062926)" />
  <g
     inkscape:groupmode="layer"
     inkscape:label="BREAK_LINES"
     id="g6915"
     transform="translate(0,46.062926)" />
  <g
     inkscape:groupmode="layer"
     inkscape:label="SHEETMETAL_BEND_LINES_UP"
     id="g6917"
     transform="translate(0,46.062926)" />
  <g
     inkscape:groupmode="layer"
     inkscape:label="SHEETMETAL_BEND_LINES_DOWN"
     id="g6919"
     transform="translate(0,46.062926)" />
  <g
     inkscape:groupmode="layer"
     inkscape:label="SHEETMETAL_BEND_TANGENT_LI"
     id="g6921"
     transform="translate(0,46.062926)" />
  <g
     inkscape:groupmode="layer"
     inkscape:label="SHEETMETAL_CUT_LINES"
     id="g6923"
     transform="translate(0,46.062926)" />
  <g
     inkscape:groupmode="layer"
     inkscape:label="HIDDEN"
     id="g6925"
     transform="translate(0,46.062926)" />
  <g
     inkscape:groupmode="layer"
     inkscape:label="VISIBLE"
     id="g6927"
     transform="translate(0,46.062926)" />
  <g
     inkscape:groupmode="layer"
     inkscape:label="MODELSKETCH_VISIBLE"
     id="g6929"
     transform="translate(0,46.062926)">
    <path
       d="m 1733.4779,98.006043 a 5.314961,5.314961 0 1 0 0,10.629917 5.314961,5.314961 0 1 0 0,-10.629917 z"
       style="fill:none;stroke:#000000"
       id="path6943"
       inkscape:connector-curvature="0" />
    <path
       d="m 1591.7456,335.40761 a 5.314961,5.314961 0 1 0 0,10.62992 5.314961,5.314961 0 1 0 0,-10.62992 z"
       style="fill:none;stroke:#000000"
       id="path6945"
       inkscape:connector-curvature="0" />
    <path
       d="m 1733.4779,335.40761 a 5.314961,5.314961 0 1 0 0,10.62992 5.314961,5.314961 0 1 0 0,-10.62992 z"
       style="fill:none;stroke:#000000"
       id="path6947"
       inkscape:connector-curvature="0" />
    <path
       d="m 1591.7456,98.006043 a 5.314961,5.314961 0 1 0 0,10.629917 5.314961,5.314961 0 1 0 0,-10.629917 z"
       style="fill:none;stroke:#000000"
       id="path6949"
       inkscape:connector-curvature="0" />
    <path
       d="m 1287.0212,98.006043 a 5.314961,5.314961 0 1 0 0,10.629917 5.314961,5.314961 0 1 0 0,-10.629917 z"
       style="fill:none;stroke:#000000"
       id="path6951"
       inkscape:connector-curvature="0" />
    <path
       d="m 1145.2889,335.40761 a 5.314961,5.314961 0 1 0 0,10.62992 5.314961,5.314961 0 1 0 0,-10.62992 z"
       style="fill:none;stroke:#000000"
       id="path6953"
       inkscape:connector-curvature="0" />
    <path
       d="m 1287.0212,335.40761 a 5.314961,5.314961 0 1 0 0,10.62992 5.314961,5.314961 0 1 0 0,-10.62992 z"
       style="fill:none;stroke:#000000"
       id="path6955"
       inkscape:connector-curvature="0" />
    <path
       d="m 1145.2889,98.006043 a 5.314961,5.314961 0 1 0 0,10.629917 5.314961,5.314961 0 1 0 0,-10.629917 z"
       style="fill:none;stroke:#000000"
       id="path6957"
       inkscape:connector-curvature="0" />
    <path
       d="m 840.56456,98.006043 a 5.314961,5.314961 0 1 0 0,10.629917 5.314961,5.314961 0 1 0 0,-10.629917 z"
       style="fill:none;stroke:#000000"
       id="path6959"
       inkscape:connector-curvature="0" />
    <path
       d="m 698.83226,335.40761 a 5.314961,5.314961 0 1 0 0,10.62992 5.314961,5.314961 0 1 0 0,-10.62992 z"
       style="fill:none;stroke:#000000"
       id="path6961"
       inkscape:connector-curvature="0" />
    <path
       d="m 698.83226,98.006043 a 5.314961,5.314961 0 1 0 0,10.629917 5.314961,5.314961 0 1 0 0,-10.629917 z"
       style="fill:none;stroke:#000000"
       id="path6963"
       inkscape:connector-curvature="0" />
    <path
       d="m 394.10786,98.006043 a 5.314961,5.314961 0 1 0 0,10.629917 5.314961,5.314961 0 1 0 0,-10.629917 z"
       style="fill:none;stroke:#000000"
       id="path6965"
       inkscape:connector-curvature="0" />
    <path
       d="m 252.37556,335.40761 a 5.314961,5.314961 0 1 0 0,10.62992 5.314961,5.314961 0 1 0 0,-10.62992 z"
       style="fill:none;stroke:#000000"
       id="path6967"
       inkscape:connector-curvature="0" />
    <path
       d="m 394.10786,335.40761 a 5.314961,5.314961 0 1 0 0,10.62992 5.314961,5.314961 0 1 0 0,-10.62992 z"
       style="fill:none;stroke:#000000"
       id="path6969"
       inkscape:connector-curvature="0" />
    <path
       d="m 252.37556,98.006043 a 5.314961,5.314961 0 1 0 0,10.629917 5.314961,5.314961 0 1 0 0,-10.629917 z"
       style="fill:none;stroke:#000000"
       id="path6971"
       inkscape:connector-curvature="0" />
    <path
       d="m 1591.7456,781.86426 a 5.315,5.315 0 1 0 0,10.63 5.315,5.315 0 0 0 0,-10.63 z"
       style="fill:none;stroke:#000000"
       id="path6973"
       inkscape:connector-curvature="0" />
    <path
       d="m 1733.4779,781.86426 a 5.315,5.315 0 1 0 0,10.63 5.315,5.315 0 0 0 0,-10.63 z"
       style="fill:none;stroke:#000000"
       id="path6975"
       inkscape:connector-curvature="0" />
    <path
       d="m 1287.0212,544.46273 a 5.314961,5.314961 0 1 0 0,10.62992 5.314961,5.314961 0 1 0 0,-10.62992 z"
       style="fill:none;stroke:#000000"
       id="path6977"
       inkscape:connector-curvature="0" />
    <path
       d="m 1287.0212,781.86426 a 5.315,5.315 0 1 0 0,10.63 5.315,5.315 0 0 0 0,-10.63 z"
       style="fill:none;stroke:#000000"
       id="path6979"
       inkscape:connector-curvature="0" />
    <path
       d="m 1145.2889,544.46273 a 5.314961,5.314961 0 1 0 0,10.62992 5.314961,5.314961 0 1 0 0,-10.62992 z"
       style="fill:none;stroke:#000000"
       id="path6981"
       inkscape:connector-curvature="0" />
    <path
       d="m 698.83226,781.86426 a 5.315,5.315 0 1 0 0,10.63 5.315,5.315 0 0 0 0,-10.63 z"
       style="fill:none;stroke:#000000"
       id="path6983"
       inkscape:connector-curvature="0" />
    <path
       d="m 840.56456,781.86426 a 5.315,5.315 0 1 0 0,10.63 5.315,5.315 0 0 0 0,-10.63 z"
       style="fill:none;stroke:#000000"
       id="path6985"
       inkscape:connector-curvature="0" />
    <path
       d="m 698.83226,544.46273 a 5.314961,5.314961 0 1 0 0,10.62992 5.314961,5.314961 0 1 0 0,-10.62992 z"
       style="fill:none;stroke:#000000"
       id="path6987"
       inkscape:connector-curvature="0" />
    <path
       d="m 394.10786,781.86426 a 5.315,5.315 0 1 0 0,10.63 5.315,5.315 0 0 0 0,-10.63 z"
       style="fill:none;stroke:#000000"
       id="path6989"
       inkscape:connector-curvature="0" />
    <path
       d="m 394.10786,544.46273 a 5.314961,5.314961 0 1 0 0,10.62992 5.314961,5.314961 0 1 0 0,-10.62992 z"
       style="fill:none;stroke:#000000"
       id="path6991"
       inkscape:connector-curvature="0" />
    <path
       d="m 252.37556,544.46273 a 5.314961,5.314961 0 1 0 0,10.62992 5.314961,5.314961 0 1 0 0,-10.62992 z"
       style="fill:none;stroke:#000000"
       id="path6993"
       inkscape:connector-curvature="0" />
    <path
       d="m 461.43066,944.85646 a 14.173228,14.173228 0 1 0 0,28.3464 14.173228,14.173228 0 1 0 0,-28.3464 z"
       style="fill:none;stroke:#000000"
       id="path6999"
       inkscape:connector-curvature="0" />
    <path
       d="m 729.37856,-20.62054 8.0959,45.914571"
       style="fill:none;stroke:#000000"
       id="path7039"
       inkscape:connector-curvature="0" />
    <path
       d="m 1127.5724,951.94306 0,-8.504"
       style="fill:none;stroke:#000000"
       id="path7049"
       inkscape:connector-curvature="0" />
    <path
       d="m 1145.2889,781.86426 a 5.315,5.315 0 1 0 0,10.63 5.315,5.315 0 0 0 0,-10.63 z"
       style="fill:none;stroke:#000000"
       id="path7051"
       inkscape:connector-curvature="0" />
    <path
       d="m 886.62756,457.65171 a 5.314961,5.314961 0 1 0 0,10.62992 5.314961,5.314961 0 1 0 0,-10.62992 z"
       style="fill:none;stroke:#000000"
       id="path7065"
       inkscape:connector-curvature="0" />
    <path
       d="m 858.28106,951.94306 269.29134,0"
       style="fill:none;stroke:#000000"
       id="path7071"
       inkscape:connector-curvature="0" />
    <path
       d="m 858.28106,943.43906 269.29134,0"
       style="fill:none;stroke:#000000"
       id="path7077"
       inkscape:connector-curvature="0" />
    <path
       d="m 858.28106,908.00606 0,-8.504"
       style="fill:none;stroke:#000000"
       id="path7079"
       inkscape:connector-curvature="0" />
    <path
       d="m 1524.4228,944.85646 a 14.173228,14.173228 0 1 0 0,28.3464 14.173228,14.173228 0 1 0 0,-28.3464 z"
       style="fill:none;stroke:#000000"
       id="path7085"
       inkscape:connector-curvature="0" />
    <path
       d="m 1127.5724,908.00606 0,-8.504"
       style="fill:none;stroke:#000000"
       id="path7087"
       inkscape:connector-curvature="0" />
    <path
       d="m 858.28106,908.00606 269.29134,0"
       style="fill:none;stroke:#000000"
       id="path7089"
       inkscape:connector-curvature="0" />
    <path
       d="m 858.28106,899.50206 269.29134,0"
       style="fill:none;stroke:#000000"
       id="path7091"
       inkscape:connector-curvature="0" />
    <path
       d="m 128.35976,873.99026 a 5.315,5.315 0 1 0 0,10.63 5.315,5.315 0 0 0 0,-10.63 z"
       style="fill:none;stroke:#000000"
       id="path7093"
       inkscape:connector-curvature="0" />
    <path
       d="m 110.64326,895.25016 0,-857.480339"
       style="fill:none;stroke:#000000"
       id="path7103"
       inkscape:connector-curvature="0" />
    <path
       d="m 840.56456,335.40761 a 5.314961,5.314961 0 1 0 0,10.62992 5.314961,5.314961 0 1 0 0,-10.62992 z"
       style="fill:none;stroke:#000000"
       id="path7109"
       inkscape:connector-curvature="0" />
    <path
       d="m 858.28106,951.94306 0,-8.504"
       style="fill:none;stroke:#000000"
       id="path7111"
       inkscape:connector-curvature="0" />
    <path
       d="m 840.56456,544.46273 a 5.314961,5.314961 0 1 0 0,10.62992 5.314961,5.314961 0 1 0 0,-10.62992 z"
       style="fill:none;stroke:#000000"
       id="path7125"
       inkscape:connector-curvature="0" />
    <path
       d="m 1875.2102,37.769821 0,857.480339"
       style="fill:none;stroke:#000000"
       id="path7127"
       inkscape:connector-curvature="0" />
    <path
       d="m 110.64326,895.25016 0,127.55894"
       style="fill:none;stroke:#000000"
       id="path7137"
       inkscape:connector-curvature="0" />
    <path
       d="m 739.84696,-33.09632 a 10.629921,10.629921 0 0 0 -10.4684,12.47578"
       style="fill:none;stroke:#000000"
       id="path7141"
       inkscape:connector-curvature="0" />
    <path
       d="m 1099.2259,457.65171 a 5.314961,5.314961 0 1 0 0,10.62992 5.314961,5.314961 0 1 0 0,-10.62992 z"
       style="fill:none;stroke:#000000"
       id="path7145"
       inkscape:connector-curvature="0" />
    <path
       d="m 1591.7456,544.46273 a 5.314961,5.314961 0 1 0 0,10.62992 5.314961,5.314961 0 1 0 0,-10.62992 z"
       style="fill:none;stroke:#000000"
       id="path7177"
       inkscape:connector-curvature="0" />
    <path
       d="m 1875.2102,37.769821 -616.3628,0"
       style="fill:none;stroke:#000000"
       id="path7195"
       inkscape:connector-curvature="0" />
    <path
       d="m 727.00606,37.769821 a 10.629921,10.629921 0 0 0 10.4684,-12.47579"
       style="fill:none;stroke:#000000"
       id="path7199"
       inkscape:connector-curvature="0" />
    <path
       d="m 1256.4749,-20.62054 a 10.629921,10.629921 0 0 0 -10.4684,-12.47578"
       style="fill:none;stroke:#000000"
       id="path7209"
       inkscape:connector-curvature="0" />
    <path
       d="m 252.37556,781.86426 a 5.315,5.315 0 1 0 0,10.63 5.315,5.315 0 0 0 0,-10.63 z"
       style="fill:none;stroke:#000000"
       id="path7219"
       inkscape:connector-curvature="0" />
    <path
       d="m 727.00606,37.769821 -616.3628,0"
       style="fill:none;stroke:#000000"
       id="path7231"
       inkscape:connector-curvature="0" />
    <path
       d="m 110.64326,1022.8091 1764.56694,0"
       style="fill:none;stroke:#000000"
       id="path7235"
       inkscape:connector-curvature="0" />
    <path
       d="m 1248.379,25.294031 a 10.629921,10.629921 0 0 0 10.4684,12.47579"
       style="fill:none;stroke:#000000"
       id="path7295"
       inkscape:connector-curvature="0" />
    <path
       d="m 1875.2102,1022.8091 0,-127.55894"
       style="fill:none;stroke:#000000"
       id="path7299"
       inkscape:connector-curvature="0" />
    <path
       d="m 128.35976,46.628081 a 5.314965,5.314965 0 1 0 0,10.62993 5.314965,5.314965 0 0 0 0,-10.62993 z"
       style="fill:none;stroke:#000000"
       id="path7321"
       inkscape:connector-curvature="0" />
    <path
       d="m 1246.0065,-33.09632 -506.15954,0"
       style="fill:none;stroke:#000000"
       id="path7327"
       inkscape:connector-curvature="0" />
    <path
       d="m 1857.4937,873.99026 a 5.315,5.315 0 1 0 0,10.63 5.315,5.315 0 0 0 0,-10.63 z"
       style="fill:none;stroke:#000000"
       id="path7341"
       inkscape:connector-curvature="0" />
    <path
       d="m 1733.4779,544.46273 a 5.314961,5.314961 0 1 0 0,10.62992 5.314961,5.314961 0 1 0 0,-10.62992 z"
       style="fill:none;stroke:#000000"
       id="path7351"
       inkscape:connector-curvature="0" />
    <path
       d="m 1248.379,25.294031 8.0959,-45.914571"
       style="fill:none;stroke:#000000"
       id="path7353"
       inkscape:connector-curvature="0" />
    <path
       d="m 819.30466,873.99026 a 5.315,5.315 0 1 0 0,10.63 5.315,5.315 0 0 0 0,-10.63 z"
       style="fill:none;stroke:#000000"
       id="path7357"
       inkscape:connector-curvature="0" />
    <path
       d="m 1166.5488,873.99026 a 5.315,5.315 0 1 0 0,10.63 5.315,5.315 0 0 0 0,-10.63 z"
       style="fill:none;stroke:#000000"
       id="path7359"
       inkscape:connector-curvature="0" />
    <path
       d="m 1857.4937,46.628081 a 5.314965,5.314965 0 1 0 0,10.62993 5.314965,5.314965 0 0 0 0,-10.62993 z"
       style="fill:none;stroke:#000000"
       id="path7363"
       inkscape:connector-curvature="0" />
  </g>
  <g
     inkscape:groupmode="layer"
     inkscape:label="MODELSKETCH_CONSTRUCTION"
     id="g7365"
     transform="translate(0,46.062926)" />
  <g
     inkscape:groupmode="layer"
     inkscape:label="HIDDEN_BASE_VIEW"
     id="g7367"
     transform="translate(0,46.062926)" />
  <g
     inkscape:groupmode="layer"
     inkscape:label="TANGENT_LINES"
     id="g7369"
     transform="translate(0,46.062926)" />
  <g
     inkscape:groupmode="layer"
     inkscape:label="TANGENT_HIDDEN"
     id="g7371"
     transform="translate(0,46.062926)" />
  <g
     inkscape:groupmode="layer"
     inkscape:label="INVISIBLE_LINES"
     id="g7373"
     transform="translate(0,46.062926)" />
  <g
     inkscape:groupmode="layer"
     inkscape:label="VIEW_HATCHES"
     id="g7375"
     transform="translate(0,46.062926)" />
  <g
     inkscape:groupmode="layer"
     inkscape:label="SECTION_JOG_LINES"
     id="g7377"
     transform="translate(0,46.062926)" />
</svg>
