<?xml version="1.0" encoding="UTF-8" standalone="no"?>
<svg
   xmlns:dc="http://purl.org/dc/elements/1.1/"
   xmlns:cc="http://creativecommons.org/ns#"
   xmlns:rdf="http://www.w3.org/1999/02/22-rdf-syntax-ns#"
   xmlns:svg="http://www.w3.org/2000/svg"
   xmlns="http://www.w3.org/2000/svg"
   xmlns:sodipodi="http://sodipodi.sourceforge.net/DTD/sodipodi-0.dtd"
   xmlns:inkscape="http://www.inkscape.org/namespaces/inkscape"
   width="550mm"
   height="310mm"
   id="svg10209"
   version="1.1"
   inkscape:version="0.91 r13725"
   sodipodi:docname="Pohjake1_4.svg">
  <metadata
     id="metadata10735">
    <rdf:RDF>
      <cc:Work
         rdf:about="">
        <dc:format>image/svg+xml</dc:format>
        <dc:type
           rdf:resource="http://purl.org/dc/dcmitype/StillImage" />
        <dc:title></dc:title>
      </cc:Work>
    </rdf:RDF>
  </metadata>
  <sodipodi:namedview
     pagecolor="#ffffff"
     bordercolor="#666666"
     borderopacity="1"
     objecttolerance="10"
     gridtolerance="10"
     guidetolerance="10"
     inkscape:pageopacity="0"
     inkscape:pageshadow="2"
     inkscape:window-width="1347"
     inkscape:window-height="995"
     id="namedview10733"
     showgrid="false"
     units="mm"
     inkscape:zoom="0.34558415"
     inkscape:cx="610.36639"
     inkscape:cy="788.82414"
     inkscape:window-x="0"
     inkscape:window-y="24"
     inkscape:window-maximized="0"
     inkscape:current-layer="g10283" />
  <desc
     id="desc10211">/home/paja/Downloads/Pohjake1(1).dxf - scale = 1.000000, origin = (0.000000, 0.000000), auto = False</desc>
  <defs
     id="defs10213">
    <marker
       id="DistanceX"
       orient="auto"
       refX="0"
       refY="0"
       style="overflow:visible">
      <path
         d="M 3,-3 -3,3 M 0,-5 0,5"
         style="stroke:#000000;stroke-width:0.5"
         id="path10216"
         inkscape:connector-curvature="0" />
    </marker>
    <pattern
       height="8"
       id="Hatch"
       patternUnits="userSpaceOnUse"
       width="8"
       x="0"
       y="0">
      <path
         d="M8 4 l-4,4"
         linecap="square"
         stroke="#000000"
         stroke-width="0.25"
         id="path10219" />
      <path
         d="M6 2 l-4,4"
         linecap="square"
         stroke="#000000"
         stroke-width="0.25"
         id="path10221" />
      <path
         d="M4 0 l-4,4"
         linecap="square"
         stroke="#000000"
         stroke-width="0.25"
         id="path10223" />
    </pattern>
    <symbol
       id="*MODEL_SPACE" />
    <symbol
       id="*PAPER_SPACE" />
  </defs>
  <g
     inkscape:groupmode="layer"
     inkscape:label="0"
     id="g10227"
     transform="translate(0,46.06297)" />
  <g
     inkscape:groupmode="layer"
     inkscape:label="SECTION_CUTTING_LINE"
     id="g10229"
     transform="translate(0,46.06297)" />
  <g
     inkscape:groupmode="layer"
     inkscape:label="DETAIL_VIEW_BORDER"
     id="g10231"
     transform="translate(0,46.06297)" />
  <g
     inkscape:groupmode="layer"
     inkscape:label="DETAIL_VIEW_PARENT_BORDER"
     id="g10233"
     transform="translate(0,46.06297)" />
  <g
     inkscape:groupmode="layer"
     inkscape:label="TEXT"
     id="g10235"
     transform="translate(0,46.06297)" />
  <g
     inkscape:groupmode="layer"
     inkscape:label="SKETCHED_GEOMETRY"
     id="g10237"
     transform="translate(0,46.06297)" />
  <g
     inkscape:groupmode="layer"
     inkscape:label="VIRTUAL_SHARPS"
     id="g10239"
     transform="translate(0,46.06297)" />
  <g
     inkscape:groupmode="layer"
     inkscape:label="CENTERLINES"
     id="g10241"
     transform="translate(0,46.06297)" />
  <g
     inkscape:groupmode="layer"
     inkscape:label="CENTERMARKS"
     id="g10243"
     transform="translate(0,46.06297)" />
  <g
     inkscape:groupmode="layer"
     inkscape:label="TABLES"
     id="g10245"
     transform="translate(0,46.06297)" />
  <g
     inkscape:groupmode="layer"
     inkscape:label="IMAGES"
     id="g10247"
     transform="translate(0,46.06297)" />
  <g
     inkscape:groupmode="layer"
     inkscape:label="ANNOTATION_LINES"
     id="g10249"
     transform="translate(0,46.06297)" />
  <g
     inkscape:groupmode="layer"
     inkscape:label="ANNOTATION_TEXT"
     id="g10251"
     transform="translate(0,46.06297)" />
  <g
     inkscape:groupmode="layer"
     inkscape:label="SIDE_THREAD_SYMBOLS"
     id="g10253"
     transform="translate(0,46.06297)" />
  <g
     inkscape:groupmode="layer"
     inkscape:label="SIDE_THREAD_SYMBOLS_HIDDEN"
     id="g10255"
     transform="translate(0,46.06297)" />
  <g
     inkscape:groupmode="layer"
     inkscape:label="SURFACE_THREAD_SYMBOLS"
     id="g10257"
     transform="translate(0,46.06297)" />
  <g
     inkscape:groupmode="layer"
     inkscape:label="SURFACE_THREAD_SYMBOLS_ON_"
     id="g10259"
     transform="translate(0,46.06297)" />
  <g
     inkscape:groupmode="layer"
     inkscape:label="SURFACE_THREAD_SYMBOLS_HID"
     id="g10261"
     transform="translate(0,46.06297)" />
  <g
     inkscape:groupmode="layer"
     inkscape:label="BLIND_THREAD_SYMBOLS"
     id="g10263"
     transform="translate(0,46.06297)" />
  <g
     inkscape:groupmode="layer"
     inkscape:label="BLIND_THREAD_SYMBOLS_HIDDE"
     id="g10265"
     transform="translate(0,46.06297)" />
  <g
     inkscape:groupmode="layer"
     inkscape:label="EXPLODE_LINES"
     id="g10267"
     transform="translate(0,46.06297)" />
  <g
     inkscape:groupmode="layer"
     inkscape:label="BREAK_LINES"
     id="g10269"
     transform="translate(0,46.06297)" />
  <g
     inkscape:groupmode="layer"
     inkscape:label="SHEETMETAL_BEND_LINES_UP"
     id="g10271"
     transform="translate(0,46.06297)" />
  <g
     inkscape:groupmode="layer"
     inkscape:label="SHEETMETAL_BEND_LINES_DOWN"
     id="g10273"
     transform="translate(0,46.06297)" />
  <g
     inkscape:groupmode="layer"
     inkscape:label="SHEETMETAL_BEND_TANGENT_LI"
     id="g10275"
     transform="translate(0,46.06297)" />
  <g
     inkscape:groupmode="layer"
     inkscape:label="SHEETMETAL_CUT_LINES"
     id="g10277"
     transform="translate(0,46.06297)" />
  <g
     inkscape:groupmode="layer"
     inkscape:label="HIDDEN"
     id="g10279"
     transform="translate(0,46.06297)" />
  <g
     inkscape:groupmode="layer"
     inkscape:label="VISIBLE"
     id="g10281"
     transform="translate(0,46.06297)" />
  <g
     inkscape:groupmode="layer"
     inkscape:label="MODELSKETCH_VISIBLE"
     id="g10283"
     transform="translate(0,46.06297)">
    <path
       d="m 506.15855,24.502154 a 14.17325,14.17325 0 1 0 0,28.3465 14.17325,14.17325 0 0 0 0,-28.3465 z"
       style="fill:none;stroke:#000000"
       id="path10349"
       inkscape:connector-curvature="0" />
    <path
       d="m 1569.1507,24.502154 a 14.17325,14.17325 0 1 0 0,28.3465 14.17325,14.17325 0 0 0 0,-28.3465 z"
       style="fill:none;stroke:#000000"
       id="path10351"
       inkscape:connector-curvature="0" />
    <path
       d="m 1211.2767,113.08485 a 5.314961,5.314961 0 1 0 0,10.6299 5.314961,5.314961 0 1 0 0,-10.6299 z"
       style="fill:none;stroke:#000000"
       id="path10355"
       inkscape:connector-curvature="0" />
    <path
       d="m 1902.2216,113.08485 a 5.314961,5.314961 0 1 0 0,10.6299 5.314961,5.314961 0 1 0 0,-10.6299 z"
       style="fill:none;stroke:#000000"
       id="path10357"
       inkscape:connector-curvature="0" />
    <path
       d="m 1902.2216,940.44705 a 5.314961,5.314961 0 1 0 0,10.6299 5.314961,5.314961 0 1 0 0,-10.6299 z"
       style="fill:none;stroke:#000000"
       id="path10359"
       inkscape:connector-curvature="0" />
    <path
       d="m 297.10345,169.77775 a 5.314961,5.314961 0 1 0 0,10.6299 5.314961,5.314961 0 1 0 0,-10.6299 z"
       style="fill:none;stroke:#000000"
       id="path10391"
       inkscape:connector-curvature="0" />
    <path
       d="m 297.10345,407.17936 a 5.314961,5.314961 0 1 0 0,10.6299 5.314961,5.314961 0 1 0 0,-10.6299 z"
       style="fill:none;stroke:#000000"
       id="path10395"
       inkscape:connector-curvature="0" />
    <path
       d="m 885.29245,407.17936 a 5.314961,5.314961 0 1 0 0,10.6299 5.314961,5.314961 0 1 0 0,-10.6299 z"
       style="fill:none;stroke:#000000"
       id="path10397"
       inkscape:connector-curvature="0" />
    <path
       d="m 885.29245,169.77775 a 5.314961,5.314961 0 1 0 0,10.6299 5.314961,5.314961 0 1 0 0,-10.6299 z"
       style="fill:none;stroke:#000000"
       id="path10401"
       inkscape:connector-curvature="0" />
    <path
       d="m 155.37117,-25.104146 1764.56693,0"
       style="fill:none;stroke:#000000"
       id="path10407"
       inkscape:connector-curvature="0" />
    <path
       d="m 1331.7492,407.17936 a 5.314961,5.314961 0 1 0 0,10.6299 5.314961,5.314961 0 1 0 0,-10.6299 z"
       style="fill:none;stroke:#000000"
       id="path10409"
       inkscape:connector-curvature="0" />
    <path
       d="m 1636.4736,169.77775 a 5.314961,5.314961 0 1 0 0,10.6299 5.314961,5.314961 0 1 0 0,-10.6299 z"
       style="fill:none;stroke:#000000"
       id="path10415"
       inkscape:connector-curvature="0" />
    <path
       d="m 1636.4736,407.17936 a 5.314961,5.314961 0 1 0 0,10.6299 5.314961,5.314961 0 1 0 0,-10.6299 z"
       style="fill:none;stroke:#000000"
       id="path10417"
       inkscape:connector-curvature="0" />
    <path
       d="m 1778.2059,407.17936 a 5.314961,5.314961 0 1 0 0,10.6299 5.314961,5.314961 0 1 0 0,-10.6299 z"
       style="fill:none;stroke:#000000"
       id="path10423"
       inkscape:connector-curvature="0" />
    <path
       d="m 1636.4736,616.23445 a 5.314961,5.314961 0 1 0 0,10.6299 5.314961,5.314961 0 1 0 0,-10.6299 z"
       style="fill:none;stroke:#000000"
       id="path10435"
       inkscape:connector-curvature="0" />
    <path
       d="m 1190.0169,407.17936 a 5.314961,5.314961 0 1 0 0,10.6299 5.314961,5.314961 0 1 0 0,-10.6299 z"
       style="fill:none;stroke:#000000"
       id="path10437"
       inkscape:connector-curvature="0" />
    <path
       d="m 438.83575,169.77775 a 5.314961,5.314961 0 1 0 0,10.6299 5.314961,5.314961 0 1 0 0,-10.6299 z"
       style="fill:none;stroke:#000000"
       id="path10453"
       inkscape:connector-curvature="0" />
    <path
       d="m 1778.2059,169.77775 a 5.314961,5.314961 0 1 0 0,10.6299 5.314961,5.314961 0 1 0 0,-10.6299 z"
       style="fill:none;stroke:#000000"
       id="path10455"
       inkscape:connector-curvature="0" />
    <path
       d="m 1636.4736,853.63605 a 5.314961,5.314961 0 1 0 0,10.6299 5.314961,5.314961 0 1 0 0,-10.6299 z"
       style="fill:none;stroke:#000000"
       id="path10461"
       inkscape:connector-curvature="0" />
    <path
       d="m 155.37117,102.45495 0,-127.559096"
       style="fill:none;stroke:#000000"
       id="path10469"
       inkscape:connector-curvature="0" />
    <path
       d="m 438.83575,407.17936 a 5.314961,5.314961 0 1 0 0,10.6299 5.314961,5.314961 0 1 0 0,-10.6299 z"
       style="fill:none;stroke:#000000"
       id="path10485"
       inkscape:connector-curvature="0" />
    <path
       d="m 743.56015,407.17936 a 5.314961,5.314961 0 1 0 0,10.6299 5.314961,5.314961 0 1 0 0,-10.6299 z"
       style="fill:none;stroke:#000000"
       id="path10489"
       inkscape:connector-curvature="0" />
    <path
       d="m 771.73395,959.93525 -616.36278,0"
       style="fill:none;stroke:#000000"
       id="path10497"
       inkscape:connector-curvature="0" />
    <path
       d="m 782.20235,972.41105 a 10.629921,10.629921 0 0 0 -10.4684,-12.4758"
       style="fill:none;stroke:#000000"
       id="path10501"
       inkscape:connector-curvature="0" />
    <path
       d="m 774.10645,1018.3257 a 10.629921,10.629921 0 0 0 10.4684,12.4757"
       style="fill:none;stroke:#000000"
       id="path10511"
       inkscape:connector-curvature="0" />
    <path
       d="m 743.56015,169.77775 a 5.314961,5.314961 0 1 0 0,10.6299 5.314961,5.314961 0 1 0 0,-10.6299 z"
       style="fill:none;stroke:#000000"
       id="path10515"
       inkscape:connector-curvature="0" />
    <path
       d="m 1290.7345,1030.8014 a 10.629921,10.629921 0 0 0 10.4684,-12.4757"
       style="fill:none;stroke:#000000"
       id="path10517"
       inkscape:connector-curvature="0" />
    <path
       d="m 297.10345,853.63605 a 5.314961,5.314961 0 1 0 0,10.6299 5.314961,5.314961 0 1 0 0,-10.6299 z"
       style="fill:none;stroke:#000000"
       id="path10523"
       inkscape:connector-curvature="0" />
    <path
       d="m 1303.5753,959.93525 a 10.629921,10.629921 0 0 0 -10.4684,12.4758"
       style="fill:none;stroke:#000000"
       id="path10525"
       inkscape:connector-curvature="0" />
    <path
       d="m 1143.9539,529.42345 a 5.314961,5.314961 0 1 0 0,10.6299 5.314961,5.314961 0 1 0 0,-10.6299 z"
       style="fill:none;stroke:#000000"
       id="path10529"
       inkscape:connector-curvature="0" />
    <path
       d="m 1778.2059,853.63605 a 5.314961,5.314961 0 1 0 0,10.6299 5.314961,5.314961 0 1 0 0,-10.6299 z"
       style="fill:none;stroke:#000000"
       id="path10543"
       inkscape:connector-curvature="0" />
    <path
       d="m 1331.7492,169.77775 a 5.314961,5.314961 0 1 0 0,10.6299 5.314961,5.314961 0 1 0 0,-10.6299 z"
       style="fill:none;stroke:#000000"
       id="path10547"
       inkscape:connector-curvature="0" />
    <path
       d="m 1190.0169,169.77775 a 5.314961,5.314961 0 1 0 0,10.6299 5.314961,5.314961 0 1 0 0,-10.6299 z"
       style="fill:none;stroke:#000000"
       id="path10551"
       inkscape:connector-curvature="0" />
    <path
       d="m 774.10645,1018.3257 8.0959,-45.91465"
       style="fill:none;stroke:#000000"
       id="path10557"
       inkscape:connector-curvature="0" />
    <path
       d="m 155.37117,959.93525 0,-857.4803"
       style="fill:none;stroke:#000000"
       id="path10565"
       inkscape:connector-curvature="0" />
    <path
       d="m 743.56015,853.63605 a 5.314961,5.314961 0 1 0 0,10.6299 5.314961,5.314961 0 1 0 0,-10.6299 z"
       style="fill:none;stroke:#000000"
       id="path10569"
       inkscape:connector-curvature="0" />
    <path
       d="m 864.03255,113.08485 a 5.314961,5.314961 0 1 0 0,10.6299 5.314961,5.314961 0 1 0 0,-10.6299 z"
       style="fill:none;stroke:#000000"
       id="path10571"
       inkscape:connector-curvature="0" />
    <path
       d="m 1919.9381,959.93525 -616.3628,0"
       style="fill:none;stroke:#000000"
       id="path10579"
       inkscape:connector-curvature="0" />
    <path
       d="m 1778.2059,616.23445 a 5.314961,5.314961 0 1 0 0,10.6299 5.314961,5.314961 0 1 0 0,-10.6299 z"
       style="fill:none;stroke:#000000"
       id="path10581"
       inkscape:connector-curvature="0" />
    <path
       d="m 931.35545,529.42345 a 5.314961,5.314961 0 1 0 0,10.6299 5.314961,5.314961 0 1 0 0,-10.6299 z"
       style="fill:none;stroke:#000000"
       id="path10593"
       inkscape:connector-curvature="0" />
    <path
       d="m 1290.7345,1030.8014 -506.15965,0"
       style="fill:none;stroke:#000000"
       id="path10629"
       inkscape:connector-curvature="0" />
    <path
       d="m 1919.9381,102.45495 0,857.4803"
       style="fill:none;stroke:#000000"
       id="path10657"
       inkscape:connector-curvature="0" />
    <path
       d="m 1919.9381,-25.104146 0,127.559096"
       style="fill:none;stroke:#000000"
       id="path10665"
       inkscape:connector-curvature="0" />
    <path
       d="m 297.10345,616.23445 a 5.314961,5.314961 0 1 0 0,10.6299 5.314961,5.314961 0 1 0 0,-10.6299 z"
       style="fill:none;stroke:#000000"
       id="path10669"
       inkscape:connector-curvature="0" />
    <path
       d="m 438.83575,853.63605 a 5.314961,5.314961 0 1 0 0,10.6299 5.314961,5.314961 0 1 0 0,-10.6299 z"
       style="fill:none;stroke:#000000"
       id="path10673"
       inkscape:connector-curvature="0" />
    <path
       d="m 438.83575,616.23445 a 5.314961,5.314961 0 1 0 0,10.6299 5.314961,5.314961 0 1 0 0,-10.6299 z"
       style="fill:none;stroke:#000000"
       id="path10677"
       inkscape:connector-curvature="0" />
    <path
       d="m 743.56015,616.23445 a 5.314961,5.314961 0 1 0 0,10.6299 5.314961,5.314961 0 1 0 0,-10.6299 z"
       style="fill:none;stroke:#000000"
       id="path10683"
       inkscape:connector-curvature="0" />
    <path
       d="m 173.0877,940.44705 a 5.314961,5.314961 0 1 0 0,10.6299 5.314961,5.314961 0 1 0 0,-10.6299 z"
       style="fill:none;stroke:#000000"
       id="path10685"
       inkscape:connector-curvature="0" />
    <path
       d="m 885.29245,853.63605 a 5.314961,5.314961 0 1 0 0,10.6299 5.314961,5.314961 0 1 0 0,-10.6299 z"
       style="fill:none;stroke:#000000"
       id="path10687"
       inkscape:connector-curvature="0" />
    <path
       d="m 173.0877,113.08485 a 5.314961,5.314961 0 1 0 0,10.6299 5.314961,5.314961 0 1 0 0,-10.6299 z"
       style="fill:none;stroke:#000000"
       id="path10691"
       inkscape:connector-curvature="0" />
    <path
       d="m 885.29245,616.23445 a 5.314961,5.314961 0 1 0 0,10.6299 5.314961,5.314961 0 1 0 0,-10.6299 z"
       style="fill:none;stroke:#000000"
       id="path10693"
       inkscape:connector-curvature="0" />
    <path
       d="m 1190.0169,616.23445 a 5.314961,5.314961 0 1 0 0,10.6299 5.314961,5.314961 0 1 0 0,-10.6299 z"
       style="fill:none;stroke:#000000"
       id="path10697"
       inkscape:connector-curvature="0" />
    <path
       d="m 1331.7492,853.63605 a 5.314961,5.314961 0 1 0 0,10.6299 5.314961,5.314961 0 1 0 0,-10.6299 z"
       style="fill:none;stroke:#000000"
       id="path10699"
       inkscape:connector-curvature="0" />
    <path
       d="m 1190.0169,853.63605 a 5.314961,5.314961 0 1 0 0,10.6299 5.314961,5.314961 0 1 0 0,-10.6299 z"
       style="fill:none;stroke:#000000"
       id="path10701"
       inkscape:connector-curvature="0" />
    <path
       d="m 1331.7492,616.23445 a 5.314961,5.314961 0 1 0 0,10.6299 5.314961,5.314961 0 1 0 0,-10.6299 z"
       style="fill:none;stroke:#000000"
       id="path10703"
       inkscape:connector-curvature="0" />
    <path
       d="m 1293.1069,972.41105 8.096,45.91465"
       style="fill:none;stroke:#000000"
       id="path10715"
       inkscape:connector-curvature="0" />
  </g>
  <g
     inkscape:groupmode="layer"
     inkscape:label="MODELSKETCH_CONSTRUCTION"
     id="g10719"
     transform="translate(0,46.06297)" />
  <g
     inkscape:groupmode="layer"
     inkscape:label="HIDDEN_BASE_VIEW"
     id="g10721"
     transform="translate(0,46.06297)" />
  <g
     inkscape:groupmode="layer"
     inkscape:label="TANGENT_LINES"
     id="g10723"
     transform="translate(0,46.06297)" />
  <g
     inkscape:groupmode="layer"
     inkscape:label="TANGENT_HIDDEN"
     id="g10725"
     transform="translate(0,46.06297)" />
  <g
     inkscape:groupmode="layer"
     inkscape:label="INVISIBLE_LINES"
     id="g10727"
     transform="translate(0,46.06297)" />
  <g
     inkscape:groupmode="layer"
     inkscape:label="VIEW_HATCHES"
     id="g10729"
     transform="translate(0,46.06297)" />
  <g
     inkscape:groupmode="layer"
     inkscape:label="SECTION_JOG_LINES"
     id="g10731"
     transform="translate(0,46.06297)" />
</svg>
