%TF.GenerationSoftware,KiCad,Pcbnew,6.0.0-rc1-unknown-1a22918~65~ubuntu16.04.1*%
%TF.CreationDate,2019-08-07T16:40:55+03:00*%
%TF.ProjectId,BackbonePCB,4261636B626F6E655043422E6B696361,rev?*%
%TF.SameCoordinates,Original*%
%TF.FileFunction,Copper,L2,Bot,Signal*%
%TF.FilePolarity,Positive*%
%FSLAX46Y46*%
G04 Gerber Fmt 4.6, Leading zero omitted, Abs format (unit mm)*
G04 Created by KiCad (PCBNEW 6.0.0-rc1-unknown-1a22918~65~ubuntu16.04.1) date Wed Aug  7 16:40:55 2019*
%MOMM*%
%LPD*%
G01*
G04 APERTURE LIST*
%ADD10C,0.050000*%
%ADD11C,5.000000*%
%ADD12C,0.800000*%
%ADD13C,1.200000*%
%ADD14C,0.250000*%
G04 APERTURE END LIST*
D10*
X18050000Y-19050000D02*
X18050000Y-93050000D01*
X49050000Y-93050000D02*
X18050000Y-93050000D01*
X218050000Y-93050000D02*
X49050000Y-93050000D01*
X218050000Y-19050000D02*
X218050000Y-93050000D01*
X18050000Y-19050000D02*
X218050000Y-19050000D01*
D11*
X133550000Y-27050000D03*
X133550000Y-87050000D03*
D12*
X180331000Y-20320000D03*
X211446000Y-69723000D03*
X208906000Y-69723000D03*
X183887000Y-22860000D03*
X209795000Y-68834000D03*
X212589000Y-68580000D03*
X212589000Y-66929000D03*
X211065000Y-67564000D03*
X181601000Y-20320000D03*
X184903000Y-22352000D03*
X182744000Y-22860000D03*
X182236000Y-89789000D03*
X210303000Y-73533000D03*
X211954000Y-73025000D03*
X181982000Y-91567000D03*
X183633000Y-91567000D03*
X183633000Y-89789000D03*
X52061000Y-64389000D03*
X36948000Y-69977000D03*
X38345000Y-69850000D03*
X59554000Y-64389000D03*
X39488000Y-68453000D03*
X53610000Y-64364000D03*
X57522000Y-64262000D03*
X46219000Y-86995000D03*
X37329000Y-74930000D03*
X37710000Y-73025000D03*
X42028000Y-88011000D03*
X35297000Y-71501000D03*
X36059000Y-72898000D03*
X195317000Y-86995000D03*
X186681000Y-64770000D03*
X186427000Y-67564000D03*
X195317000Y-85217000D03*
X189729000Y-64770000D03*
X69333000Y-86868000D03*
X75429000Y-64643000D03*
X72635000Y-64643000D03*
X67682000Y-85471000D03*
X63618000Y-64643000D03*
X63237000Y-67564000D03*
X69732999Y-85471000D03*
X47362000Y-27559000D03*
X204334000Y-27305000D03*
X72762000Y-26670000D03*
X47489000Y-24892000D03*
X204334000Y-24892000D03*
X72762000Y-24130000D03*
X204334000Y-62738000D03*
X73270000Y-61976000D03*
X47357340Y-63241340D03*
X47362000Y-60706000D03*
X204334000Y-60706000D03*
X73270000Y-59944000D03*
X47362000Y-57658000D03*
X204334000Y-57658000D03*
X73270000Y-56896000D03*
X47362000Y-55626000D03*
X204334000Y-55626000D03*
X73397000Y-54736996D03*
X47362000Y-53086000D03*
X204334000Y-52578000D03*
X73651000Y-51816000D03*
X47362000Y-50546000D03*
X204334000Y-50038000D03*
X73651004Y-49276000D03*
X47362000Y-48006000D03*
X204334000Y-47498000D03*
X73651000Y-46736004D03*
X47235000Y-45212000D03*
X204461000Y-45085000D03*
X73650998Y-44450000D03*
X47235000Y-42672000D03*
X204461000Y-42672000D03*
X73651000Y-41910000D03*
X47235000Y-40005000D03*
X204461000Y-40005000D03*
X73524000Y-39243000D03*
X47235000Y-37592000D03*
X204334000Y-37592000D03*
X73397000Y-36830002D03*
X47362000Y-35052000D03*
X204334000Y-35052000D03*
X73270008Y-34163000D03*
X47362000Y-32385000D03*
X204334000Y-32385000D03*
X73270000Y-31840010D03*
X47362000Y-29972000D03*
X204334000Y-29972000D03*
X76826000Y-29210000D03*
X204334000Y-26035000D03*
X47362000Y-26289000D03*
X198111000Y-25273000D03*
X47362000Y-28829000D03*
X204334000Y-28575000D03*
X198238001Y-27813000D03*
X204334000Y-31115000D03*
X47235000Y-31115000D03*
X198238000Y-31496000D03*
X204334000Y-33655000D03*
X47362000Y-33655000D03*
X198111000Y-34036000D03*
X204334000Y-36195000D03*
X47235000Y-36195000D03*
X198111000Y-36576000D03*
X204334000Y-38735000D03*
X47108000Y-38862000D03*
X198111000Y-39116000D03*
X204461000Y-41275000D03*
X47108000Y-41275000D03*
X198111000Y-41783000D03*
X204334000Y-43815000D03*
X47235000Y-43942000D03*
X197984000Y-44323000D03*
X204334000Y-46482000D03*
X47362000Y-46482000D03*
X198238000Y-46736000D03*
X204334000Y-49022000D03*
X47362000Y-49022000D03*
X198365000Y-49149000D03*
X204334000Y-51562000D03*
X47362000Y-51562000D03*
X198238000Y-52070000D03*
X204334000Y-54102000D03*
X47362000Y-54102000D03*
X198492000Y-54610000D03*
X204334000Y-56642000D03*
X47362000Y-56642000D03*
X198492000Y-56896000D03*
X204334000Y-59182000D03*
X47362000Y-59182000D03*
X198492000Y-59944000D03*
X204334000Y-61722000D03*
X47362000Y-61722000D03*
X198365006Y-62070979D03*
X204334000Y-64262000D03*
X47362000Y-64262000D03*
X199127000Y-64964000D03*
D13*
X180331000Y-20320000D02*
X181601000Y-20320000D01*
X181601000Y-20320000D02*
X211065000Y-20320000D01*
X211065000Y-20320000D02*
X212589000Y-21844000D01*
X212589000Y-68580000D02*
X211446000Y-69723000D01*
X208906000Y-69723000D02*
X209305999Y-69323001D01*
X211065000Y-67564000D02*
X211065000Y-29846998D01*
X211065000Y-29846998D02*
X211065000Y-22606000D01*
X211065000Y-22606000D02*
X210811000Y-22352000D01*
X210811000Y-22352000D02*
X184903000Y-22352000D01*
X184903000Y-22352000D02*
X184395000Y-22352000D01*
X184395000Y-22352000D02*
X183887000Y-22860000D01*
X209795000Y-68834000D02*
X211065000Y-67564000D01*
X209305999Y-69323001D02*
X209795000Y-68834000D01*
X212589000Y-21844000D02*
X212589000Y-66929000D01*
X212589000Y-66929000D02*
X212589000Y-68580000D01*
X183887000Y-22860000D02*
X182744000Y-22860000D01*
X197476000Y-89789000D02*
X212081000Y-75184000D01*
X212081000Y-75184000D02*
X211954000Y-75184000D01*
X211954000Y-75184000D02*
X210303000Y-73533000D01*
X212081000Y-75184000D02*
X212081000Y-73152000D01*
X212081000Y-73152000D02*
X211954000Y-73025000D01*
X198873000Y-91567000D02*
X208779000Y-81661000D01*
X208779000Y-81661000D02*
X208779000Y-75184000D01*
X208906000Y-75057000D02*
X208906000Y-69723000D01*
X208779000Y-75184000D02*
X208906000Y-75057000D01*
X181982000Y-91567000D02*
X183633000Y-91567000D01*
X183633000Y-91567000D02*
X198873000Y-91567000D01*
X182236000Y-89789000D02*
X183633000Y-89789000D01*
X183633000Y-89789000D02*
X197476000Y-89789000D01*
X183633000Y-91186000D02*
X182236000Y-89789000D01*
X183633000Y-91567000D02*
X183633000Y-91186000D01*
X182236000Y-91313000D02*
X181982000Y-91567000D01*
X182236000Y-89789000D02*
X182236000Y-91313000D01*
X50987999Y-65462001D02*
X48447999Y-65462001D01*
X52061000Y-64389000D02*
X50987999Y-65462001D01*
X48447999Y-65462001D02*
X47489000Y-66421000D01*
X47489000Y-66421000D02*
X39107000Y-66421000D01*
X39107000Y-66421000D02*
X36948000Y-68580000D01*
X36948000Y-68580000D02*
X36948000Y-69977000D01*
X37818001Y-69450001D02*
X36948000Y-68580000D01*
X37945001Y-69450001D02*
X37818001Y-69450001D01*
X38345000Y-69850000D02*
X37945001Y-69450001D01*
X59554000Y-64389000D02*
X55490000Y-68453000D01*
X40053685Y-68453000D02*
X39488000Y-68453000D01*
X55490000Y-68453000D02*
X40053685Y-68453000D01*
X52061000Y-64389000D02*
X53585000Y-64389000D01*
X53585000Y-64389000D02*
X53610000Y-64364000D01*
X57649000Y-64389000D02*
X57522000Y-64262000D01*
X59554000Y-64389000D02*
X57649000Y-64389000D01*
X46219000Y-86995000D02*
X46219000Y-83820000D01*
X46219000Y-83820000D02*
X37329000Y-74930000D01*
X37329000Y-74930000D02*
X37329000Y-73406000D01*
X37329000Y-73406000D02*
X37710000Y-73025000D01*
X41628001Y-87611001D02*
X41628001Y-81134001D01*
X42028000Y-88011000D02*
X41628001Y-87611001D01*
X41628001Y-81134001D02*
X34789000Y-74295000D01*
X34789000Y-72009000D02*
X35297000Y-71501000D01*
X35678000Y-73279000D02*
X36059000Y-72898000D01*
X34789000Y-73279000D02*
X35678000Y-73279000D01*
X34789000Y-73279000D02*
X34789000Y-72009000D01*
X34789000Y-74295000D02*
X34789000Y-73279000D01*
X187570000Y-66421000D02*
X186427000Y-67564000D01*
X187570000Y-65659000D02*
X187570000Y-66421000D01*
X187570000Y-65659000D02*
X186681000Y-64770000D01*
X195317000Y-86995000D02*
X195317000Y-85217000D01*
X195317000Y-85217000D02*
X195317000Y-73406000D01*
X195317000Y-73406000D02*
X188078000Y-66167000D01*
X188078000Y-66167000D02*
X187570000Y-65659000D01*
X188078000Y-66167000D02*
X188332000Y-66167000D01*
X188332000Y-66167000D02*
X189729000Y-64770000D01*
X74159000Y-64643000D02*
X75429000Y-64643000D01*
X73270000Y-65278000D02*
X72635000Y-64643000D01*
X73524000Y-65278000D02*
X73270000Y-65278000D01*
X73524000Y-65278000D02*
X74159000Y-64643000D01*
X69732999Y-69069001D02*
X73524000Y-65278000D01*
X63618000Y-65532000D02*
X63618000Y-64643000D01*
X67682000Y-85471000D02*
X67682000Y-69596000D01*
X67682000Y-69596000D02*
X65142000Y-67056000D01*
X65142000Y-67056000D02*
X63618000Y-65532000D01*
X65142000Y-67056000D02*
X63745000Y-67056000D01*
X63745000Y-67056000D02*
X63237000Y-67564000D01*
X69732999Y-85471000D02*
X69732999Y-69069001D01*
X69333000Y-86868000D02*
X69732999Y-86468001D01*
X69732999Y-86468001D02*
X69732999Y-85471000D01*
D14*
X73651000Y-27559000D02*
X73778000Y-27559000D01*
X72762000Y-26670000D02*
X73651000Y-27559000D01*
X47362000Y-27559000D02*
X73778000Y-27559000D01*
X73778000Y-27559000D02*
X75683000Y-27559000D01*
X75683000Y-27559000D02*
X80763000Y-22479000D01*
X197818995Y-26905001D02*
X203934001Y-26905001D01*
X203934001Y-26905001D02*
X204334000Y-27305000D01*
X197418996Y-27305000D02*
X197818995Y-26905001D01*
X170425000Y-27305000D02*
X197418996Y-27305000D01*
X165599000Y-22479000D02*
X170425000Y-27305000D01*
X80763000Y-22479000D02*
X165599000Y-22479000D01*
X73524000Y-24892000D02*
X73778000Y-24892000D01*
X72762000Y-24130000D02*
X73524000Y-24892000D01*
X47489000Y-24892000D02*
X73778000Y-24892000D01*
X203934001Y-24492001D02*
X204334000Y-24892000D01*
X197564997Y-24492001D02*
X203934001Y-24492001D01*
X197164998Y-24892000D02*
X197564997Y-24492001D01*
X73778000Y-24892000D02*
X76445000Y-24892000D01*
X76445000Y-24892000D02*
X80509000Y-20828000D01*
X175251000Y-24892000D02*
X197164998Y-24892000D01*
X171187000Y-20828000D02*
X175251000Y-24892000D01*
X80509000Y-20828000D02*
X171187000Y-20828000D01*
X73905000Y-62611000D02*
X73669999Y-62375999D01*
X73905000Y-62738000D02*
X73905000Y-62611000D01*
X73669999Y-62375999D02*
X73270000Y-61976000D01*
X73905000Y-62738000D02*
X47860680Y-62738000D01*
X47757339Y-62841341D02*
X47357340Y-63241340D01*
X47860680Y-62738000D02*
X47757339Y-62841341D01*
X199752389Y-62738000D02*
X203768315Y-62738000D01*
X199694400Y-62795989D02*
X199752389Y-62738000D01*
X197603985Y-62795989D02*
X199694400Y-62795989D01*
X197037996Y-62230000D02*
X197603985Y-62795989D01*
X203768315Y-62738000D02*
X204334000Y-62738000D01*
X73905000Y-62738000D02*
X74413000Y-62230000D01*
X74413000Y-62230000D02*
X197037996Y-62230000D01*
X74286000Y-60706000D02*
X204334000Y-60706000D01*
X47362000Y-60706000D02*
X74286000Y-60706000D01*
X73669999Y-60343999D02*
X73270000Y-59944000D01*
X74032000Y-60706000D02*
X73669999Y-60343999D01*
X74286000Y-60706000D02*
X74032000Y-60706000D01*
X74286000Y-57658000D02*
X204334000Y-57658000D01*
X47362000Y-57658000D02*
X74286000Y-57658000D01*
X74032000Y-57658000D02*
X73669999Y-57295999D01*
X74286000Y-57658000D02*
X74032000Y-57658000D01*
X73669999Y-57295999D02*
X73270000Y-56896000D01*
X74540000Y-55626000D02*
X204334000Y-55626000D01*
X47362000Y-55626000D02*
X74540000Y-55626000D01*
X73796999Y-55136995D02*
X73397000Y-54736996D01*
X74540000Y-55626000D02*
X74286004Y-55626000D01*
X74286004Y-55626000D02*
X73796999Y-55136995D01*
X47362000Y-53086000D02*
X47870000Y-52578000D01*
X47870000Y-52578000D02*
X75175000Y-52578000D01*
X75175000Y-52578000D02*
X74413000Y-51816000D01*
X74216685Y-51816000D02*
X73651000Y-51816000D01*
X74413000Y-51816000D02*
X74216685Y-51816000D01*
X203934001Y-52977999D02*
X204334000Y-52578000D01*
X197564997Y-52977999D02*
X203934001Y-52977999D01*
X197164998Y-52578000D02*
X197564997Y-52977999D01*
X75175000Y-52578000D02*
X197164998Y-52578000D01*
X47362000Y-50546000D02*
X47870000Y-50038000D01*
X74794000Y-50038000D02*
X204334000Y-50038000D01*
X47870000Y-50038000D02*
X74794000Y-50038000D01*
X74794000Y-50038000D02*
X74413004Y-50038000D01*
X74051003Y-49675999D02*
X73651004Y-49276000D01*
X74413004Y-50038000D02*
X74051003Y-49675999D01*
X47362000Y-48006000D02*
X47870000Y-47498000D01*
X74794000Y-47498000D02*
X204334000Y-47498000D01*
X47870000Y-47498000D02*
X74794000Y-47498000D01*
X74050999Y-47136003D02*
X73651000Y-46736004D01*
X74412996Y-47498000D02*
X74050999Y-47136003D01*
X74794000Y-47498000D02*
X74412996Y-47498000D01*
X204334000Y-45212000D02*
X204461000Y-45085000D01*
X74794000Y-45212000D02*
X204334000Y-45212000D01*
X47235000Y-45212000D02*
X74794000Y-45212000D01*
X74412998Y-45212000D02*
X74050997Y-44849999D01*
X74050997Y-44849999D02*
X73650998Y-44450000D01*
X74794000Y-45212000D02*
X74412998Y-45212000D01*
X74413000Y-42672000D02*
X204461000Y-42672000D01*
X47235000Y-42672000D02*
X74413000Y-42672000D01*
X74413000Y-42672000D02*
X74050999Y-42309999D01*
X74050999Y-42309999D02*
X73651000Y-41910000D01*
X74413000Y-40005000D02*
X204461000Y-40005000D01*
X47235000Y-40005000D02*
X74413000Y-40005000D01*
X74286000Y-40005000D02*
X73923999Y-39642999D01*
X74413000Y-40005000D02*
X74286000Y-40005000D01*
X73923999Y-39642999D02*
X73524000Y-39243000D01*
X47235000Y-37592000D02*
X73905000Y-37592000D01*
X73905000Y-37592000D02*
X204334000Y-37592000D01*
X73905000Y-37592000D02*
X73905000Y-37338002D01*
X73905000Y-37338002D02*
X73796999Y-37230001D01*
X73796999Y-37230001D02*
X73397000Y-36830002D01*
X74540000Y-35052000D02*
X204334000Y-35052000D01*
X47362000Y-35052000D02*
X74540000Y-35052000D01*
X73670007Y-34562999D02*
X73270008Y-34163000D01*
X74540000Y-35052000D02*
X74159008Y-35052000D01*
X74159008Y-35052000D02*
X73670007Y-34562999D01*
X74032000Y-32385000D02*
X204334000Y-32385000D01*
X47362000Y-32385000D02*
X74032000Y-32385000D01*
X73814990Y-32385000D02*
X73669999Y-32240009D01*
X73669999Y-32240009D02*
X73270000Y-31840010D01*
X74032000Y-32385000D02*
X73814990Y-32385000D01*
X77225999Y-29609999D02*
X77588000Y-29972000D01*
X76826000Y-29210000D02*
X77225999Y-29609999D01*
X47362000Y-29972000D02*
X77588000Y-29972000D01*
X204080000Y-30226000D02*
X204334000Y-29972000D01*
X77588000Y-29972000D02*
X77842000Y-30226000D01*
X77842000Y-30226000D02*
X204080000Y-30226000D01*
X47997000Y-25654000D02*
X47362000Y-26289000D01*
X76572000Y-25654000D02*
X47997000Y-25654000D01*
X80509000Y-21717000D02*
X76572000Y-25654000D01*
X168266000Y-21717000D02*
X80509000Y-21717000D01*
X172584000Y-26035000D02*
X168266000Y-21717000D01*
X204334000Y-26035000D02*
X198619000Y-26035000D01*
X198619000Y-26035000D02*
X172584000Y-26035000D01*
X198619000Y-26035000D02*
X198619000Y-25781000D01*
X198619000Y-25781000D02*
X198510999Y-25672999D01*
X198510999Y-25672999D02*
X198111000Y-25273000D01*
X47362000Y-28829000D02*
X75429000Y-28829000D01*
X75429000Y-28829000D02*
X80763000Y-23495000D01*
X80763000Y-23495000D02*
X162424000Y-23495000D01*
X162424000Y-23495000D02*
X166684010Y-27755010D01*
X166684010Y-27755010D02*
X167504000Y-28575000D01*
X198873000Y-28575000D02*
X204334000Y-28575000D01*
X167504000Y-28575000D02*
X198873000Y-28575000D01*
X198873000Y-28575000D02*
X198873000Y-28447999D01*
X198638000Y-28212999D02*
X198238001Y-27813000D01*
X198873000Y-28447999D02*
X198638000Y-28212999D01*
X204334000Y-31115000D02*
X203934001Y-30715001D01*
X199000000Y-30734000D02*
X198238000Y-31496000D01*
X199000000Y-30715001D02*
X199000000Y-30734000D01*
X203934001Y-30715001D02*
X199000000Y-30715001D01*
X199000000Y-30715001D02*
X198600001Y-31115000D01*
X198600001Y-31115000D02*
X47235000Y-31115000D01*
X47761999Y-33255001D02*
X47362000Y-33655000D01*
X204334000Y-33655000D02*
X203934001Y-33255001D01*
X198873000Y-33274000D02*
X198111000Y-34036000D01*
X198873000Y-33255001D02*
X198873000Y-33274000D01*
X198873000Y-33255001D02*
X47761999Y-33255001D01*
X203934001Y-33255001D02*
X198873000Y-33255001D01*
X204334000Y-36195000D02*
X203934001Y-35795001D01*
X47634999Y-35795001D02*
X47235000Y-36195000D01*
X198873000Y-35814000D02*
X198111000Y-36576000D01*
X198873000Y-35795001D02*
X198873000Y-35814000D01*
X198873000Y-35795001D02*
X47634999Y-35795001D01*
X203934001Y-35795001D02*
X198873000Y-35795001D01*
X204334000Y-38735000D02*
X203934001Y-38335001D01*
X47507999Y-38462001D02*
X47108000Y-38862000D01*
X47634999Y-38335001D02*
X47507999Y-38462001D01*
X198873000Y-38354000D02*
X198111000Y-39116000D01*
X198873000Y-38335001D02*
X198873000Y-38354000D01*
X198873000Y-38335001D02*
X47634999Y-38335001D01*
X203934001Y-38335001D02*
X198873000Y-38335001D01*
X204461000Y-41275000D02*
X204061001Y-40875001D01*
X47507999Y-40875001D02*
X47108000Y-41275000D01*
X198873000Y-41021000D02*
X198111000Y-41783000D01*
X198873000Y-40875001D02*
X198873000Y-41021000D01*
X198873000Y-40875001D02*
X47507999Y-40875001D01*
X204061001Y-40875001D02*
X198873000Y-40875001D01*
X47634999Y-43542001D02*
X47235000Y-43942000D01*
X204334000Y-43815000D02*
X203934001Y-43415001D01*
X47761999Y-43415001D02*
X47634999Y-43542001D01*
X198891999Y-43415001D02*
X197984000Y-44323000D01*
X199254000Y-43415001D02*
X198891999Y-43415001D01*
X199254000Y-43415001D02*
X47761999Y-43415001D01*
X203934001Y-43415001D02*
X199254000Y-43415001D01*
X47761999Y-46082001D02*
X47362000Y-46482000D01*
X204334000Y-46482000D02*
X203735998Y-45883998D01*
X47960002Y-45883998D02*
X47761999Y-46082001D01*
X199000000Y-45974000D02*
X198238000Y-46736000D01*
X199000000Y-45883998D02*
X199000000Y-45974000D01*
X199000000Y-45883998D02*
X47960002Y-45883998D01*
X203735998Y-45883998D02*
X199000000Y-45883998D01*
X47927685Y-49022000D02*
X47362000Y-49022000D01*
X204334000Y-49022000D02*
X203608998Y-48296998D01*
X72540998Y-48296998D02*
X71815996Y-49022000D01*
X71815996Y-49022000D02*
X47927685Y-49022000D01*
X199217002Y-48296998D02*
X198365000Y-49149000D01*
X199508000Y-48296998D02*
X199217002Y-48296998D01*
X199508000Y-48296998D02*
X72540998Y-48296998D01*
X203608998Y-48296998D02*
X199508000Y-48296998D01*
X72831996Y-51562000D02*
X47927685Y-51562000D01*
X204334000Y-51562000D02*
X203862998Y-51090998D01*
X73302998Y-51090998D02*
X72831996Y-51562000D01*
X47927685Y-51562000D02*
X47362000Y-51562000D01*
X199254000Y-51090998D02*
X73302998Y-51090998D01*
X203862998Y-51090998D02*
X199254000Y-51090998D01*
X199254000Y-51090998D02*
X199217002Y-51090998D01*
X198637999Y-51670001D02*
X198238000Y-52070000D01*
X199217002Y-51090998D02*
X198637999Y-51670001D01*
X204334000Y-54102000D02*
X203934001Y-53702001D01*
X47761999Y-53702001D02*
X47362000Y-54102000D01*
X199399999Y-53702001D02*
X198492000Y-54610000D01*
X199508000Y-53702001D02*
X199399999Y-53702001D01*
X199508000Y-53702001D02*
X47761999Y-53702001D01*
X203934001Y-53702001D02*
X199508000Y-53702001D01*
X204334000Y-56642000D02*
X203768315Y-56642000D01*
X47927685Y-56642000D02*
X47362000Y-56642000D01*
X203768315Y-56642000D02*
X203297313Y-56170998D01*
X48398687Y-56170998D02*
X47927685Y-56642000D01*
X199217002Y-56170998D02*
X198492000Y-56896000D01*
X199762000Y-56170998D02*
X199217002Y-56170998D01*
X199762000Y-56170998D02*
X48398687Y-56170998D01*
X203297313Y-56170998D02*
X199762000Y-56170998D01*
X199254000Y-59182000D02*
X198492000Y-59944000D01*
X200270000Y-59182000D02*
X199254000Y-59182000D01*
X200270000Y-59182000D02*
X47362000Y-59182000D01*
X204334000Y-59182000D02*
X200270000Y-59182000D01*
X48398687Y-61250998D02*
X47927685Y-61722000D01*
X47927685Y-61722000D02*
X47362000Y-61722000D01*
X203768315Y-61722000D02*
X203297313Y-61250998D01*
X204334000Y-61722000D02*
X203768315Y-61722000D01*
X199508000Y-61250998D02*
X48398687Y-61250998D01*
X203297313Y-61250998D02*
X199508000Y-61250998D01*
X199184987Y-61250998D02*
X198765005Y-61670980D01*
X199508000Y-61250998D02*
X199184987Y-61250998D01*
X198765005Y-61670980D02*
X198365006Y-62070979D01*
X48378000Y-63246000D02*
X47362000Y-64262000D01*
X199000000Y-63246000D02*
X48378000Y-63246000D01*
X204207000Y-64135000D02*
X204334000Y-64262000D01*
X199127000Y-64964000D02*
X199956000Y-64135000D01*
X199956000Y-64135000D02*
X204207000Y-64135000D01*
X199889000Y-64135000D02*
X199000000Y-63246000D01*
X199956000Y-64135000D02*
X199889000Y-64135000D01*
M02*
