M48
;DRILL file {KiCad (5.0.0-rc2-60-gbfa89039c)} date 08/02/19 13:49:02
;FORMAT={-:-/ absolute / inch / decimal}
FMAT,2
INCH,TZ
T1C0.0157
T2C0.1260
T3C0.2047
%
G90
G05
M72
T1
X6.2Y-4.425
X6.2Y-6.3935
X6.225Y-4.4
X6.225Y-6.3685
X6.2323Y-2.811
X6.2323Y-4.7795
X6.45Y-4.1
X6.45Y-4.15
X6.45Y-6.0685
X6.45Y-6.1185
X6.475Y-2.975
X6.475Y-4.9435
X6.5Y-2.925
X6.5Y-4.8935
X7.45Y-3.
X7.45Y-4.125
X7.45Y-4.9685
X7.45Y-6.0935
X7.5Y-3.
X7.5Y-4.125
X7.5Y-4.9685
X7.5Y-6.0935
X7.55Y-3.
X7.55Y-4.1496
X7.55Y-4.9685
X7.55Y-6.1185
X7.6Y-3.
X7.6Y-4.1496
X7.6Y-4.9685
X7.6Y-6.1185
X7.675Y-3.95
X7.675Y-5.9185
X7.725Y-3.1
X7.725Y-5.0685
X7.75Y-3.95
X7.75Y-5.9185
X7.825Y-3.95
X7.825Y-5.9185
X7.85Y-3.05
X7.85Y-5.0185
X7.95Y-3.05
X7.95Y-4.15
X7.95Y-4.2
X7.95Y-5.0185
X7.95Y-6.1185
X7.95Y-6.1685
X8.Y-3.05
X8.Y-5.0185
X8.05Y-4.
X8.05Y-5.9685
X8.1Y-4.
X8.1Y-5.9685
X8.1614Y-3.6181
X8.1614Y-3.874
X8.1614Y-5.5866
X8.1614Y-5.8425
X8.1811Y-3.0079
X8.1811Y-4.9764
X8.25Y-4.1
X8.25Y-6.0685
X8.5748Y-3.2441
X8.5748Y-5.2126
X9.0472Y-3.3622
X9.0472Y-5.3307
X9.0669Y-3.3228
X9.0669Y-5.2913
X9.1063Y-3.6575
X9.1063Y-5.626
X9.126Y-3.6181
X9.126Y-5.5866
T2
X9.3031Y-4.2874
X9.3031Y-6.2559
X6.6654Y-2.7126
X6.6654Y-6.2559
X9.3031Y-4.6811
X6.6654Y-4.2874
X9.3031Y-2.7126
X6.6654Y-4.6811
T3
X9.3031Y-5.9803
X9.3031Y-2.9882
X9.3031Y-4.0118
X9.3031Y-4.9567
T0
M30
