G04 #@! TF.GenerationSoftware,KiCad,Pcbnew,(5.0.0-rc2-60-gbfa89039c)*
G04 #@! TF.CreationDate,2019-08-02T13:48:58+03:00*
G04 #@! TF.ProjectId,ModelPCB,4D6F64656C5043422E6B696361645F70,rev?*
G04 #@! TF.SameCoordinates,Original*
G04 #@! TF.FileFunction,Copper,L2,Bot,Signal*
G04 #@! TF.FilePolarity,Positive*
%FSLAX46Y46*%
G04 Gerber Fmt 4.6, Leading zero omitted, Abs format (unit mm)*
G04 Created by KiCad (PCBNEW (5.0.0-rc2-60-gbfa89039c)) date 08/02/19 13:48:58*
%MOMM*%
%LPD*%
G01*
G04 APERTURE LIST*
G04 #@! TA.AperFunction,NonConductor*
%ADD10C,0.050000*%
G04 #@! TD*
G04 #@! TA.AperFunction,ComponentPad*
%ADD11C,5.000000*%
G04 #@! TD*
G04 #@! TA.AperFunction,ComponentPad*
%ADD12C,5.500000*%
G04 #@! TD*
G04 #@! TA.AperFunction,ViaPad*
%ADD13C,0.800000*%
G04 #@! TD*
G04 #@! TA.AperFunction,Conductor*
%ADD14C,0.800000*%
G04 #@! TD*
G04 #@! TA.AperFunction,Conductor*
%ADD15C,0.250000*%
G04 #@! TD*
G04 APERTURE END LIST*
D10*
X162300000Y-150900000D02*
X162300000Y-126900000D01*
X154300000Y-126900000D02*
X154300000Y-113900000D01*
X162300000Y-126900000D02*
X154300000Y-126900000D01*
X154300000Y-150900000D02*
X162300000Y-150900000D01*
X154300000Y-163900000D02*
X154300000Y-150900000D01*
X241300000Y-163900000D02*
X241300000Y-113900000D01*
X241300000Y-163900000D02*
X154300000Y-163900000D01*
X154300000Y-63900000D02*
X241300000Y-63900000D01*
X154300000Y-113900000D02*
X154300000Y-100900000D01*
X154300000Y-76900000D02*
X154300000Y-63900000D01*
X162300000Y-76900000D02*
X154300000Y-76900000D01*
X162300000Y-100900000D02*
X162300000Y-76900000D01*
X154300000Y-100900000D02*
X162300000Y-100900000D01*
X241300000Y-113900000D02*
X241300000Y-63900000D01*
D11*
G04 #@! TO.P,H3,1*
G04 #@! TO.N,N/C*
X236300000Y-118900000D03*
G04 #@! TD*
G04 #@! TO.P,H1,1*
G04 #@! TO.N,N/C*
X169300000Y-158900000D03*
G04 #@! TD*
D12*
G04 #@! TO.P,H5,1*
G04 #@! TO.N,N/C*
X236300000Y-125900000D03*
G04 #@! TD*
G04 #@! TO.P,H6,1*
G04 #@! TO.N,N/C*
X236300000Y-151900000D03*
G04 #@! TD*
D11*
G04 #@! TO.P,H2,1*
G04 #@! TO.N,N/C*
X169300000Y-118900000D03*
G04 #@! TD*
G04 #@! TO.P,H4,1*
G04 #@! TO.N,N/C*
X236300000Y-158900000D03*
G04 #@! TD*
G04 #@! TO.P,H2,1*
G04 #@! TO.N,N/C*
X169300000Y-68900000D03*
G04 #@! TD*
G04 #@! TO.P,H3,1*
G04 #@! TO.N,N/C*
X236300000Y-68900000D03*
G04 #@! TD*
D12*
G04 #@! TO.P,H6,1*
G04 #@! TO.N,N/C*
X236300000Y-101900000D03*
G04 #@! TD*
D11*
G04 #@! TO.P,H4,1*
G04 #@! TO.N,N/C*
X236300000Y-108900000D03*
G04 #@! TD*
D12*
G04 #@! TO.P,H5,1*
G04 #@! TO.N,N/C*
X236300000Y-75900000D03*
G04 #@! TD*
D11*
G04 #@! TO.P,H1,1*
G04 #@! TO.N,N/C*
X169300000Y-108900000D03*
G04 #@! TD*
D13*
G04 #@! TO.N,Net-(J1-Pad2)*
X165100000Y-74295000D03*
X164465000Y-75565000D03*
X231300000Y-92899948D03*
X231800000Y-91900000D03*
X165100000Y-124295000D03*
X164465000Y-125565000D03*
X231300000Y-142899948D03*
X231800000Y-141900000D03*
G04 #@! TO.N,/GND*
X199390000Y-77470000D03*
X196850000Y-100330000D03*
X198755000Y-100330000D03*
X196215000Y-78740000D03*
X194945000Y-100330000D03*
X196215000Y-128740000D03*
X199390000Y-127470000D03*
X196850000Y-150330000D03*
X198755000Y-150330000D03*
X194945000Y-150330000D03*
G04 #@! TO.N,Net-(J1-Pad5)*
X158300000Y-71400000D03*
X229800000Y-85400000D03*
X230300000Y-84400000D03*
X158300000Y-121400000D03*
X229800000Y-135400000D03*
X230300000Y-134400000D03*
G04 #@! TO.N,/SIG*
X209550000Y-104140000D03*
X207800000Y-76400000D03*
X217800000Y-82400000D03*
X209550000Y-154140000D03*
X207800000Y-126400000D03*
X217800000Y-132400000D03*
G04 #@! TO.N,/5V*
X201930000Y-77470000D03*
X203200000Y-77470000D03*
X205740000Y-101600000D03*
X204470000Y-101600000D03*
X157480000Y-112395000D03*
X158115000Y-111760000D03*
X201930000Y-105410000D03*
X201930000Y-106680000D03*
X201930000Y-127470000D03*
X203200000Y-127470000D03*
X205740000Y-151600000D03*
X204470000Y-151600000D03*
X157480000Y-162395000D03*
X158115000Y-161760000D03*
X201930000Y-155410000D03*
X201930000Y-156680000D03*
G04 #@! TO.N,/12V*
X163830000Y-104140000D03*
X163830000Y-105410000D03*
X189230000Y-76200000D03*
X190500000Y-76200000D03*
X190500000Y-104775000D03*
X189230000Y-104775000D03*
X163830000Y-154140000D03*
X163830000Y-155410000D03*
X189230000Y-126200000D03*
X190500000Y-126200000D03*
X190500000Y-154775000D03*
X189230000Y-154775000D03*
G04 #@! TO.N,Net-(J2-Pad2)*
X193040000Y-76200000D03*
X191770000Y-76200000D03*
X193040000Y-155410000D03*
X193040000Y-126200000D03*
X191770000Y-126200000D03*
X191770000Y-155410000D03*
X191770000Y-105399990D03*
X193040000Y-105399990D03*
G04 #@! TO.N,/SIG_BP*
X207300000Y-98400000D03*
X207300000Y-91900000D03*
X207300000Y-148400000D03*
X207300000Y-141900000D03*
G04 #@! TD*
D14*
G04 #@! TO.N,Net-(J1-Pad2)*
X166004992Y-75834992D02*
X165100000Y-74930000D01*
X165100000Y-74930000D02*
X165100000Y-74295000D01*
X166004992Y-75834992D02*
X164734992Y-75834992D01*
X164734992Y-75834992D02*
X164465000Y-75565000D01*
X230900001Y-92499949D02*
X231300000Y-92899948D01*
X166909984Y-74930000D02*
X213330052Y-74930000D01*
X166004992Y-75834992D02*
X166909984Y-74930000D01*
X230300052Y-91900000D02*
X231800000Y-91900000D01*
X230300052Y-91900000D02*
X230900001Y-92499949D01*
X213330052Y-74930000D02*
X230300052Y-91900000D01*
X230900001Y-142499949D02*
X231300000Y-142899948D01*
X166909984Y-124930000D02*
X213330052Y-124930000D01*
X166004992Y-125834992D02*
X166909984Y-124930000D01*
X213330052Y-124930000D02*
X230300052Y-141900000D01*
X230300052Y-141900000D02*
X230900001Y-142499949D01*
X230300052Y-141900000D02*
X231800000Y-141900000D01*
X164734992Y-125834992D02*
X164465000Y-125565000D01*
X165100000Y-124930000D02*
X165100000Y-124295000D01*
X166004992Y-125834992D02*
X164734992Y-125834992D01*
X166004992Y-125834992D02*
X165100000Y-124930000D01*
G04 #@! TO.N,/GND*
X199390000Y-77470000D02*
X200025000Y-78105000D01*
X200025000Y-78105000D02*
X198120000Y-80010000D01*
X198120000Y-80010000D02*
X198120000Y-99060000D01*
X198120000Y-99060000D02*
X196850000Y-100330000D01*
X198120000Y-99060000D02*
X198120000Y-99695000D01*
X198120000Y-99695000D02*
X198755000Y-100330000D01*
X196215000Y-78740000D02*
X196215000Y-99060000D01*
X196215000Y-99060000D02*
X194945000Y-100330000D01*
X196215000Y-128740000D02*
X196215000Y-149060000D01*
X198120000Y-149695000D02*
X198755000Y-150330000D01*
X198120000Y-149060000D02*
X198120000Y-149695000D01*
X199390000Y-127470000D02*
X200025000Y-128105000D01*
X200025000Y-128105000D02*
X198120000Y-130010000D01*
X198120000Y-149060000D02*
X196850000Y-150330000D01*
X198120000Y-130010000D02*
X198120000Y-149060000D01*
X196215000Y-149060000D02*
X194945000Y-150330000D01*
G04 #@! TO.N,Net-(J1-Pad5)*
X158699999Y-71000001D02*
X158300000Y-71400000D01*
X160599998Y-72900000D02*
X158699999Y-71000001D01*
X229300000Y-79900000D02*
X222300000Y-72900000D01*
X222300000Y-72900000D02*
X160599998Y-72900000D01*
X229300000Y-84900000D02*
X229800000Y-85400000D01*
X229800000Y-83900000D02*
X229300000Y-83900000D01*
X230300000Y-84400000D02*
X229800000Y-83900000D01*
X229300000Y-79900000D02*
X229300000Y-83900000D01*
X229300000Y-83900000D02*
X229300000Y-84900000D01*
X230300000Y-134400000D02*
X229800000Y-133900000D01*
X229800000Y-133900000D02*
X229300000Y-133900000D01*
X229300000Y-129900000D02*
X229300000Y-133900000D01*
X160599998Y-122900000D02*
X158699999Y-121000001D01*
X229300000Y-133900000D02*
X229300000Y-134900000D01*
X229300000Y-134900000D02*
X229800000Y-135400000D01*
X222300000Y-122900000D02*
X160599998Y-122900000D01*
X158699999Y-121000001D02*
X158300000Y-121400000D01*
X229300000Y-129900000D02*
X222300000Y-122900000D01*
D15*
G04 #@! TO.N,/SIG*
X207800000Y-83400000D02*
X207800000Y-76400000D01*
X209550000Y-104140000D02*
X209550000Y-85150000D01*
X209550000Y-85150000D02*
X207800000Y-83400000D01*
X209550000Y-85150000D02*
X215050000Y-85150000D01*
X215050000Y-85150000D02*
X217800000Y-82400000D01*
X207800000Y-133400000D02*
X207800000Y-126400000D01*
X209550000Y-154140000D02*
X209550000Y-135150000D01*
X209550000Y-135150000D02*
X207800000Y-133400000D01*
X209550000Y-135150000D02*
X215050000Y-135150000D01*
X215050000Y-135150000D02*
X217800000Y-132400000D01*
D14*
G04 #@! TO.N,/5V*
X201930000Y-77470000D02*
X202565000Y-78105000D01*
X203200000Y-77470000D02*
X202565000Y-78105000D01*
X205740000Y-101600000D02*
X205105000Y-100965000D01*
X204470000Y-101600000D02*
X205105000Y-100965000D01*
X158115000Y-112395000D02*
X157480000Y-112395000D01*
X158115000Y-112395000D02*
X158115000Y-111760000D01*
X201295000Y-106045000D02*
X201930000Y-106680000D01*
X201930000Y-105410000D02*
X201295000Y-106045000D01*
X202565000Y-78105000D02*
X202565000Y-100330000D01*
X203200000Y-100965000D02*
X202565000Y-100330000D01*
X205105000Y-100965000D02*
X203200000Y-100965000D01*
X202565000Y-128105000D02*
X202565000Y-150330000D01*
X205105000Y-150965000D02*
X203200000Y-150965000D01*
X205740000Y-151600000D02*
X205105000Y-150965000D01*
X201295000Y-156045000D02*
X194945000Y-162395000D01*
X201930000Y-127470000D02*
X202565000Y-128105000D01*
X201295000Y-156045000D02*
X201930000Y-156680000D01*
X158115000Y-162395000D02*
X157480000Y-162395000D01*
X203200000Y-127470000D02*
X202565000Y-128105000D01*
X204470000Y-151600000D02*
X205105000Y-150965000D01*
X194945000Y-162395000D02*
X158115000Y-162395000D01*
X201930000Y-155410000D02*
X201295000Y-156045000D01*
X203200000Y-150965000D02*
X202565000Y-150330000D01*
X158115000Y-162395000D02*
X158115000Y-161760000D01*
X164800000Y-107900000D02*
X160305000Y-112395000D01*
X160305000Y-112395000D02*
X158115000Y-112395000D01*
X201295000Y-106045000D02*
X200440000Y-106900000D01*
X200440000Y-106900000D02*
X174800000Y-106900000D01*
X174800000Y-106900000D02*
X172300000Y-104400000D01*
X172300000Y-104400000D02*
X167800000Y-104400000D01*
X167800000Y-104400000D02*
X164800000Y-107400000D01*
X164800000Y-107400000D02*
X164800000Y-107900000D01*
G04 #@! TO.N,/12V*
X164465000Y-104775000D02*
X163830000Y-104140000D01*
X164465000Y-104775000D02*
X163830000Y-105410000D01*
X189865000Y-76835000D02*
X189230000Y-76200000D01*
X189865000Y-76835000D02*
X190500000Y-76200000D01*
X190500000Y-104775000D02*
X189230000Y-104775000D01*
X189865000Y-104140000D02*
X190500000Y-104775000D01*
X189865000Y-76835000D02*
X189865000Y-104140000D01*
X189865000Y-104140000D02*
X189230000Y-104775000D01*
X164465000Y-154775000D02*
X163830000Y-155410000D01*
X189865000Y-126835000D02*
X189230000Y-126200000D01*
X164465000Y-154775000D02*
X163830000Y-154140000D01*
X189865000Y-126835000D02*
X190500000Y-126200000D01*
X189230000Y-154775000D02*
X164465000Y-154775000D01*
X189865000Y-154140000D02*
X190500000Y-154775000D01*
X189865000Y-126835000D02*
X189865000Y-154140000D01*
X190500000Y-154775000D02*
X189230000Y-154775000D01*
X189865000Y-154140000D02*
X189230000Y-154775000D01*
X167340000Y-101900000D02*
X164465000Y-104775000D01*
X189230000Y-104775000D02*
X186355000Y-101900000D01*
X186355000Y-101900000D02*
X167340000Y-101900000D01*
G04 #@! TO.N,Net-(J2-Pad2)*
X192405000Y-104775000D02*
X192405000Y-76835000D01*
X192405000Y-76835000D02*
X193040000Y-76200000D01*
X191770000Y-76200000D02*
X192405000Y-76835000D01*
X192405000Y-154775000D02*
X192405000Y-126835000D01*
X193040000Y-155410000D02*
X192405000Y-154775000D01*
X191770000Y-126200000D02*
X192405000Y-126835000D01*
X192405000Y-154775000D02*
X191770000Y-155410000D01*
X192405000Y-126835000D02*
X193040000Y-126200000D01*
X192640001Y-104999991D02*
X193040000Y-105399990D01*
X192415010Y-104775000D02*
X192640001Y-104999991D01*
X192405000Y-104775000D02*
X192415010Y-104775000D01*
X192169999Y-104999991D02*
X191770000Y-105399990D01*
X192405000Y-104775000D02*
X192394990Y-104775000D01*
X192394990Y-104775000D02*
X192169999Y-104999991D01*
D15*
G04 #@! TO.N,/SIG_BP*
X207300000Y-98400000D02*
X207300000Y-94400000D01*
X207300000Y-94400000D02*
X207300000Y-91900000D01*
X207300000Y-148400000D02*
X207300000Y-144400000D01*
X207300000Y-144400000D02*
X207300000Y-141900000D01*
G04 #@! TD*
M02*
