<?xml version="1.0" standalone="no"?>
 <!DOCTYPE svg PUBLIC "-//W3C//DTD SVG 1.1//EN" 
 "http://www.w3.org/Graphics/SVG/1.1/DTD/svg11.dtd"> 
<svg xmlns="http://www.w3.org/2000/svg" version="1.1" 
    width="9.51484cm" height="11.303cm" viewBox="0 0 37460 44500 ">
<title>SVG Picture created as MegaShield-F.CrtYd.svg date 2019/08/26 15:09:16 </title>
  <desc>Picture generated by PCBNEW </desc>
<g style="fill:#000000; fill-opacity:1;stroke:#000000; stroke-opacity:1;
stroke-linecap:round; stroke-linejoin:round; "
 transform="translate(0 0) scale(1 1)">
</g>
<g style="fill:#000000; fill-opacity:0.0; 
stroke:#000000; stroke-width:-0.000393701; stroke-opacity:1; 
stroke-linecap:round; stroke-linejoin:round;">
</g>
<g style="fill:#000000; fill-opacity:0.0; 
stroke:#000000; stroke-width:19.685; stroke-opacity:1; 
stroke-linecap:round; stroke-linejoin:round;">
<path d="M15727 35537
L15727 30474
" />
<path d="M14467 35537
L15727 35537
" />
<path d="M14467 30474
L14467 35537
" />
<path d="M15727 30474
L14467 30474
" />
<path d="M36987 34019
L36987 29192
" />
<path d="M35806 34019
L36987 34019
" />
<path d="M35806 29192
L35806 34019
" />
<path d="M36987 29192
L35806 29192
" />
<path d="M13387 35319
L13387 30492
" />
<path d="M12206 35319
L13387 35319
" />
<path d="M12206 30492
L12206 35319
" />
<path d="M13387 30492
L12206 30492
" />
<path d="M23660 35065
L18833 35065
" />
<path d="M23660 36246
L23660 35065
" />
<path d="M18833 36246
L23660 36246
" />
<path d="M18833 35065
L18833 36246
" />
<path d="M21737 12669
L21737 7842
" />
<path d="M20556 12669
L21737 12669
" />
<path d="M20556 7842
L20556 12669
" />
<path d="M21737 7842
L20556 7842
" />
<path d="M19737 15169
L19737 10342
" />
<path d="M18556 15169
L19737 15169
" />
<path d="M18556 10342
L18556 15169
" />
<path d="M19737 10342
L18556 10342
" />
</g> 
</svg>
