G04 #@! TF.GenerationSoftware,KiCad,Pcbnew,6.0.0-rc1-unknown-1a22918~65~ubuntu16.04.1*
G04 #@! TF.CreationDate,2019-08-07T16:55:44+03:00*
G04 #@! TF.ProjectId,ModelBasePCB,4D6F64656C426173655043422E6B6963,rev?*
G04 #@! TF.SameCoordinates,Original*
G04 #@! TF.FileFunction,Legend,Bot*
G04 #@! TF.FilePolarity,Positive*
%FSLAX46Y46*%
G04 Gerber Fmt 4.6, Leading zero omitted, Abs format (unit mm)*
G04 Created by KiCad (PCBNEW 6.0.0-rc1-unknown-1a22918~65~ubuntu16.04.1) date Wed Aug  7 16:55:44 2019*
%MOMM*%
%LPD*%
G01*
G04 APERTURE LIST*
%ADD10C,0.300000*%
%ADD11C,0.200000*%
G04 APERTURE END LIST*
D10*
X147392857Y-90750000D02*
X147321428Y-90535714D01*
X147321428Y-90178571D01*
X147392857Y-90035714D01*
X147464285Y-89964285D01*
X147607142Y-89892857D01*
X147750000Y-89892857D01*
X147892857Y-89964285D01*
X147964285Y-90035714D01*
X148035714Y-90178571D01*
X148107142Y-90464285D01*
X148178571Y-90607142D01*
X148250000Y-90678571D01*
X148392857Y-90750000D01*
X148535714Y-90750000D01*
X148678571Y-90678571D01*
X148750000Y-90607142D01*
X148821428Y-90464285D01*
X148821428Y-90107142D01*
X148750000Y-89892857D01*
X147321428Y-89250000D02*
X148821428Y-89250000D01*
X148750000Y-87750000D02*
X148821428Y-87892857D01*
X148821428Y-88107142D01*
X148750000Y-88321428D01*
X148607142Y-88464285D01*
X148464285Y-88535714D01*
X148178571Y-88607142D01*
X147964285Y-88607142D01*
X147678571Y-88535714D01*
X147535714Y-88464285D01*
X147392857Y-88321428D01*
X147321428Y-88107142D01*
X147321428Y-87964285D01*
X147392857Y-87750000D01*
X147464285Y-87678571D01*
X147964285Y-87678571D01*
X147964285Y-87964285D01*
X148821428Y-85178571D02*
X148821428Y-85892857D01*
X148107142Y-85964285D01*
X148178571Y-85892857D01*
X148250000Y-85750000D01*
X148250000Y-85392857D01*
X148178571Y-85250000D01*
X148107142Y-85178571D01*
X147964285Y-85107142D01*
X147607142Y-85107142D01*
X147464285Y-85178571D01*
X147392857Y-85250000D01*
X147321428Y-85392857D01*
X147321428Y-85750000D01*
X147392857Y-85892857D01*
X147464285Y-85964285D01*
X148321428Y-84607142D02*
X147321428Y-84250000D01*
X148321428Y-83892857D01*
X148750000Y-81392857D02*
X148821428Y-81535714D01*
X148821428Y-81750000D01*
X148750000Y-81964285D01*
X148607142Y-82107142D01*
X148464285Y-82178571D01*
X148178571Y-82250000D01*
X147964285Y-82250000D01*
X147678571Y-82178571D01*
X147535714Y-82107142D01*
X147392857Y-81964285D01*
X147321428Y-81750000D01*
X147321428Y-81607142D01*
X147392857Y-81392857D01*
X147464285Y-81321428D01*
X147964285Y-81321428D01*
X147964285Y-81607142D01*
X147321428Y-80678571D02*
X148821428Y-80678571D01*
X147321428Y-79821428D01*
X148821428Y-79821428D01*
X147321428Y-79107142D02*
X148821428Y-79107142D01*
X148821428Y-78750000D01*
X148750000Y-78535714D01*
X148607142Y-78392857D01*
X148464285Y-78321428D01*
X148178571Y-78250000D01*
X147964285Y-78250000D01*
X147678571Y-78321428D01*
X147535714Y-78392857D01*
X147392857Y-78535714D01*
X147321428Y-78750000D01*
X147321428Y-79107142D01*
X148750000Y-75678571D02*
X148821428Y-75821428D01*
X148821428Y-76035714D01*
X148750000Y-76250000D01*
X148607142Y-76392857D01*
X148464285Y-76464285D01*
X148178571Y-76535714D01*
X147964285Y-76535714D01*
X147678571Y-76464285D01*
X147535714Y-76392857D01*
X147392857Y-76250000D01*
X147321428Y-76035714D01*
X147321428Y-75892857D01*
X147392857Y-75678571D01*
X147464285Y-75607142D01*
X147964285Y-75607142D01*
X147964285Y-75892857D01*
X147321428Y-74964285D02*
X148821428Y-74964285D01*
X147321428Y-74107142D01*
X148821428Y-74107142D01*
X147321428Y-73392857D02*
X148821428Y-73392857D01*
X148821428Y-73035714D01*
X148750000Y-72821428D01*
X148607142Y-72678571D01*
X148464285Y-72607142D01*
X148178571Y-72535714D01*
X147964285Y-72535714D01*
X147678571Y-72607142D01*
X147535714Y-72678571D01*
X147392857Y-72821428D01*
X147321428Y-73035714D01*
X147321428Y-73392857D01*
X147321428Y-69964285D02*
X147321428Y-70821428D01*
X147321428Y-70392857D02*
X148821428Y-70392857D01*
X148607142Y-70535714D01*
X148464285Y-70678571D01*
X148392857Y-70821428D01*
X148678571Y-69392857D02*
X148750000Y-69321428D01*
X148821428Y-69178571D01*
X148821428Y-68821428D01*
X148750000Y-68678571D01*
X148678571Y-68607142D01*
X148535714Y-68535714D01*
X148392857Y-68535714D01*
X148178571Y-68607142D01*
X147321428Y-69464285D01*
X147321428Y-68535714D01*
X148821428Y-68107142D02*
X147321428Y-67607142D01*
X148821428Y-67107142D01*
D11*
X120000000Y-80000000D02*
G75*
G03X120000000Y-80000000I-20000000J0D01*
G01*
X58000000Y-81500000D02*
X58000000Y-78500000D01*
X63000000Y-81500000D02*
X58000000Y-81500000D01*
X63000000Y-78500000D02*
X63000000Y-81500000D01*
X58000000Y-78500000D02*
X63000000Y-78500000D01*
X70000000Y-110000000D02*
X70000000Y-50000000D01*
X130000000Y-110000000D02*
X70000000Y-110000000D01*
X130000000Y-50000000D02*
X130000000Y-110000000D01*
X70000000Y-50000000D02*
X130000000Y-50000000D01*
X141000000Y-93000000D02*
G75*
G03X141000000Y-93000000I-2500000J0D01*
G01*
X141000000Y-67000000D02*
G75*
G03X141000000Y-67000000I-2500000J0D01*
G01*
X50000000Y-130000000D02*
X50000000Y-30000000D01*
X150000000Y-130000000D02*
X50000000Y-130000000D01*
X150000000Y-30000000D02*
X150000000Y-130000000D01*
X50000000Y-30000000D02*
X150000000Y-30000000D01*
M02*
