G04 #@! TF.GenerationSoftware,KiCad,Pcbnew,6.0.0-rc1-unknown-1a22918~65~ubuntu16.04.1*
G04 #@! TF.CreationDate,2019-08-07T16:55:44+03:00*
G04 #@! TF.ProjectId,ModelBasePCB,4D6F64656C426173655043422E6B6963,rev?*
G04 #@! TF.SameCoordinates,Original*
G04 #@! TF.FileFunction,Legend,Top*
G04 #@! TF.FilePolarity,Positive*
%FSLAX46Y46*%
G04 Gerber Fmt 4.6, Leading zero omitted, Abs format (unit mm)*
G04 Created by KiCad (PCBNEW 6.0.0-rc1-unknown-1a22918~65~ubuntu16.04.1) date Wed Aug  7 16:55:44 2019*
%MOMM*%
%LPD*%
G01*
G04 APERTURE LIST*
%ADD10C,0.300000*%
%ADD11C,0.200000*%
G04 APERTURE END LIST*
D10*
X149107142Y-91321428D02*
X149178571Y-91107142D01*
X149178571Y-90750000D01*
X149107142Y-90607142D01*
X149035714Y-90535714D01*
X148892857Y-90464285D01*
X148750000Y-90464285D01*
X148607142Y-90535714D01*
X148535714Y-90607142D01*
X148464285Y-90750000D01*
X148392857Y-91035714D01*
X148321428Y-91178571D01*
X148250000Y-91250000D01*
X148107142Y-91321428D01*
X147964285Y-91321428D01*
X147821428Y-91250000D01*
X147750000Y-91178571D01*
X147678571Y-91035714D01*
X147678571Y-90678571D01*
X147750000Y-90464285D01*
X149178571Y-89821428D02*
X147678571Y-89821428D01*
X147750000Y-88321428D02*
X147678571Y-88464285D01*
X147678571Y-88678571D01*
X147750000Y-88892857D01*
X147892857Y-89035714D01*
X148035714Y-89107142D01*
X148321428Y-89178571D01*
X148535714Y-89178571D01*
X148821428Y-89107142D01*
X148964285Y-89035714D01*
X149107142Y-88892857D01*
X149178571Y-88678571D01*
X149178571Y-88535714D01*
X149107142Y-88321428D01*
X149035714Y-88250000D01*
X148535714Y-88250000D01*
X148535714Y-88535714D01*
X147678571Y-85750000D02*
X147678571Y-86464285D01*
X148392857Y-86535714D01*
X148321428Y-86464285D01*
X148250000Y-86321428D01*
X148250000Y-85964285D01*
X148321428Y-85821428D01*
X148392857Y-85750000D01*
X148535714Y-85678571D01*
X148892857Y-85678571D01*
X149035714Y-85750000D01*
X149107142Y-85821428D01*
X149178571Y-85964285D01*
X149178571Y-86321428D01*
X149107142Y-86464285D01*
X149035714Y-86535714D01*
X147678571Y-85250000D02*
X149178571Y-84750000D01*
X147678571Y-84250000D01*
X147750000Y-81821428D02*
X147678571Y-81964285D01*
X147678571Y-82178571D01*
X147750000Y-82392857D01*
X147892857Y-82535714D01*
X148035714Y-82607142D01*
X148321428Y-82678571D01*
X148535714Y-82678571D01*
X148821428Y-82607142D01*
X148964285Y-82535714D01*
X149107142Y-82392857D01*
X149178571Y-82178571D01*
X149178571Y-82035714D01*
X149107142Y-81821428D01*
X149035714Y-81750000D01*
X148535714Y-81750000D01*
X148535714Y-82035714D01*
X149178571Y-81107142D02*
X147678571Y-81107142D01*
X149178571Y-80250000D01*
X147678571Y-80250000D01*
X149178571Y-79535714D02*
X147678571Y-79535714D01*
X147678571Y-79178571D01*
X147750000Y-78964285D01*
X147892857Y-78821428D01*
X148035714Y-78750000D01*
X148321428Y-78678571D01*
X148535714Y-78678571D01*
X148821428Y-78750000D01*
X148964285Y-78821428D01*
X149107142Y-78964285D01*
X149178571Y-79178571D01*
X149178571Y-79535714D01*
X147750000Y-76107142D02*
X147678571Y-76250000D01*
X147678571Y-76464285D01*
X147750000Y-76678571D01*
X147892857Y-76821428D01*
X148035714Y-76892857D01*
X148321428Y-76964285D01*
X148535714Y-76964285D01*
X148821428Y-76892857D01*
X148964285Y-76821428D01*
X149107142Y-76678571D01*
X149178571Y-76464285D01*
X149178571Y-76321428D01*
X149107142Y-76107142D01*
X149035714Y-76035714D01*
X148535714Y-76035714D01*
X148535714Y-76321428D01*
X149178571Y-75392857D02*
X147678571Y-75392857D01*
X149178571Y-74535714D01*
X147678571Y-74535714D01*
X149178571Y-73821428D02*
X147678571Y-73821428D01*
X147678571Y-73464285D01*
X147750000Y-73250000D01*
X147892857Y-73107142D01*
X148035714Y-73035714D01*
X148321428Y-72964285D01*
X148535714Y-72964285D01*
X148821428Y-73035714D01*
X148964285Y-73107142D01*
X149107142Y-73250000D01*
X149178571Y-73464285D01*
X149178571Y-73821428D01*
X149178571Y-70392857D02*
X149178571Y-71250000D01*
X149178571Y-70821428D02*
X147678571Y-70821428D01*
X147892857Y-70964285D01*
X148035714Y-71107142D01*
X148107142Y-71250000D01*
X147821428Y-69821428D02*
X147750000Y-69750000D01*
X147678571Y-69607142D01*
X147678571Y-69250000D01*
X147750000Y-69107142D01*
X147821428Y-69035714D01*
X147964285Y-68964285D01*
X148107142Y-68964285D01*
X148321428Y-69035714D01*
X149178571Y-69892857D01*
X149178571Y-68964285D01*
X147678571Y-68535714D02*
X149178571Y-68035714D01*
X147678571Y-67535714D01*
D11*
X120000000Y-80000000D02*
G75*
G03X120000000Y-80000000I-20000000J0D01*
G01*
X56500000Y-105500000D02*
X143500000Y-105500000D01*
X56500000Y-55000000D02*
X143500000Y-55000000D01*
X64500000Y-92000000D02*
X56500000Y-92000000D01*
X64500000Y-68000000D02*
X64500000Y-92000000D01*
X56500000Y-68000000D02*
X64500000Y-68000000D01*
X56500000Y-30000000D02*
X56500000Y-130000000D01*
X143500000Y-30000000D02*
X143500000Y-130000000D01*
X141000000Y-93000000D02*
G75*
G03X141000000Y-93000000I-2500000J0D01*
G01*
X141000000Y-67000000D02*
G75*
G03X141000000Y-67000000I-2500000J0D01*
G01*
X58000000Y-81500000D02*
X58000000Y-78500000D01*
X63000000Y-81500000D02*
X58000000Y-81500000D01*
X63000000Y-78500000D02*
X63000000Y-81500000D01*
X58000000Y-78500000D02*
X63000000Y-78500000D01*
X50000000Y-130000000D02*
X50000000Y-30000000D01*
X150000000Y-130000000D02*
X50000000Y-130000000D01*
X150000000Y-30000000D02*
X150000000Y-130000000D01*
X50000000Y-30000000D02*
X150000000Y-30000000D01*
M02*
