M48
;DRILL file {KiCad (5.0.0-rc2-60-gbfa89039c)} date 08/02/19 13:23:14
;FORMAT={-:-/ absolute / inch / decimal}
FMAT,2
INCH,TZ
T1C0.0157
T2C0.1260
T3C0.2047
%
G90
G05
M72
T1
X6.2Y-4.425
X6.225Y-4.4
X6.2323Y-2.811
X6.45Y-4.1
X6.45Y-4.15
X6.475Y-2.975
X6.5Y-2.925
X7.45Y-3.
X7.45Y-4.125
X7.5Y-3.
X7.5Y-4.125
X7.55Y-3.
X7.55Y-4.15
X7.6Y-3.
X7.6Y-4.15
X7.675Y-3.95
X7.725Y-3.1
X7.75Y-3.95
X7.825Y-3.95
X7.85Y-3.05
X7.95Y-3.05
X7.95Y-4.15
X7.95Y-4.2
X8.Y-3.05
X8.05Y-4.
X8.1Y-4.
X8.1614Y-3.6181
X8.1614Y-3.874
X8.1811Y-3.0079
X8.25Y-4.1
X8.5748Y-3.2441
X9.0472Y-3.3622
X9.0669Y-3.3228
X9.1063Y-3.6575
X9.126Y-3.6181
T2
X9.3031Y-2.7126
X9.3031Y-4.2874
X6.6654Y-2.7126
X6.6654Y-4.2874
T3
X9.3031Y-2.9882
X9.3031Y-4.0118
T0
M30
