G04 #@! TF.GenerationSoftware,KiCad,Pcbnew,(5.0.0-rc2-60-gbfa89039c)*
G04 #@! TF.CreationDate,2019-08-02T13:23:08+03:00*
G04 #@! TF.ProjectId,ModelPCB,4D6F64656C5043422E6B696361645F70,rev?*
G04 #@! TF.SameCoordinates,Original*
G04 #@! TF.FileFunction,Soldermask,Top*
G04 #@! TF.FilePolarity,Negative*
%FSLAX46Y46*%
G04 Gerber Fmt 4.6, Leading zero omitted, Abs format (unit mm)*
G04 Created by KiCad (PCBNEW (5.0.0-rc2-60-gbfa89039c)) date 08/02/19 13:23:08*
%MOMM*%
%LPD*%
G01*
G04 APERTURE LIST*
%ADD10C,0.050000*%
%ADD11C,0.150000*%
G04 APERTURE END LIST*
D10*
X154300000Y-63900000D02*
X241300000Y-63900000D01*
X154300000Y-113900000D02*
X154300000Y-100900000D01*
X154300000Y-76900000D02*
X154300000Y-63900000D01*
X162300000Y-76900000D02*
X154300000Y-76900000D01*
X241300000Y-113900000D02*
X154300000Y-113900000D01*
X162300000Y-100900000D02*
X162300000Y-76900000D01*
X154300000Y-100900000D02*
X162300000Y-100900000D01*
X241300000Y-113900000D02*
X241300000Y-63900000D01*
D11*
G36*
X237044096Y-106447033D02*
X237044098Y-106447034D01*
X237044099Y-106447034D01*
X237508352Y-106639333D01*
X237924284Y-106917250D01*
X237926171Y-106918511D01*
X238281489Y-107273829D01*
X238281491Y-107273832D01*
X238560667Y-107691648D01*
X238752966Y-108155901D01*
X238851000Y-108648748D01*
X238851000Y-109151252D01*
X238752966Y-109644099D01*
X238560667Y-110108352D01*
X238282750Y-110524284D01*
X238281489Y-110526171D01*
X237926171Y-110881489D01*
X237926168Y-110881491D01*
X237508352Y-111160667D01*
X237044099Y-111352966D01*
X237044098Y-111352966D01*
X237044096Y-111352967D01*
X236551253Y-111451000D01*
X236048747Y-111451000D01*
X235555904Y-111352967D01*
X235555902Y-111352966D01*
X235555901Y-111352966D01*
X235091648Y-111160667D01*
X234673832Y-110881491D01*
X234673829Y-110881489D01*
X234318511Y-110526171D01*
X234317250Y-110524284D01*
X234039333Y-110108352D01*
X233847034Y-109644099D01*
X233749000Y-109151252D01*
X233749000Y-108648748D01*
X233847034Y-108155901D01*
X234039333Y-107691648D01*
X234318509Y-107273832D01*
X234318511Y-107273829D01*
X234673829Y-106918511D01*
X234675716Y-106917250D01*
X235091648Y-106639333D01*
X235555901Y-106447034D01*
X235555902Y-106447034D01*
X235555904Y-106447033D01*
X236048747Y-106349000D01*
X236551253Y-106349000D01*
X237044096Y-106447033D01*
X237044096Y-106447033D01*
G37*
G36*
X170044096Y-106447033D02*
X170044098Y-106447034D01*
X170044099Y-106447034D01*
X170508352Y-106639333D01*
X170924284Y-106917250D01*
X170926171Y-106918511D01*
X171281489Y-107273829D01*
X171281491Y-107273832D01*
X171560667Y-107691648D01*
X171752966Y-108155901D01*
X171851000Y-108648748D01*
X171851000Y-109151252D01*
X171752966Y-109644099D01*
X171560667Y-110108352D01*
X171282750Y-110524284D01*
X171281489Y-110526171D01*
X170926171Y-110881489D01*
X170926168Y-110881491D01*
X170508352Y-111160667D01*
X170044099Y-111352966D01*
X170044098Y-111352966D01*
X170044096Y-111352967D01*
X169551253Y-111451000D01*
X169048747Y-111451000D01*
X168555904Y-111352967D01*
X168555902Y-111352966D01*
X168555901Y-111352966D01*
X168091648Y-111160667D01*
X167673832Y-110881491D01*
X167673829Y-110881489D01*
X167318511Y-110526171D01*
X167317250Y-110524284D01*
X167039333Y-110108352D01*
X166847034Y-109644099D01*
X166749000Y-109151252D01*
X166749000Y-108648748D01*
X166847034Y-108155901D01*
X167039333Y-107691648D01*
X167318509Y-107273832D01*
X167318511Y-107273829D01*
X167673829Y-106918511D01*
X167675716Y-106917250D01*
X168091648Y-106639333D01*
X168555901Y-106447034D01*
X168555902Y-106447034D01*
X168555904Y-106447033D01*
X169048747Y-106349000D01*
X169551253Y-106349000D01*
X170044096Y-106447033D01*
X170044096Y-106447033D01*
G37*
G36*
X203463000Y-110951000D02*
X201837000Y-110951000D01*
X201837000Y-106849000D01*
X203463000Y-106849000D01*
X203463000Y-110951000D01*
X203463000Y-110951000D01*
G37*
G36*
X208463000Y-110951000D02*
X206837000Y-110951000D01*
X206837000Y-106849000D01*
X208463000Y-106849000D01*
X208463000Y-110951000D01*
X208463000Y-110951000D01*
G37*
G36*
X190763000Y-110951000D02*
X189137000Y-110951000D01*
X189137000Y-106849000D01*
X190763000Y-106849000D01*
X190763000Y-110951000D01*
X190763000Y-110951000D01*
G37*
G36*
X193303000Y-110951000D02*
X191677000Y-110951000D01*
X191677000Y-106849000D01*
X193303000Y-106849000D01*
X193303000Y-110951000D01*
X193303000Y-110951000D01*
G37*
G36*
X195843000Y-110951000D02*
X194217000Y-110951000D01*
X194217000Y-106849000D01*
X195843000Y-106849000D01*
X195843000Y-110951000D01*
X195843000Y-110951000D01*
G37*
G36*
X198383000Y-110951000D02*
X196757000Y-110951000D01*
X196757000Y-106849000D01*
X198383000Y-106849000D01*
X198383000Y-110951000D01*
X198383000Y-110951000D01*
G37*
G36*
X200923000Y-110951000D02*
X199297000Y-110951000D01*
X199297000Y-106849000D01*
X200923000Y-106849000D01*
X200923000Y-110951000D01*
X200923000Y-110951000D01*
G37*
G36*
X205963000Y-110951000D02*
X204337000Y-110951000D01*
X204337000Y-106849000D01*
X205963000Y-106849000D01*
X205963000Y-110951000D01*
X205963000Y-110951000D01*
G37*
G36*
X237117021Y-99206640D02*
X237626770Y-99417785D01*
X237626771Y-99417786D01*
X238085534Y-99724321D01*
X238475679Y-100114466D01*
X238680036Y-100420308D01*
X238782215Y-100573230D01*
X238993360Y-101082979D01*
X239101000Y-101624124D01*
X239101000Y-102175876D01*
X238993360Y-102717021D01*
X238782215Y-103226770D01*
X238782214Y-103226771D01*
X238475679Y-103685534D01*
X238085534Y-104075679D01*
X237779692Y-104280036D01*
X237626770Y-104382215D01*
X237117021Y-104593360D01*
X236575876Y-104701000D01*
X236024124Y-104701000D01*
X235482979Y-104593360D01*
X234973230Y-104382215D01*
X234820308Y-104280036D01*
X234514466Y-104075679D01*
X234124321Y-103685534D01*
X233817786Y-103226771D01*
X233817785Y-103226770D01*
X233606640Y-102717021D01*
X233499000Y-102175876D01*
X233499000Y-101624124D01*
X233606640Y-101082979D01*
X233817785Y-100573230D01*
X233919964Y-100420308D01*
X234124321Y-100114466D01*
X234514466Y-99724321D01*
X234973229Y-99417786D01*
X234973230Y-99417785D01*
X235482979Y-99206640D01*
X236024124Y-99099000D01*
X236575876Y-99099000D01*
X237117021Y-99206640D01*
X237117021Y-99206640D01*
G37*
G36*
X237117021Y-73206640D02*
X237626770Y-73417785D01*
X237626771Y-73417786D01*
X238085534Y-73724321D01*
X238475679Y-74114466D01*
X238680036Y-74420308D01*
X238782215Y-74573230D01*
X238993360Y-75082979D01*
X239101000Y-75624124D01*
X239101000Y-76175876D01*
X238993360Y-76717021D01*
X238782215Y-77226770D01*
X238782214Y-77226771D01*
X238475679Y-77685534D01*
X238085534Y-78075679D01*
X237779692Y-78280036D01*
X237626770Y-78382215D01*
X237117021Y-78593360D01*
X236575876Y-78701000D01*
X236024124Y-78701000D01*
X235482979Y-78593360D01*
X234973230Y-78382215D01*
X234820308Y-78280036D01*
X234514466Y-78075679D01*
X234124321Y-77685534D01*
X233817786Y-77226771D01*
X233817785Y-77226770D01*
X233606640Y-76717021D01*
X233499000Y-76175876D01*
X233499000Y-75624124D01*
X233606640Y-75082979D01*
X233817785Y-74573230D01*
X233919964Y-74420308D01*
X234124321Y-74114466D01*
X234514466Y-73724321D01*
X234973229Y-73417786D01*
X234973230Y-73417785D01*
X235482979Y-73206640D01*
X236024124Y-73099000D01*
X236575876Y-73099000D01*
X237117021Y-73206640D01*
X237117021Y-73206640D01*
G37*
G36*
X237044096Y-66447033D02*
X237044098Y-66447034D01*
X237044099Y-66447034D01*
X237508352Y-66639333D01*
X237924284Y-66917250D01*
X237926171Y-66918511D01*
X238281489Y-67273829D01*
X238281491Y-67273832D01*
X238560667Y-67691648D01*
X238752966Y-68155901D01*
X238851000Y-68648748D01*
X238851000Y-69151252D01*
X238752966Y-69644099D01*
X238560667Y-70108352D01*
X238282750Y-70524284D01*
X238281489Y-70526171D01*
X237926171Y-70881489D01*
X237926168Y-70881491D01*
X237508352Y-71160667D01*
X237044099Y-71352966D01*
X237044098Y-71352966D01*
X237044096Y-71352967D01*
X236551253Y-71451000D01*
X236048747Y-71451000D01*
X235555904Y-71352967D01*
X235555902Y-71352966D01*
X235555901Y-71352966D01*
X235091648Y-71160667D01*
X234673832Y-70881491D01*
X234673829Y-70881489D01*
X234318511Y-70526171D01*
X234317250Y-70524284D01*
X234039333Y-70108352D01*
X233847034Y-69644099D01*
X233749000Y-69151252D01*
X233749000Y-68648748D01*
X233847034Y-68155901D01*
X234039333Y-67691648D01*
X234318509Y-67273832D01*
X234318511Y-67273829D01*
X234673829Y-66918511D01*
X234675716Y-66917250D01*
X235091648Y-66639333D01*
X235555901Y-66447034D01*
X235555902Y-66447034D01*
X235555904Y-66447033D01*
X236048747Y-66349000D01*
X236551253Y-66349000D01*
X237044096Y-66447033D01*
X237044096Y-66447033D01*
G37*
G36*
X170044096Y-66447033D02*
X170044098Y-66447034D01*
X170044099Y-66447034D01*
X170508352Y-66639333D01*
X170924284Y-66917250D01*
X170926171Y-66918511D01*
X171281489Y-67273829D01*
X171281491Y-67273832D01*
X171560667Y-67691648D01*
X171752966Y-68155901D01*
X171851000Y-68648748D01*
X171851000Y-69151252D01*
X171752966Y-69644099D01*
X171560667Y-70108352D01*
X171282750Y-70524284D01*
X171281489Y-70526171D01*
X170926171Y-70881489D01*
X170926168Y-70881491D01*
X170508352Y-71160667D01*
X170044099Y-71352966D01*
X170044098Y-71352966D01*
X170044096Y-71352967D01*
X169551253Y-71451000D01*
X169048747Y-71451000D01*
X168555904Y-71352967D01*
X168555902Y-71352966D01*
X168555901Y-71352966D01*
X168091648Y-71160667D01*
X167673832Y-70881491D01*
X167673829Y-70881489D01*
X167318511Y-70526171D01*
X167317250Y-70524284D01*
X167039333Y-70108352D01*
X166847034Y-69644099D01*
X166749000Y-69151252D01*
X166749000Y-68648748D01*
X166847034Y-68155901D01*
X167039333Y-67691648D01*
X167318509Y-67273832D01*
X167318511Y-67273829D01*
X167673829Y-66918511D01*
X167675716Y-66917250D01*
X168091648Y-66639333D01*
X168555901Y-66447034D01*
X168555902Y-66447034D01*
X168555904Y-66447033D01*
X169048747Y-66349000D01*
X169551253Y-66349000D01*
X170044096Y-66447033D01*
X170044096Y-66447033D01*
G37*
G36*
X190763000Y-70951000D02*
X189137000Y-70951000D01*
X189137000Y-66849000D01*
X190763000Y-66849000D01*
X190763000Y-70951000D01*
X190763000Y-70951000D01*
G37*
G36*
X208463000Y-70951000D02*
X206837000Y-70951000D01*
X206837000Y-66849000D01*
X208463000Y-66849000D01*
X208463000Y-70951000D01*
X208463000Y-70951000D01*
G37*
G36*
X193263000Y-70951000D02*
X191637000Y-70951000D01*
X191637000Y-66849000D01*
X193263000Y-66849000D01*
X193263000Y-70951000D01*
X193263000Y-70951000D01*
G37*
G36*
X195763000Y-70951000D02*
X194137000Y-70951000D01*
X194137000Y-66849000D01*
X195763000Y-66849000D01*
X195763000Y-70951000D01*
X195763000Y-70951000D01*
G37*
G36*
X198303000Y-70951000D02*
X196677000Y-70951000D01*
X196677000Y-66849000D01*
X198303000Y-66849000D01*
X198303000Y-70951000D01*
X198303000Y-70951000D01*
G37*
G36*
X200843000Y-70951000D02*
X199217000Y-70951000D01*
X199217000Y-66849000D01*
X200843000Y-66849000D01*
X200843000Y-70951000D01*
X200843000Y-70951000D01*
G37*
G36*
X203383000Y-70951000D02*
X201757000Y-70951000D01*
X201757000Y-66849000D01*
X203383000Y-66849000D01*
X203383000Y-70951000D01*
X203383000Y-70951000D01*
G37*
G36*
X205923000Y-70951000D02*
X204297000Y-70951000D01*
X204297000Y-66849000D01*
X205923000Y-66849000D01*
X205923000Y-70951000D01*
X205923000Y-70951000D01*
G37*
M02*
