G04 #@! TF.GenerationSoftware,KiCad,Pcbnew,(5.0.0-rc2-60-gbfa89039c)*
G04 #@! TF.CreationDate,2019-08-02T13:23:08+03:00*
G04 #@! TF.ProjectId,ModelPCB,4D6F64656C5043422E6B696361645F70,rev?*
G04 #@! TF.SameCoordinates,Original*
G04 #@! TF.FileFunction,Copper,L1,Top,Signal*
G04 #@! TF.FilePolarity,Positive*
%FSLAX46Y46*%
G04 Gerber Fmt 4.6, Leading zero omitted, Abs format (unit mm)*
G04 Created by KiCad (PCBNEW (5.0.0-rc2-60-gbfa89039c)) date 08/02/19 13:23:08*
%MOMM*%
%LPD*%
G01*
G04 APERTURE LIST*
G04 #@! TA.AperFunction,NonConductor*
%ADD10C,0.050000*%
G04 #@! TD*
G04 #@! TA.AperFunction,SMDPad,CuDef*
%ADD11R,1.524000X4.000000*%
G04 #@! TD*
G04 #@! TA.AperFunction,Conductor*
%ADD12R,6.000000X1.500000*%
G04 #@! TD*
G04 #@! TA.AperFunction,ComponentPad*
%ADD13C,5.000000*%
G04 #@! TD*
G04 #@! TA.AperFunction,ComponentPad*
%ADD14C,5.500000*%
G04 #@! TD*
G04 #@! TA.AperFunction,Conductor*
%ADD15R,1.524000X10.000000*%
G04 #@! TD*
G04 #@! TA.AperFunction,ViaPad*
%ADD16C,0.800000*%
G04 #@! TD*
G04 #@! TA.AperFunction,Conductor*
%ADD17C,0.250000*%
G04 #@! TD*
G04 #@! TA.AperFunction,Conductor*
%ADD18C,0.800000*%
G04 #@! TD*
G04 APERTURE END LIST*
D10*
X154300000Y-63900000D02*
X241300000Y-63900000D01*
X154300000Y-113900000D02*
X154300000Y-100900000D01*
X154300000Y-76900000D02*
X154300000Y-63900000D01*
X162300000Y-76900000D02*
X154300000Y-76900000D01*
X241300000Y-113900000D02*
X154300000Y-113900000D01*
X162300000Y-100900000D02*
X162300000Y-76900000D01*
X154300000Y-100900000D02*
X162300000Y-100900000D01*
X241300000Y-113900000D02*
X241300000Y-63900000D01*
D11*
G04 #@! TO.P,J2,8*
G04 #@! TO.N,/SIG*
X207650000Y-68900000D03*
G04 #@! TO.P,J2,7*
G04 #@! TO.N,/SIG_BP*
X205110000Y-68900000D03*
G04 #@! TO.P,J2,6*
G04 #@! TO.N,/5V*
X202570000Y-68900000D03*
G04 #@! TO.P,J2,5*
G04 #@! TO.N,/GND*
X200030000Y-68900000D03*
G04 #@! TO.P,J2,4*
X197490000Y-68900000D03*
G04 #@! TO.P,J2,3*
X194950000Y-68900000D03*
G04 #@! TO.P,J2,2*
G04 #@! TO.N,Net-(J2-Pad2)*
X192450000Y-68900000D03*
G04 #@! TO.P,J2,1*
G04 #@! TO.N,/12V*
X189950000Y-68900000D03*
G04 #@! TD*
G04 #@! TO.P,J3,1*
G04 #@! TO.N,/SIG*
X207650000Y-108900000D03*
G04 #@! TO.P,J3,2*
G04 #@! TO.N,/SIG_BP*
X205150000Y-108900000D03*
G04 #@! TO.P,J3,3*
G04 #@! TO.N,/5V*
X202650000Y-108900000D03*
G04 #@! TO.P,J3,4*
G04 #@! TO.N,/GND*
X200110000Y-108900000D03*
G04 #@! TO.P,J3,5*
X197570000Y-108900000D03*
G04 #@! TO.P,J3,6*
X195030000Y-108900000D03*
G04 #@! TO.P,J3,7*
G04 #@! TO.N,Net-(J2-Pad2)*
X192490000Y-108900000D03*
G04 #@! TO.P,J3,8*
G04 #@! TO.N,/12V*
X189950000Y-108900000D03*
G04 #@! TD*
D12*
G04 #@! TO.N,Net-(J1-Pad1)*
G04 #@! TO.C,J1*
X236300000Y-95150000D03*
G04 #@! TO.N,Net-(J1-Pad2)*
X236300000Y-92650000D03*
G04 #@! TO.N,/GND*
X236300000Y-90150000D03*
X236300000Y-87650000D03*
G04 #@! TO.N,Net-(J1-Pad5)*
X236300000Y-85150000D03*
G04 #@! TO.N,/SIG*
X236300000Y-82650000D03*
G04 #@! TD*
D13*
G04 #@! TO.P,H2,1*
G04 #@! TO.N,N/C*
X169300000Y-68900000D03*
G04 #@! TD*
G04 #@! TO.P,H3,1*
G04 #@! TO.N,N/C*
X236300000Y-68900000D03*
G04 #@! TD*
D14*
G04 #@! TO.P,H6,1*
G04 #@! TO.N,N/C*
X236300000Y-101900000D03*
G04 #@! TD*
D15*
G04 #@! TO.N,/5V*
G04 #@! TO.C,SW1*
X156300000Y-106680000D03*
G04 #@! TO.N,Net-(J1-Pad5)*
X156300000Y-71120000D03*
G04 #@! TD*
G04 #@! TO.N,Net-(J1-Pad2)*
G04 #@! TO.C,SW2*
X160300000Y-71120000D03*
G04 #@! TO.N,/12V*
X160300000Y-106680000D03*
G04 #@! TD*
D13*
G04 #@! TO.P,H4,1*
G04 #@! TO.N,N/C*
X236300000Y-108900000D03*
G04 #@! TD*
D14*
G04 #@! TO.P,H5,1*
G04 #@! TO.N,N/C*
X236300000Y-75900000D03*
G04 #@! TD*
D13*
G04 #@! TO.P,H1,1*
G04 #@! TO.N,N/C*
X169300000Y-108900000D03*
G04 #@! TD*
D16*
G04 #@! TO.N,Net-(J1-Pad2)*
X165100000Y-74295000D03*
X164465000Y-75565000D03*
G04 #@! TO.N,/GND*
X199390000Y-77470000D03*
X196850000Y-100330000D03*
X198755000Y-100330000D03*
X196215000Y-78740000D03*
X194945000Y-100330000D03*
G04 #@! TO.N,/SIG*
X209550000Y-104140000D03*
G04 #@! TO.N,Net-(J1-Pad2)*
X231300000Y-92899948D03*
X231800000Y-91900000D03*
G04 #@! TO.N,Net-(J1-Pad5)*
X158300000Y-71400000D03*
X229800000Y-85400000D03*
X230300000Y-84400000D03*
G04 #@! TO.N,/SIG*
X207800000Y-76400000D03*
X217800000Y-82400000D03*
G04 #@! TO.N,/5V*
X201930000Y-77470000D03*
X203200000Y-77470000D03*
X205740000Y-101600000D03*
X204470000Y-101600000D03*
X157480000Y-112395000D03*
X158115000Y-111760000D03*
X201930000Y-105410000D03*
X201930000Y-106680000D03*
G04 #@! TO.N,/12V*
X163830000Y-104140000D03*
X163830000Y-105410000D03*
X189230000Y-76200000D03*
X190500000Y-76200000D03*
X190500000Y-104775000D03*
X189230000Y-104775000D03*
G04 #@! TO.N,Net-(J2-Pad2)*
X193040000Y-105410000D03*
X191770000Y-105410000D03*
X193040000Y-76200000D03*
X191770000Y-76200000D03*
G04 #@! TO.N,/SIG_BP*
X207300000Y-98400000D03*
X207300000Y-91900000D03*
G04 #@! TD*
D17*
G04 #@! TO.N,/SIG*
X238550000Y-82650000D02*
X236300000Y-82650000D01*
D18*
G04 #@! TO.N,Net-(J1-Pad2)*
X163475000Y-74295000D02*
X160300000Y-71120000D01*
X165100000Y-74295000D02*
X163475000Y-74295000D01*
X163475000Y-74575000D02*
X163475000Y-74295000D01*
X164465000Y-75565000D02*
X163475000Y-74575000D01*
G04 #@! TO.N,/GND*
X236300000Y-90150000D02*
X233800000Y-90150000D01*
X195030000Y-108900000D02*
X200110000Y-108900000D01*
X200030000Y-76830000D02*
X199390000Y-77470000D01*
X197570000Y-101050000D02*
X197570000Y-108900000D01*
X196850000Y-100330000D02*
X197570000Y-101050000D01*
X198290000Y-100330000D02*
X197570000Y-101050000D01*
X198755000Y-100330000D02*
X198290000Y-100330000D01*
X194950000Y-71700000D02*
X195640000Y-72390000D01*
X194950000Y-68900000D02*
X194950000Y-71700000D01*
X200030000Y-68900000D02*
X200030000Y-72390000D01*
X200030000Y-72390000D02*
X200030000Y-76830000D01*
X197490000Y-72385000D02*
X197490000Y-68900000D01*
X197485000Y-72390000D02*
X197490000Y-72385000D01*
X197485000Y-72390000D02*
X200030000Y-72390000D01*
X196215000Y-72390000D02*
X196215000Y-77470000D01*
X196215000Y-72390000D02*
X197485000Y-72390000D01*
X195640000Y-72390000D02*
X196215000Y-72390000D01*
X196215000Y-77470000D02*
X196215000Y-78740000D01*
X194945000Y-108815000D02*
X195030000Y-108900000D01*
X194945000Y-100330000D02*
X194945000Y-108815000D01*
D17*
G04 #@! TO.N,Net-(J1-Pad1)*
X236200000Y-95250000D02*
X236300000Y-95150000D01*
D18*
G04 #@! TO.N,Net-(J1-Pad2)*
X231300052Y-92900000D02*
X231300000Y-92899948D01*
X231800000Y-91900000D02*
X232800000Y-92900000D01*
X235300000Y-92900000D02*
X232800000Y-92900000D01*
X232800000Y-92900000D02*
X231300052Y-92900000D01*
G04 #@! TO.N,/GND*
X199154999Y-99930001D02*
X198755000Y-100330000D01*
X202565000Y-96520000D02*
X199154999Y-99930001D01*
X221680000Y-96520000D02*
X202565000Y-96520000D01*
X236300000Y-87650000D02*
X230550000Y-87650000D01*
X230550000Y-87650000D02*
X221680000Y-96520000D01*
X200110000Y-110138000D02*
X200110000Y-108900000D01*
X202367000Y-112395000D02*
X200110000Y-110138000D01*
X207305000Y-112395000D02*
X202367000Y-112395000D01*
X208892001Y-111500001D02*
X208199999Y-111500001D01*
X208199999Y-111500001D02*
X207305000Y-112395000D01*
X236300000Y-90150000D02*
X234050000Y-90150000D01*
X234050000Y-90150000D02*
X233800000Y-90400000D01*
X233800000Y-90400000D02*
X229300000Y-90400000D01*
X229300000Y-90400000D02*
X209012001Y-110687999D01*
X209012001Y-110687999D02*
X209012001Y-111380001D01*
X209012001Y-111380001D02*
X208892001Y-111500001D01*
X236300000Y-87650000D02*
X236300000Y-90150000D01*
G04 #@! TO.N,Net-(J1-Pad5)*
X158020000Y-71120000D02*
X158300000Y-71400000D01*
X156300000Y-71120000D02*
X158020000Y-71120000D01*
X236050000Y-85400000D02*
X236300000Y-85150000D01*
X230800000Y-84900000D02*
X230300000Y-84400000D01*
X230800000Y-85400000D02*
X230800000Y-84900000D01*
X230800000Y-85400000D02*
X236050000Y-85400000D01*
X229800000Y-85400000D02*
X230800000Y-85400000D01*
D17*
G04 #@! TO.N,/SIG*
X209550000Y-104705685D02*
X209550000Y-104140000D01*
X209550000Y-108012000D02*
X209550000Y-107400000D01*
X208662000Y-108900000D02*
X209550000Y-108012000D01*
X207650000Y-108900000D02*
X208662000Y-108900000D01*
X209550000Y-107400000D02*
X209550000Y-104705685D01*
X207800000Y-76400000D02*
X207800000Y-69050000D01*
X207800000Y-69050000D02*
X207650000Y-68900000D01*
X236050000Y-82400000D02*
X236300000Y-82650000D01*
X217800000Y-82400000D02*
X236050000Y-82400000D01*
D18*
G04 #@! TO.N,/5V*
X202570000Y-68900000D02*
X202570000Y-76830000D01*
X202570000Y-76830000D02*
X201930000Y-77470000D01*
X202570000Y-76830000D02*
X202570000Y-76840000D01*
X202570000Y-76840000D02*
X203200000Y-77470000D01*
X205110000Y-102240000D02*
X205740000Y-101610000D01*
X205740000Y-101610000D02*
X205740000Y-101600000D01*
X205110000Y-102240000D02*
X204470000Y-101600000D01*
X157480000Y-112395000D02*
X156210000Y-112395000D01*
X156210000Y-106770000D02*
X156300000Y-106680000D01*
X156210000Y-112395000D02*
X156210000Y-106770000D01*
X158115000Y-108495000D02*
X156300000Y-106680000D01*
X158115000Y-111760000D02*
X158115000Y-108495000D01*
X205110000Y-103640000D02*
X205110000Y-102240000D01*
X202650000Y-106100000D02*
X205110000Y-103640000D01*
X202650000Y-106595000D02*
X202650000Y-106130000D01*
X202650000Y-106595000D02*
X202650000Y-106100000D01*
X202650000Y-108900000D02*
X202650000Y-106595000D01*
X202650000Y-106130000D02*
X201930000Y-105410000D01*
X202650000Y-108035000D02*
X201930000Y-107315000D01*
X202650000Y-108900000D02*
X202650000Y-108035000D01*
X201930000Y-107315000D02*
X201930000Y-106680000D01*
G04 #@! TO.N,/12V*
X189950000Y-106100000D02*
X189870000Y-106020000D01*
X189950000Y-108900000D02*
X189950000Y-106100000D01*
X189950000Y-68900000D02*
X189950000Y-71700000D01*
X163830000Y-104140000D02*
X162840000Y-104140000D01*
X161925000Y-105410000D02*
X161747500Y-105232500D01*
X163830000Y-105410000D02*
X161925000Y-105410000D01*
X162840000Y-104140000D02*
X161747500Y-105232500D01*
X161747500Y-105232500D02*
X160300000Y-106680000D01*
X190500000Y-76200000D02*
X189865000Y-75565000D01*
X189865000Y-75565000D02*
X189910000Y-75520000D01*
X189865000Y-75565000D02*
X189230000Y-76200000D01*
X189865000Y-71785000D02*
X189950000Y-71700000D01*
X189865000Y-75565000D02*
X189865000Y-71785000D01*
X189950000Y-106100000D02*
X189950000Y-105325000D01*
X189950000Y-105325000D02*
X190500000Y-104775000D01*
X189780000Y-105325000D02*
X189230000Y-104775000D01*
X189950000Y-105325000D02*
X189780000Y-105325000D01*
G04 #@! TO.N,Net-(J2-Pad2)*
X192490000Y-106100000D02*
X192490000Y-108900000D01*
X192490000Y-106100000D02*
X192490000Y-105960000D01*
X192490000Y-105960000D02*
X193040000Y-105410000D01*
X192320000Y-105960000D02*
X192490000Y-105960000D01*
X191770000Y-105410000D02*
X192320000Y-105960000D01*
X193040000Y-76200000D02*
X192405000Y-75565000D01*
X192405000Y-75565000D02*
X191770000Y-76200000D01*
X192450000Y-75520000D02*
X192450000Y-68900000D01*
X192405000Y-75565000D02*
X192450000Y-75520000D01*
D17*
G04 #@! TO.N,/SIG_BP*
X205150000Y-108900000D02*
X205150000Y-110138000D01*
X205105000Y-68905000D02*
X205110000Y-68900000D01*
X205150000Y-107662000D02*
X207300000Y-105512000D01*
X205150000Y-108900000D02*
X205150000Y-107662000D01*
X207300000Y-105512000D02*
X207300000Y-99900000D01*
X207300000Y-99900000D02*
X207300000Y-98400000D01*
X207300000Y-91900000D02*
X207300000Y-87400000D01*
X205110000Y-85210000D02*
X205110000Y-68900000D01*
X207300000Y-87400000D02*
X205110000Y-85210000D01*
G04 #@! TD*
M02*
